# Blender 4.5.4 LTS
# www.blender.org
mtllib grass.mtl
o Plane
v -0.170999 -0.006672 0.272088
v 0.170999 -0.006671 -0.272088
v -0.170999 0.299254 0.272088
v 0.170999 0.299254 -0.272088
vn 0.8467 -0.0000 0.5321
vt 0.000000 0.000000
vt 1.000000 0.000000
vt 1.000000 1.000000
vt 0.000000 1.000000
s 0
usemtl grass
f 1/1/1 2/2/1 4/3/1 3/4/1
o Plane.001
v -0.321361 -0.006672 0.000000
v 0.321361 -0.006672 0.000000
v -0.321361 0.299254 -0.000000
v 0.321361 0.299254 -0.000000
vn -0.0000 -0.0000 1.0000
vt 0.000000 0.000000
vt 1.000000 0.000000
vt 1.000000 1.000000
vt 0.000000 1.000000
s 0
usemtl grass.001
f 5/5/2 6/6/2 8/7/2 7/8/2
o Plane.002
v -0.127818 -0.006671 -0.294848
v 0.127818 -0.006672 0.294848
v -0.127818 0.299254 -0.294848
v 0.127818 0.299254 0.294848
vn -0.9175 -0.0000 0.3977
vt 0.000000 0.000000
vt 1.000000 0.000000
vt 1.000000 1.000000
vt 0.000000 1.000000
s 0
usemtl grass.002
f 9/9/3 10/10/3 12/11/3 11/12/3
