# Blender 4.5.4 LTS
# www.blender.org
mtllib login.mtl
o Text
v 3.773000 0.691000 0.000000
v 3.731000 0.691000 0.000000
v 3.386000 0.269000 0.000000
v 3.386000 0.224000 0.000000
v 3.675000 0.224000 0.000000
v 3.675000 0.000000 0.000000
v 3.773000 0.000000 0.000000
v 3.773000 0.224000 0.000000
v 3.846000 0.224000 0.000000
v 3.846000 0.312000 0.000000
v 3.773000 0.312000 0.000000
v 3.673000 0.506000 0.000000
v 3.675000 0.506000 0.000000
v 3.675000 0.312000 0.000000
v 3.517000 0.312000 0.000000
v 0.587000 0.682000 0.000000
v 0.017000 0.682000 0.000000
v 0.017000 0.594000 0.000000
v 0.253000 0.594000 0.000000
v 0.253000 0.000000 0.000000
v 0.351000 0.000000 0.000000
v 0.351000 0.594000 0.000000
v 0.587000 0.594000 0.000000
v 0.681000 0.682000 0.000000
v 0.681000 0.000000 0.000000
v 0.779000 0.000000 0.000000
v 0.779000 0.296000 0.000000
v 0.820000 0.296000 0.000000
v 0.832346 0.295604 0.000000
v 0.844519 0.294167 0.000000
v 0.856719 0.291313 0.000000
v 0.869148 0.286667 0.000000
v 0.882008 0.279854 0.000000
v 0.895500 0.270500 0.000000
v 0.909825 0.258229 0.000000
v 0.925185 0.242667 0.000000
v 0.941781 0.223437 0.000000
v 0.959815 0.200167 0.000000
v 0.979487 0.172479 0.000000
v 1.001000 0.140000 0.000000
v 1.091000 0.000000 0.000000
v 1.208000 0.000000 0.000000
v 1.196847 0.015411 0.000000
v 1.186793 0.029298 0.000000
v 1.177693 0.041891 0.000000
v 1.169405 0.053420 0.000000
v 1.161782 0.064116 0.000000
v 1.154683 0.074209 0.000000
v 1.147962 0.083929 0.000000
v 1.141476 0.093507 0.000000
v 1.135080 0.103172 0.000000
v 1.128632 0.113156 0.000000
v 1.121987 0.123689 0.000000
v 1.115000 0.135000 0.000000
v 1.102270 0.155792 0.000000
v 1.089991 0.175667 0.000000
v 1.078031 0.194625 0.000000
v 1.066259 0.212667 0.000000
v 1.054543 0.229792 0.000000
v 1.042750 0.246000 0.000000
v 1.030749 0.261292 0.000000
v 1.018407 0.275667 0.000000
v 1.005594 0.289125 0.000000
v 0.992176 0.301667 0.000000
v 0.978022 0.313292 0.000000
v 0.963000 0.324000 0.000000
v 0.980578 0.331869 0.000000
v 0.996792 0.340954 0.000000
v 1.011609 0.351219 0.000000
v 1.025000 0.362630 0.000000
v 1.036932 0.375152 0.000000
v 1.047375 0.388750 0.000000
v 1.056297 0.403390 0.000000
v 1.063667 0.419037 0.000000
v 1.069453 0.435656 0.000000
v 1.073625 0.453213 0.000000
v 1.076151 0.471673 0.000000
v 1.077000 0.491000 0.000000
v 1.075228 0.519546 0.000000
v 1.069991 0.546120 0.000000
v 1.061406 0.570625 0.000000
v 1.049593 0.592963 0.000000
v 1.034668 0.613037 0.000000
v 1.016750 0.630750 0.000000
v 0.995957 0.646005 0.000000
v 0.972407 0.658704 0.000000
v 0.946219 0.668750 0.000000
v 0.917509 0.676046 0.000000
v 0.886397 0.680495 0.000000
v 0.853000 0.682000 0.000000
v 0.779000 0.598000 0.000000
v 0.842000 0.598000 0.000000
v 0.864572 0.597196 0.000000
v 0.884834 0.594815 0.000000
v 0.902858 0.590906 0.000000
v 0.918714 0.585518 0.000000
v 0.932472 0.578700 0.000000
v 0.944204 0.570499 0.000000
v 0.953980 0.560966 0.000000
v 0.961871 0.550147 0.000000
v 0.967948 0.538093 0.000000
v 0.972282 0.524851 0.000000
v 0.974942 0.510471 0.000000
v 0.976000 0.495000 0.000000
v 0.975579 0.480842 0.000000
v 0.973713 0.466986 0.000000
v 0.970250 0.453609 0.000000
v 0.965037 0.440889 0.000000
v 0.957921 0.429002 0.000000
v 0.948750 0.418125 0.000000
v 0.937370 0.408436 0.000000
v 0.923630 0.400111 0.000000
v 0.907375 0.393328 0.000000
v 0.888454 0.388264 0.000000
v 0.866713 0.385095 0.000000
v 0.842000 0.384000 0.000000
v 0.779000 0.384000 0.000000
v 1.570000 0.686000 0.000000
v 1.501000 0.686000 0.000000
v 1.208000 0.000000 0.000000
v 1.308000 0.000000 0.000000
v 1.394000 0.201000 0.000000
v 1.684000 0.201000 0.000000
v 1.775000 0.000000 0.000000
v 1.875000 0.000000 0.000000
v 1.534000 0.536000 0.000000
v 1.644000 0.289000 0.000000
v 1.432000 0.289000 0.000000
v 2.345000 0.341000 0.000000
v 2.343192 0.392001 0.000000
v 2.337871 0.439843 0.000000
v 2.329188 0.484281 0.000000
v 2.317297 0.525074 0.000000
v 2.302350 0.561978 0.000000
v 2.284500 0.594750 0.000000
v 2.263901 0.623147 0.000000
v 2.240704 0.646926 0.000000
v 2.215063 0.665844 0.000000
v 2.187130 0.679658 0.000000
v 2.157058 0.688124 0.000000
v 2.125000 0.691000 0.000000
v 2.092942 0.688124 0.000000
v 2.062871 0.679657 0.000000
v 2.034938 0.665844 0.000000
v 2.009296 0.646926 0.000000
v 1.986100 0.623147 0.000000
v 1.965500 0.594750 0.000000
v 1.947651 0.561978 0.000000
v 1.932704 0.525074 0.000000
v 1.920813 0.484281 0.000000
v 1.912130 0.439843 0.000000
v 1.906808 0.392001 0.000000
v 1.905000 0.341000 0.000000
v 1.906808 0.289999 0.000000
v 1.912130 0.242157 0.000000
v 1.920813 0.197719 0.000000
v 1.932704 0.156926 0.000000
v 1.947651 0.120022 0.000000
v 1.965500 0.087250 0.000000
v 1.986100 0.058853 0.000000
v 2.009296 0.035074 0.000000
v 2.034938 0.016156 0.000000
v 2.062871 0.002343 0.000000
v 2.092942 -0.006124 -0.000000
v 2.125000 -0.009000 -0.000000
v 2.157058 -0.006124 -0.000000
v 2.187130 0.002343 0.000000
v 2.215063 0.016156 0.000000
v 2.240704 0.035074 0.000000
v 2.263901 0.058853 0.000000
v 2.284500 0.087250 0.000000
v 2.302350 0.120022 0.000000
v 2.317296 0.156926 0.000000
v 2.329187 0.197719 0.000000
v 2.337870 0.242157 0.000000
v 2.343192 0.289999 0.000000
v 2.247000 0.341000 0.000000
v 2.246051 0.302332 0.000000
v 2.243241 0.266407 0.000000
v 2.238625 0.233344 0.000000
v 2.232259 0.203259 0.000000
v 2.224199 0.176272 0.000000
v 2.214500 0.152500 0.000000
v 2.203218 0.132061 0.000000
v 2.190407 0.115074 0.000000
v 2.176125 0.101656 0.000000
v 2.160426 0.091926 0.000000
v 2.143365 0.086001 0.000000
v 2.125000 0.084000 0.000000
v 2.109678 0.086001 0.000000
v 2.101034 0.091926 0.000000
v 2.098047 0.101656 0.000000
v 2.099701 0.115074 0.000000
v 2.104976 0.132061 0.000000
v 2.112852 0.152500 0.000000
v 2.122312 0.176272 0.000000
v 2.132337 0.203259 0.000000
v 2.141907 0.233344 0.000000
v 2.150004 0.266407 0.000000
v 2.155610 0.302332 0.000000
v 2.157705 0.341000 0.000000
v 2.155610 0.379668 0.000000
v 2.150004 0.415593 0.000000
v 2.141907 0.448656 0.000000
v 2.132337 0.478741 0.000000
v 2.122312 0.505728 0.000000
v 2.112852 0.529500 0.000000
v 2.104975 0.549939 0.000000
v 2.099701 0.566926 0.000000
v 2.098047 0.580344 0.000000
v 2.101033 0.590074 0.000000
v 2.109678 0.595999 0.000000
v 2.125000 0.598000 0.000000
v 2.143366 0.595999 0.000000
v 2.160426 0.590074 0.000000
v 2.176125 0.580344 0.000000
v 2.190408 0.566926 0.000000
v 2.203218 0.549939 0.000000
v 2.214500 0.529500 0.000000
v 2.224200 0.505728 0.000000
v 2.232260 0.478741 0.000000
v 2.238626 0.448656 0.000000
v 2.243241 0.415593 0.000000
v 2.246052 0.379668 0.000000
v 2.675000 0.682000 0.000000
v 2.577000 0.682000 0.000000
v 2.577000 0.000000 0.000000
v 2.675000 0.000000 0.000000
v 3.192000 0.691000 0.000000
v 3.149446 0.660466 0.000000
v 3.110320 0.627977 0.000000
v 3.074672 0.593703 0.000000
v 3.042556 0.557815 0.000000
v 3.014023 0.520482 0.000000
v 2.989125 0.481875 0.000000
v 2.967915 0.442164 0.000000
v 2.950444 0.401519 0.000000
v 2.936765 0.360109 0.000000
v 2.926930 0.318107 0.000000
v 2.920991 0.275680 0.000000
v 2.919000 0.233000 0.000000
v 2.920827 0.197988 0.000000
v 2.926199 0.165074 0.000000
v 2.934953 0.134438 0.000000
v 2.946926 0.106259 0.000000
v 2.961954 0.080720 0.000000
v 2.979875 0.058000 0.000000
v 3.000525 0.038280 0.000000
v 3.023741 0.021741 0.000000
v 3.049359 0.008563 0.000000
v 3.077217 -0.001074 -0.000000
v 3.107152 -0.006988 -0.000000
v 3.139000 -0.009000 -0.000000
v 3.165852 -0.007106 -0.000000
v 3.191736 -0.001597 -0.000000
v 3.216391 0.007266 0.000000
v 3.239556 0.019222 0.000000
v 3.260971 0.034012 0.000000
v 3.280375 0.051375 0.000000
v 3.297509 0.071050 0.000000
v 3.312111 0.092778 0.000000
v 3.323922 0.116297 0.000000
v 3.332681 0.141347 0.000000
v 3.338127 0.167668 0.000000
v 3.340000 0.195000 0.000000
v 3.338324 0.222653 0.000000
v 3.333421 0.248977 0.000000
v 3.325485 0.273766 0.000000
v 3.314704 0.296815 0.000000
v 3.301270 0.317920 0.000000
v 3.285375 0.336875 0.000000
v 3.267209 0.353476 0.000000
v 3.246963 0.367518 0.000000
v 3.224828 0.378797 0.000000
v 3.200995 0.387106 0.000000
v 3.175656 0.392242 0.000000
v 3.149000 0.394000 0.000000
v 3.137957 0.393716 0.000000
v 3.127324 0.392898 0.000000
v 3.117094 0.391594 0.000000
v 3.107259 0.389852 0.000000
v 3.097814 0.387721 0.000000
v 3.088750 0.385250 0.000000
v 3.080061 0.382487 0.000000
v 3.071741 0.379482 0.000000
v 3.063781 0.376281 0.000000
v 3.056176 0.372935 0.000000
v 3.048918 0.369492 0.000000
v 3.042000 0.366000 0.000000
v 3.050161 0.389806 0.000000
v 3.060537 0.413616 0.000000
v 3.072969 0.437266 0.000000
v 3.087296 0.460593 0.000000
v 3.103360 0.483433 0.000000
v 3.121000 0.505625 0.000000
v 3.140057 0.527004 0.000000
v 3.160371 0.547407 0.000000
v 3.181782 0.566672 0.000000
v 3.204130 0.584634 0.000000
v 3.227256 0.601131 0.000000
v 3.251000 0.616000 0.000000
v 3.021000 0.265000 0.000000
v 3.031356 0.271590 0.000000
v 3.041014 0.277389 0.000000
v 3.050109 0.282438 0.000000
v 3.058778 0.286778 0.000000
v 3.067155 0.290451 0.000000
v 3.075375 0.293500 0.000000
v 3.083575 0.295965 0.000000
v 3.091889 0.297889 0.000000
v 3.100453 0.299313 0.000000
v 3.109403 0.300278 0.000000
v 3.118873 0.300826 0.000000
v 3.129000 0.301000 0.000000
v 3.144878 0.300080 0.000000
v 3.159940 0.297389 0.000000
v 3.174078 0.293031 0.000000
v 3.187185 0.287111 0.000000
v 3.199153 0.279733 0.000000
v 3.209875 0.271000 0.000000
v 3.219242 0.261017 0.000000
v 3.227148 0.249889 0.000000
v 3.233484 0.237719 0.000000
v 3.238143 0.224611 0.000000
v 3.241018 0.210670 0.000000
v 3.242000 0.196000 0.000000
v 3.241097 0.179722 0.000000
v 3.238440 0.164440 0.000000
v 3.234109 0.150234 0.000000
v 3.228185 0.137185 0.000000
v 3.220747 0.125372 0.000000
v 3.211875 0.114875 0.000000
v 3.201649 0.105774 0.000000
v 3.190148 0.098148 0.000000
v 3.177453 0.092078 0.000000
v 3.163643 0.087644 0.000000
v 3.148799 0.084924 0.000000
v 3.133000 0.084000 0.000000
v 3.115385 0.085422 0.000000
v 3.098245 0.089630 0.000000
v 3.081891 0.096531 0.000000
v 3.066630 0.106037 0.000000
v 3.052771 0.118057 0.000000
v 3.040625 0.132500 0.000000
v 3.030499 0.149277 0.000000
v 3.022703 0.168296 0.000000
v 3.017547 0.189469 0.000000
v 3.015338 0.212704 0.000000
v 3.016386 0.237911 0.000000
v 3.773000 0.691000 0.213246
v 3.731000 0.691000 0.213246
v 3.386000 0.269000 0.213246
v 3.386000 0.224000 0.213246
v 3.675000 0.224000 0.213246
v 3.675000 -0.000000 0.213246
v 3.773000 -0.000000 0.213246
v 3.773000 0.224000 0.213246
v 3.846000 0.224000 0.213246
v 3.846000 0.312000 0.213246
v 3.773000 0.312000 0.213246
v 3.673000 0.506000 0.213246
v 3.675000 0.506000 0.213246
v 3.675000 0.312000 0.213246
v 3.517000 0.312000 0.213246
v 0.587000 0.682000 0.213246
v 0.017000 0.682000 0.213246
v 0.017000 0.594000 0.213246
v 0.253000 0.594000 0.213246
v 0.253000 -0.000000 0.213246
v 0.351000 -0.000000 0.213246
v 0.351000 0.594000 0.213246
v 0.587000 0.594000 0.213246
v 0.681000 0.682000 0.213246
v 0.681000 -0.000000 0.213246
v 0.779000 -0.000000 0.213246
v 0.779000 0.296000 0.213246
v 0.820000 0.296000 0.213246
v 0.832346 0.295604 0.213246
v 0.844519 0.294167 0.213246
v 0.856719 0.291313 0.213246
v 0.869148 0.286667 0.213246
v 0.882008 0.279854 0.213246
v 0.895500 0.270500 0.213246
v 0.909825 0.258229 0.213246
v 0.925185 0.242667 0.213246
v 0.941781 0.223437 0.213246
v 0.959815 0.200167 0.213246
v 0.979487 0.172479 0.213246
v 1.001000 0.140000 0.213246
v 1.091000 -0.000000 0.213246
v 1.208000 -0.000000 0.213246
v 1.196847 0.015411 0.213246
v 1.186793 0.029298 0.213246
v 1.177693 0.041891 0.213246
v 1.169405 0.053420 0.213246
v 1.161782 0.064116 0.213246
v 1.154683 0.074209 0.213246
v 1.147962 0.083929 0.213246
v 1.141476 0.093507 0.213246
v 1.135080 0.103172 0.213246
v 1.128632 0.113156 0.213246
v 1.121987 0.123689 0.213246
v 1.115000 0.135000 0.213246
v 1.102270 0.155792 0.213246
v 1.089991 0.175667 0.213246
v 1.078031 0.194625 0.213246
v 1.066259 0.212667 0.213246
v 1.054543 0.229792 0.213246
v 1.042750 0.246000 0.213246
v 1.030749 0.261292 0.213246
v 1.018407 0.275667 0.213246
v 1.005594 0.289125 0.213246
v 0.992176 0.301667 0.213246
v 0.978022 0.313292 0.213246
v 0.963000 0.324000 0.213246
v 0.980578 0.331869 0.213246
v 0.996792 0.340954 0.213246
v 1.011609 0.351219 0.213246
v 1.025000 0.362630 0.213246
v 1.036932 0.375152 0.213246
v 1.047375 0.388750 0.213246
v 1.056297 0.403390 0.213246
v 1.063667 0.419037 0.213246
v 1.069453 0.435656 0.213246
v 1.073625 0.453213 0.213246
v 1.076151 0.471673 0.213246
v 1.077000 0.491000 0.213246
v 1.075228 0.519546 0.213246
v 1.069991 0.546120 0.213246
v 1.061406 0.570625 0.213246
v 1.049593 0.592963 0.213246
v 1.034668 0.613037 0.213246
v 1.016750 0.630750 0.213246
v 0.995957 0.646005 0.213246
v 0.972407 0.658704 0.213246
v 0.946219 0.668750 0.213246
v 0.917509 0.676046 0.213246
v 0.886397 0.680495 0.213246
v 0.853000 0.682000 0.213246
v 0.779000 0.598000 0.213246
v 0.842000 0.598000 0.213246
v 0.864572 0.597196 0.213246
v 0.884834 0.594815 0.213246
v 0.902858 0.590906 0.213246
v 0.918714 0.585518 0.213246
v 0.932472 0.578700 0.213246
v 0.944204 0.570499 0.213246
v 0.953980 0.560966 0.213246
v 0.961871 0.550147 0.213246
v 0.967948 0.538093 0.213246
v 0.972282 0.524851 0.213246
v 0.974942 0.510471 0.213246
v 0.976000 0.495000 0.213246
v 0.975579 0.480842 0.213246
v 0.973713 0.466986 0.213246
v 0.970250 0.453609 0.213246
v 0.965037 0.440889 0.213246
v 0.957921 0.429002 0.213246
v 0.948750 0.418125 0.213246
v 0.937370 0.408436 0.213246
v 0.923630 0.400111 0.213246
v 0.907375 0.393328 0.213246
v 0.888454 0.388264 0.213246
v 0.866713 0.385095 0.213246
v 0.842000 0.384000 0.213246
v 0.779000 0.384000 0.213246
v 1.570000 0.686000 0.213246
v 1.501000 0.686000 0.213246
v 1.208000 -0.000000 0.213246
v 1.308000 -0.000000 0.213246
v 1.394000 0.201000 0.213246
v 1.684000 0.201000 0.213246
v 1.775000 -0.000000 0.213246
v 1.875000 -0.000000 0.213246
v 1.534000 0.536000 0.213246
v 1.644000 0.289000 0.213246
v 1.432000 0.289000 0.213246
v 2.345000 0.341000 0.213246
v 2.343192 0.392001 0.213246
v 2.337871 0.439843 0.213246
v 2.329188 0.484281 0.213246
v 2.317297 0.525074 0.213246
v 2.302350 0.561978 0.213246
v 2.284500 0.594750 0.213246
v 2.263901 0.623147 0.213246
v 2.240704 0.646926 0.213246
v 2.215063 0.665844 0.213246
v 2.187130 0.679658 0.213246
v 2.157058 0.688124 0.213246
v 2.125000 0.691000 0.213246
v 2.092942 0.688124 0.213246
v 2.062871 0.679657 0.213246
v 2.034938 0.665844 0.213246
v 2.009296 0.646926 0.213246
v 1.986100 0.623147 0.213246
v 1.965500 0.594750 0.213246
v 1.947651 0.561978 0.213246
v 1.932704 0.525074 0.213246
v 1.920813 0.484281 0.213246
v 1.912130 0.439843 0.213246
v 1.906808 0.392001 0.213246
v 1.905000 0.341000 0.213246
v 1.906808 0.289999 0.213246
v 1.912130 0.242157 0.213246
v 1.920813 0.197719 0.213246
v 1.932704 0.156926 0.213246
v 1.947651 0.120022 0.213246
v 1.965500 0.087250 0.213246
v 1.986100 0.058853 0.213246
v 2.009296 0.035074 0.213246
v 2.034938 0.016156 0.213246
v 2.062871 0.002343 0.213246
v 2.092942 -0.006124 0.213246
v 2.125000 -0.009000 0.213246
v 2.157058 -0.006124 0.213246
v 2.187130 0.002343 0.213246
v 2.215063 0.016156 0.213246
v 2.240704 0.035074 0.213246
v 2.263901 0.058853 0.213246
v 2.284500 0.087250 0.213246
v 2.302350 0.120022 0.213246
v 2.317296 0.156926 0.213246
v 2.329187 0.197719 0.213246
v 2.337870 0.242157 0.213246
v 2.343192 0.289999 0.213246
v 2.247000 0.341000 0.213246
v 2.246051 0.302332 0.213246
v 2.243241 0.266407 0.213246
v 2.238625 0.233344 0.213246
v 2.232259 0.203259 0.213246
v 2.224199 0.176272 0.213246
v 2.214500 0.152500 0.213246
v 2.203218 0.132061 0.213246
v 2.190407 0.115074 0.213246
v 2.176125 0.101656 0.213246
v 2.160426 0.091926 0.213246
v 2.143365 0.086001 0.213246
v 2.125000 0.084000 0.213246
v 2.109678 0.086001 0.213246
v 2.101034 0.091926 0.213246
v 2.098047 0.101656 0.213246
v 2.099701 0.115074 0.213246
v 2.104976 0.132061 0.213246
v 2.112852 0.152500 0.213246
v 2.122312 0.176272 0.213246
v 2.132337 0.203259 0.213246
v 2.141907 0.233344 0.213246
v 2.150004 0.266407 0.213246
v 2.155610 0.302332 0.213246
v 2.157705 0.341000 0.213246
v 2.155610 0.379668 0.213246
v 2.150004 0.415593 0.213246
v 2.141907 0.448656 0.213246
v 2.132337 0.478741 0.213246
v 2.122312 0.505728 0.213246
v 2.112852 0.529500 0.213246
v 2.104975 0.549939 0.213246
v 2.099701 0.566926 0.213246
v 2.098047 0.580344 0.213246
v 2.101033 0.590074 0.213246
v 2.109678 0.595999 0.213246
v 2.125000 0.598000 0.213246
v 2.143366 0.595999 0.213246
v 2.160426 0.590074 0.213246
v 2.176125 0.580344 0.213246
v 2.190408 0.566926 0.213246
v 2.203218 0.549939 0.213246
v 2.214500 0.529500 0.213246
v 2.224200 0.505728 0.213246
v 2.232260 0.478741 0.213246
v 2.238626 0.448656 0.213246
v 2.243241 0.415593 0.213246
v 2.246052 0.379668 0.213246
v 2.675000 0.682000 0.213246
v 2.577000 0.682000 0.213246
v 2.577000 -0.000000 0.213246
v 2.675000 -0.000000 0.213246
v 3.192000 0.691000 0.213246
v 3.149446 0.660466 0.213246
v 3.110320 0.627977 0.213246
v 3.074672 0.593703 0.213246
v 3.042556 0.557815 0.213246
v 3.014023 0.520482 0.213246
v 2.989125 0.481875 0.213246
v 2.967915 0.442164 0.213246
v 2.950444 0.401519 0.213246
v 2.936765 0.360109 0.213246
v 2.926930 0.318107 0.213246
v 2.920991 0.275680 0.213246
v 2.919000 0.233000 0.213246
v 2.920827 0.197988 0.213246
v 2.926199 0.165074 0.213246
v 2.934953 0.134437 0.213246
v 2.946926 0.106259 0.213246
v 2.961954 0.080720 0.213246
v 2.979875 0.058000 0.213246
v 3.000525 0.038280 0.213246
v 3.023741 0.021741 0.213246
v 3.049359 0.008563 0.213246
v 3.077217 -0.001074 0.213246
v 3.107152 -0.006988 0.213246
v 3.139000 -0.009000 0.213246
v 3.165852 -0.007106 0.213246
v 3.191736 -0.001597 0.213246
v 3.216391 0.007266 0.213246
v 3.239556 0.019222 0.213246
v 3.260971 0.034012 0.213246
v 3.280375 0.051375 0.213246
v 3.297509 0.071050 0.213246
v 3.312111 0.092778 0.213246
v 3.323922 0.116297 0.213246
v 3.332681 0.141347 0.213246
v 3.338127 0.167668 0.213246
v 3.340000 0.195000 0.213246
v 3.338324 0.222653 0.213246
v 3.333421 0.248977 0.213246
v 3.325485 0.273766 0.213246
v 3.314704 0.296815 0.213246
v 3.301270 0.317920 0.213246
v 3.285375 0.336875 0.213246
v 3.267209 0.353476 0.213246
v 3.246963 0.367518 0.213246
v 3.224828 0.378797 0.213246
v 3.200995 0.387106 0.213246
v 3.175656 0.392242 0.213246
v 3.149000 0.394000 0.213246
v 3.137957 0.393716 0.213246
v 3.127324 0.392898 0.213246
v 3.117094 0.391594 0.213246
v 3.107259 0.389852 0.213246
v 3.097814 0.387721 0.213246
v 3.088750 0.385250 0.213246
v 3.080061 0.382487 0.213246
v 3.071741 0.379482 0.213246
v 3.063781 0.376281 0.213246
v 3.056176 0.372935 0.213246
v 3.048918 0.369492 0.213246
v 3.042000 0.366000 0.213246
v 3.050161 0.389806 0.213246
v 3.060537 0.413616 0.213246
v 3.072969 0.437266 0.213246
v 3.087296 0.460593 0.213246
v 3.103360 0.483433 0.213246
v 3.121000 0.505625 0.213246
v 3.140057 0.527004 0.213246
v 3.160371 0.547407 0.213246
v 3.181782 0.566672 0.213246
v 3.204130 0.584634 0.213246
v 3.227256 0.601131 0.213246
v 3.251000 0.616000 0.213246
v 3.021000 0.265000 0.213246
v 3.031356 0.271590 0.213246
v 3.041014 0.277389 0.213246
v 3.050109 0.282438 0.213246
v 3.058778 0.286778 0.213246
v 3.067155 0.290451 0.213246
v 3.075375 0.293500 0.213246
v 3.083575 0.295965 0.213246
v 3.091889 0.297889 0.213246
v 3.100453 0.299313 0.213246
v 3.109403 0.300278 0.213246
v 3.118873 0.300826 0.213246
v 3.129000 0.301000 0.213246
v 3.144878 0.300080 0.213246
v 3.159940 0.297389 0.213246
v 3.174078 0.293031 0.213246
v 3.187185 0.287111 0.213246
v 3.199153 0.279733 0.213246
v 3.209875 0.271000 0.213246
v 3.219242 0.261017 0.213246
v 3.227148 0.249889 0.213246
v 3.233484 0.237719 0.213246
v 3.238143 0.224611 0.213246
v 3.241018 0.210670 0.213246
v 3.242000 0.196000 0.213246
v 3.241097 0.179722 0.213246
v 3.238440 0.164440 0.213246
v 3.234109 0.150234 0.213246
v 3.228185 0.137185 0.213246
v 3.220747 0.125372 0.213246
v 3.211875 0.114875 0.213246
v 3.201649 0.105774 0.213246
v 3.190148 0.098148 0.213246
v 3.177453 0.092078 0.213246
v 3.163643 0.087644 0.213246
v 3.148799 0.084924 0.213246
v 3.133000 0.084000 0.213246
v 3.115385 0.085422 0.213246
v 3.098245 0.089630 0.213246
v 3.081891 0.096531 0.213246
v 3.066630 0.106037 0.213246
v 3.052771 0.118057 0.213246
v 3.040625 0.132500 0.213246
v 3.030499 0.149277 0.213246
v 3.022703 0.168296 0.213246
v 3.017547 0.189469 0.213246
v 3.015338 0.212704 0.213246
v 3.016386 0.237911 0.213246
vn -0.0000 -0.0000 -1.0000
vn -0.0000 -0.0000 1.0000
vn -0.0000 -0.0000 -0.0000
vn 0.5145 -0.8575 -0.0000
vn 0.6188 -0.7856 -0.0000
vn 0.9885 -0.1513 -0.0000
vn 0.9973 -0.0730 -0.0000
vn 0.5205 0.8539 -0.0000
vn 0.3587 0.9335 -0.0000
vn -0.5202 -0.8541 -0.0000
vn -0.3932 -0.9195 -0.0000
vn 0.6098 -0.7926 -0.0000
vn 0.6872 -0.7265 -0.0000
vn 0.5259 -0.8506 -0.0000
vn 0.5001 -0.8660 -0.0000
vn 0.7279 -0.6857 -0.0000
vn 0.6890 -0.7247 -0.0000
vn -0.3587 0.9335 -0.0000
vn -0.5205 0.8539 -0.0000
vn -0.9957 0.0927 -0.0000
vn -1.0000 -0.0028 -0.0000
vn 0.0225 0.9997 -0.0000
vn -0.0000 1.0000 -0.0000
vn 0.9627 -0.2707 -0.0000
vn 0.9806 -0.1962 -0.0000
vn 0.5297 -0.8482 -0.0000
vn 0.7650 -0.6441 -0.0000
vn -0.9941 0.1082 -0.0000
vn -0.9850 0.1727 -0.0000
vn 0.3993 -0.9168 -0.0000
vn 0.0934 0.9956 -0.0000
vn -0.8181 0.5751 -0.0000
vn -0.8620 0.5070 -0.0000
vn 0.6569 0.7540 -0.0000
vn -0.2610 -0.9653 -0.0000
vn 0.4492 -0.8935 -0.0000
vn 0.9697 0.2445 -0.0000
vn 0.9310 0.3650 -0.0000
vn -0.9885 -0.1513 -0.0000
vn -0.9717 -0.2361 -0.0000
vn -0.6569 0.7540 -0.0000
vn 0.1942 0.9810 -0.0000
vn 0.4086 -0.9127 -0.0000
vn 0.5369 -0.8437 -0.0000
vn 0.8007 -0.5990 -0.0000
vn -0.7647 0.6444 -0.0000
vn 0.2739 -0.9618 -0.0000
vn -0.6819 -0.7315 -0.0000
vn -0.7740 -0.6332 -0.0000
vn 0.3028 0.9531 -0.0000
vn 0.9717 -0.2361 -0.0000
vn -0.1287 -0.9917 -0.0000
vn 0.6079 0.7940 -0.0000
vn 0.5805 0.8143 -0.0000
vn 0.8354 -0.5496 -0.0000
vn -0.9691 0.2468 -0.0000
vn 0.4173 0.9088 -0.0000
vn -0.9012 0.4334 -0.0000
vn 0.7647 0.6444 -0.0000
vn 0.6591 0.7520 -0.0000
vn 0.9945 -0.1049 -0.0000
vn 0.9858 -0.1679 -0.0000
vn -0.8456 0.5339 -0.0000
vn 0.1396 -0.9902 -0.0000
vn -0.0000 -1.0000 -0.0000
vn -0.0160 -0.9999 -0.0000
vn -0.8531 -0.5217 -0.0000
vn 0.5344 0.8453 -0.0000
vn 0.9454 -0.3258 -0.0000
vn 0.0037 -1.0000 -0.0000
vn 0.8691 -0.4946 -0.0000
vn -0.9432 0.3324 -0.0000
vn -0.0747 -0.9972 -0.0000
vn -0.9168 -0.3993 -0.0000
vn 0.6490 0.7608 -0.0000
vn -0.9350 0.3546 -0.0000
vn -0.7742 0.6329 -0.0000
vn 0.7549 0.6558 -0.0000
vn 0.9333 -0.3590 -0.0000
vn 0.8456 0.5339 -0.0000
vn 0.7038 0.7104 -0.0000
vn 0.9925 0.1220 -0.0000
vn -0.0178 -0.9998 -0.0000
vn 0.9015 -0.4327 -0.0000
vn -0.9447 -0.3280 -0.0000
vn 0.3573 -0.9340 -0.0000
vn 0.0107 -0.9999 -0.0000
vn 1.0000 -0.0000 -0.0000
vn 0.9996 0.0266 -0.0000
vn 0.9321 -0.3622 -0.0000
vn -0.2196 -0.9756 -0.0000
vn -0.1728 -0.9850 -0.0000
vn -0.9631 -0.2691 -0.0000
vn 0.8457 0.5336 -0.0000
vn -0.9626 0.2711 -0.0000
vn 0.9447 -0.3280 -0.0000
vn -0.9022 0.4313 -0.0000
vn -0.2895 -0.9572 -0.0000
vn -0.9943 -0.1068 -0.0000
vn 0.0201 0.9998 -0.0000
vn -0.0512 0.9987 -0.0000
vn 0.5653 -0.8249 -0.0000
vn -0.0762 -0.9971 -0.0000
vn -0.4301 -0.9028 -0.0000
vn -0.4100 -0.9121 -0.0000
vn -0.9909 -0.1347 -0.0000
vn 0.1325 0.9912 -0.0000
vn 0.9311 -0.3647 -0.0000
vn 0.7793 -0.6267 -0.0000
vn -0.1645 -0.9864 -0.0000
vn -0.1016 0.9948 -0.0000
vn -0.9040 -0.4275 -0.0000
vn -0.9040 0.4275 -0.0000
vn -1.0000 -0.0000 -0.0000
vn 0.7417 0.6707 -0.0000
vn 1.0000 -0.0039 -0.0000
vn -0.2673 -0.9636 -0.0000
vn -0.1505 0.9886 -0.0000
vn 0.9040 -0.4275 -0.0000
vn 0.9040 0.4275 -0.0000
vn 0.9861 0.1661 -0.0000
vn -0.8391 0.5440 -0.0000
vn -1.0000 -0.0057 -0.0000
vn 0.9164 0.4002 -0.0000
vn 0.2645 0.9644 -0.0000
vn 0.9962 -0.0875 -0.0000
vn 0.9560 -0.2934 -0.0000
vn -0.3837 -0.9234 -0.0000
vn -0.1973 0.9803 -0.0000
vn -0.6088 -0.7933 -0.0000
vn -0.9759 -0.2183 -0.0000
vn 0.9446 -0.3282 -0.0000
vn -0.5099 -0.8602 -0.0000
vn -0.2416 0.9704 -0.0000
vn -0.7443 0.6679 -0.0000
vn -0.9935 0.1135 -0.0000
vn 0.9776 0.2103 -0.0000
vn -0.5199 -0.8542 -0.0000
vn -0.6376 -0.7703 -0.0000
vn -0.7443 -0.6679 -0.0000
vn 0.9460 -0.3243 -0.0000
vn 0.9776 -0.2103 -0.0000
vn -0.6110 -0.7917 -0.0000
vn 0.9907 -0.1358 -0.0000
vn -0.2831 0.9591 -0.0000
vn -0.8456 -0.5339 -0.0000
vn 0.9649 0.2627 -0.0000
vn 0.9446 0.3282 -0.0000
vn 0.9511 0.3088 -0.0000
vn -0.7557 -0.6549 -0.0000
vn -0.8391 -0.5440 -0.0000
vn 0.7729 0.6345 -0.0000
vn -0.9727 0.2319 -0.0000
vn 0.3925 0.9197 -0.0000
vn 0.8456 -0.5339 -0.0000
vn -0.6817 -0.7316 -0.0000
vn -0.8533 -0.5215 -0.0000
vn -0.3215 0.9469 -0.0000
vn -0.6088 0.7933 -0.0000
vn -0.9447 0.3280 -0.0000
vn 0.8934 0.4493 -0.0000
vn -0.9243 -0.3817 -0.0000
vn -0.3565 0.9343 -0.0000
vn 0.7978 0.6030 -0.0000
vn 0.9962 0.0875 -0.0000
vn 0.9447 0.3280 -0.0000
vn -0.7348 -0.6783 -0.0000
vn 0.9637 -0.2669 -0.0000
vn -0.3879 0.9217 -0.0000
vn -0.4301 0.9028 -0.0000
vn -0.9427 -0.3335 -0.0000
vn 0.9918 0.1279 -0.0000
vn 0.9311 0.3647 -0.0000
vn -0.9690 -0.2470 -0.0000
vn -0.9022 -0.4313 -0.0000
vn 0.8171 0.5766 -0.0000
vn -0.9355 0.3532 -0.0000
vn 0.5131 0.8583 -0.0000
vn 0.9560 0.2934 -0.0000
vn -0.4157 0.9095 -0.0000
vn -0.2196 0.9756 -0.0000
vn -0.8804 0.4742 -0.0000
vn 0.9243 -0.3817 -0.0000
vn 0.9333 0.3590 -0.0000
vn -0.9135 -0.4068 -0.0000
vn -0.4397 0.8982 -0.0000
vn -0.9432 -0.3324 -0.0000
vn 0.8315 0.5556 -0.0000
vn 0.3573 0.9340 -0.0000
vn 0.5653 0.8249 -0.0000
vn -0.8030 -0.5960 -0.0000
vn 0.8132 0.5820 -0.0000
vn -0.9921 -0.1253 -0.0000
vn -0.4506 0.8927 -0.0000
vn -0.7647 -0.6444 -0.0000
vn -0.9717 0.2361 -0.0000
vn 0.9207 -0.3902 -0.0000
vn 0.8417 0.5400 -0.0000
vn -0.8070 0.5906 -0.0000
vn 1.0000 0.0090 -0.0000
vn 0.6237 0.7817 -0.0000
vn 0.7647 -0.6444 -0.0000
vn 0.9717 0.2361 -0.0000
vn -0.9998 -0.0193 -0.0000
vn 0.0107 0.9999 -0.0000
vn 0.9194 -0.3934 -0.0000
vn -0.8930 -0.4501 -0.0000
vn -0.9830 0.1835 -0.0000
vn 0.9454 0.3258 -0.0000
vn -0.9110 -0.4124 -0.0000
vn -0.9967 0.0817 -0.0000
vn -0.9691 -0.2468 -0.0000
vn -0.8246 -0.5658 -0.0000
vn 0.7125 0.7017 -0.0000
vn 0.7220 0.6919 -0.0000
vn -0.9885 0.1513 -0.0000
vn -0.7161 0.6980 -0.0000
vn 0.9960 -0.0898 -0.0000
vn -0.6569 -0.7540 -0.0000
vn -0.9813 0.1924 -0.0000
vn 0.8067 0.5910 -0.0000
vn 0.8483 0.5296 -0.0000
vn 0.9885 0.1513 -0.0000
vn 0.5938 0.8046 -0.0000
vn 0.6569 -0.7540 -0.0000
vn 0.8518 0.5239 -0.0000
vn 0.9830 -0.1836 -0.0000
vn -0.5205 -0.8539 -0.0000
vn 0.9627 0.2707 -0.0000
vn -0.8375 -0.5465 -0.0000
vn 0.8635 -0.5043 -0.0000
vn -0.9489 0.3156 -0.0000
vn 0.1357 -0.9908 -0.0000
vn 0.0826 -0.9966 -0.0000
vn -0.9850 -0.1727 -0.0000
vn -0.6103 0.7922 -0.0000
vn -0.8942 0.4477 -0.0000
vn 0.5205 -0.8539 -0.0000
vn 0.8518 0.5238 -0.0000
vn -0.8254 -0.5645 -0.0000
vn 0.0375 -0.9993 -0.0000
vn -0.3587 -0.9335 -0.0000
vn 0.9806 0.1962 -0.0000
vn -0.8412 -0.5408 -0.0000
vn -0.9941 -0.1082 -0.0000
vn 0.9599 -0.2804 -0.0000
vn -0.0204 -0.9998 -0.0000
vn 0.4602 0.8878 -0.0000
vn -0.8139 0.5810 -0.0000
vn 0.3587 -0.9335 -0.0000
vn -0.9973 0.0730 -0.0000
vn -0.4932 0.8699 -0.0000
vn -0.1810 -0.9835 -0.0000
vn 0.8765 0.4813 -0.0000
vn 0.8429 0.5381 -0.0000
vn -0.3694 0.9293 -0.0000
vn 0.9258 -0.3780 -0.0000
vn -0.1171 -0.9931 -0.0000
vn 0.9973 0.0730 -0.0000
vn -0.7088 0.7054 -0.0000
vn 0.1810 -0.9835 -0.0000
vn 0.8370 0.5472 -0.0000
vn -0.2356 -0.9718 -0.0000
vn 0.9945 0.1043 -0.0000
vn 0.3146 0.9492 -0.0000
vn -0.9987 -0.0513 -0.0000
vn 0.8310 0.5563 -0.0000
vn 0.8806 -0.4739 -0.0000
vn 0.7936 -0.6084 -0.0000
vn -0.5851 0.8110 -0.0000
vn 0.1948 -0.9808 -0.0000
vn 0.8253 0.5647 -0.0000
vn -0.2435 0.9699 -0.0000
vn -0.4529 0.8916 -0.0000
vn 0.2568 -0.9665 -0.0000
vn 0.8202 0.5720 -0.0000
vn -0.3538 -0.9353 -0.0000
vn 0.1600 0.9871 -0.0000
vn -0.5830 0.8125 -0.0000
vn -0.6113 0.7914 -0.0000
vn 0.8161 0.5778 -0.0000
vn -0.1195 0.9928 -0.0000
vn 0.8247 -0.5655 -0.0000
vn -0.3225 0.9466 -0.0000
vn 0.7860 0.6183 -0.0000
vn -0.6664 0.7456 -0.0000
vn 0.0111 0.9999 -0.0000
vn -0.2017 0.9794 -0.0000
vn 0.3180 -0.9481 -0.0000
vn -0.9973 -0.0730 -0.0000
vn 0.8112 0.5847 -0.0000
vn -0.7196 0.6944 -0.0000
vn 0.3748 -0.9271 -0.0000
vn 0.8103 0.5861 -0.0000
vn 0.7596 -0.6504 -0.0000
vn -0.4692 -0.8831 -0.0000
vn 0.9945 -0.1043 -0.0000
vn -0.7397 -0.6729 -0.0000
vn -0.0944 0.9955 -0.0000
vn 0.5560 -0.8312 -0.0000
vn 0.5307 -0.8475 -0.0000
vn -0.9987 0.0513 -0.0000
vn 0.8101 0.5864 -0.0000
vn -0.0221 0.9998 -0.0000
vn 0.4248 -0.9053 -0.0000
vn -0.9196 0.3928 -0.0000
vn 0.6039 -0.7971 -0.0000
vn 0.8101 0.5863 -0.0000
vn 0.7119 -0.7023 -0.0000
vn -0.5794 -0.8150 -0.0000
vn -0.7704 0.6375 -0.0000
vn -0.1810 0.9835 -0.0000
vn -0.6371 -0.7708 -0.0000
vn 0.1810 0.9835 -0.0000
vn 0.4666 -0.8845 -0.0000
vn 0.6479 -0.7617 -0.0000
vn 0.9138 0.4063 -0.0000
vt 0.048851 0.000000
vt 0.045977 0.000000
vt 0.043103 0.000000
vt 0.063218 0.000000
vt 0.051724 0.000000
vt 0.054598 0.000000
vt 0.060345 0.000000
vt 0.057471 0.000000
vt 0.341954 0.000000
vt 0.339080 0.000000
vt 0.336207 0.000000
vt 0.359195 0.000000
vt 0.356322 0.000000
vt 0.068966 0.000000
vt 0.066092 0.000000
vt 0.258621 0.000000
vt 0.255747 0.000000
vt 0.252874 0.000000
vt 0.250000 0.000000
vt 0.247126 0.000000
vt 0.244253 0.000000
vt 0.241379 0.000000
vt 0.238506 0.000000
vt 0.235632 0.000000
vt 0.261494 0.000000
vt 0.232759 0.000000
vt 0.333333 0.000000
vt 0.264368 0.000000
vt 0.267241 0.000000
vt 0.270115 0.000000
vt 0.229885 0.000000
vt 0.272988 0.000000
vt 0.275862 0.000000
vt 0.278736 0.000000
vt 0.227011 0.000000
vt 0.281609 0.000000
vt 0.284483 0.000000
vt 0.287356 0.000000
vt 0.224138 0.000000
vt 0.290230 0.000000
vt 0.364943 0.000000
vt 0.362069 0.000000
vt 0.293103 0.000000
vt 0.221264 0.000000
vt 0.295977 0.000000
vt 0.298851 0.000000
vt 0.218391 0.000000
vt 0.301724 0.000000
vt 0.215517 0.000000
vt 0.304598 0.000000
vt 0.307471 0.000000
vt 0.212644 0.000000
vt 0.310345 0.000000
vt 0.209770 0.000000
vt 0.313218 0.000000
vt 0.206897 0.000000
vt 0.316092 0.000000
vt 0.318966 0.000000
vt 0.204023 0.000000
vt 0.321839 0.000000
vt 0.324713 0.000000
vt 0.201149 0.000000
vt 0.327586 0.000000
vt 0.330460 0.000000
vt 0.074713 0.000000
vt 0.198276 0.000000
vt 0.195402 0.000000
vt 0.192529 0.000000
vt 0.189655 0.000000
vt 0.186782 0.000000
vt 0.183908 0.000000
vt 0.181034 0.000000
vt 0.077586 0.000000
vt 0.080460 0.000000
vt 0.178161 0.000000
vt 0.071839 0.000000
vt 0.083333 0.000000
vt 0.086207 0.000000
vt 0.089080 0.000000
vt 0.175287 0.000000
vt 0.347701 0.000000
vt 0.350575 0.000000
vt 0.091954 0.000000
vt 0.094828 0.000000
vt 0.172414 0.000000
vt 0.097701 0.000000
vt 0.169540 0.000000
vt 0.100575 0.000000
vt 0.166667 0.000000
vt 0.103448 0.000000
vt 0.163793 0.000000
vt 0.106322 0.000000
vt 0.160920 0.000000
vt 0.344828 0.000000
vt 0.353448 0.000000
vt 0.109195 0.000000
vt 0.158046 0.000000
vt 0.155172 0.000000
vt 0.112069 0.000000
vt 0.152299 0.000000
vt 0.114943 0.000000
vt 0.149425 0.000000
vt 0.146552 0.000000
vt 0.143678 0.000000
vt 0.140805 0.000000
vt 0.137931 0.000000
vt 0.135057 0.000000
vt 0.132184 0.000000
vt 0.129310 0.000000
vt 0.126437 0.000000
vt 0.123563 0.000000
vt 0.120690 0.000000
vt 0.117816 0.000000
vt 0.405172 0.000000
vt 0.402299 0.000000
vt 0.399425 0.000000
vt 0.396552 0.000000
vt 0.408046 0.000000
vt 0.393678 0.000000
vt 0.410920 0.000000
vt 0.390805 0.000000
vt 0.413793 0.000000
vt 0.416667 0.000000
vt 0.387931 0.000000
vt 0.419540 0.000000
vt 0.609195 0.000000
vt 0.385057 0.000000
vt 0.606322 0.000000
vt 0.612069 0.000000
vt 0.603448 0.000000
vt 0.614943 0.000000
vt 0.422414 0.000000
vt 0.382184 0.000000
vt 0.600575 0.000000
vt 0.617816 0.000000
vt 0.597701 0.000000
vt 0.620690 0.000000
vt 0.594828 0.000000
vt 0.623563 0.000000
vt 0.425287 0.000000
vt 0.379310 0.000000
vt 0.591954 0.000000
vt 0.626437 0.000000
vt 0.589080 0.000000
vt 0.629310 0.000000
vt 0.428161 0.000000
vt 0.376437 0.000000
vt 0.586207 0.000000
vt 0.632184 0.000000
vt 0.431034 0.000000
vt 0.373563 0.000000
vt 0.583333 0.000000
vt 0.635057 0.000000
vt 0.580460 0.000000
vt 0.637931 0.000000
vt 0.433908 0.000000
vt 0.370690 0.000000
vt 0.577586 0.000000
vt 0.640805 0.000000
vt 0.436782 0.000000
vt 0.367816 0.000000
vt 0.574713 0.000000
vt 0.505747 0.000000
vt 0.439655 0.000000
vt 0.571839 0.000000
vt 0.508621 0.000000
vt 0.502874 0.000000
vt 0.568965 0.000000
vt 0.511494 0.000000
vt 0.442529 0.000000
vt 0.500000 0.000000
vt 0.566092 0.000000
vt 0.514368 0.000000
vt 0.445402 0.000000
vt 0.497126 0.000000
vt 0.517241 0.000000
vt 0.563218 0.000000
vt 0.520115 0.000000
vt 0.560345 0.000000
vt 0.448276 0.000000
vt 0.494253 0.000000
vt 0.522988 0.000000
vt 0.557471 0.000000
vt 0.451149 0.000000
vt 0.491379 0.000000
vt 0.525862 0.000000
vt 0.554598 0.000000
vt 0.528736 0.000000
vt 0.551724 0.000000
vt 0.454023 0.000000
vt 0.488506 0.000000
vt 0.531609 0.000000
vt 0.548851 0.000000
vt 0.534483 0.000000
vt 0.545977 0.000000
vt 0.537356 0.000000
vt 0.543103 0.000000
vt 0.456897 0.000000
vt 0.485632 0.000000
vt 0.540230 0.000000
vt 0.459770 0.000000
vt 0.482759 0.000000
vt 0.462644 0.000000
vt 0.479885 0.000000
vt 0.465517 0.000000
vt 0.477012 0.000000
vt 0.468391 0.000000
vt 0.474138 0.000000
vt 0.471264 0.000000
vt 0.649425 0.000000
vt 0.646552 0.000000
vt 0.643678 0.000000
vt 0.652299 0.000000
vt 0.658046 0.000000
vt 0.655172 0.000000
vt 0.862069 0.000000
vt 0.660920 0.000000
vt 0.663793 0.000000
vt 0.859195 0.000000
vt 0.856322 0.000000
vt 0.666667 0.000000
vt 0.853448 0.000000
vt 0.850575 0.000000
vt 0.669540 0.000000
vt 0.847701 0.000000
vt 0.844828 0.000000
vt 0.672414 0.000000
vt 0.841954 0.000000
vt 0.839080 0.000000
vt 0.675287 0.000000
vt 0.836207 0.000000
vt 0.678161 0.000000
vt 0.833333 0.000000
vt 0.830460 0.000000
vt 0.681035 0.000000
vt 0.795977 0.000000
vt 0.793103 0.000000
vt 0.790230 0.000000
vt 0.798851 0.000000
vt 0.801724 0.000000
vt 0.787356 0.000000
vt 0.804598 0.000000
vt 0.807471 0.000000
vt 0.827586 0.000000
vt 0.810345 0.000000
vt 0.784483 0.000000
vt 0.813218 0.000000
vt 0.816092 0.000000
vt 0.818965 0.000000
vt 0.781609 0.000000
vt 0.821839 0.000000
vt 0.824713 0.000000
vt 0.778736 0.000000
vt 0.683908 0.000000
vt 0.775862 0.000000
vt 0.772988 0.000000
vt 0.686782 0.000000
vt 0.890805 0.000000
vt 0.893678 0.000000
vt 0.896552 0.000000
vt 0.899425 0.000000
vt 0.770115 0.000000
vt 0.902299 0.000000
vt 0.905172 0.000000
vt 0.887931 0.000000
vt 0.885057 0.000000
vt 0.908046 0.000000
vt 0.767241 0.000000
vt 0.882184 0.000000
vt 0.879310 0.000000
vt 0.910920 0.000000
vt 0.876437 0.000000
vt 0.913793 0.000000
vt 0.873563 0.000000
vt 0.870690 0.000000
vt 0.916667 0.000000
vt 0.867816 0.000000
vt 0.689655 0.000000
vt 0.764368 0.000000
vt 0.864943 0.000000
vt 0.919540 0.000000
vt 1.000000 0.000000
vt 0.922414 0.000000
vt 0.925287 0.000000
vt 0.761494 0.000000
vt 0.997126 0.000000
vt 0.928161 0.000000
vt 0.692529 0.000000
vt 0.931035 0.000000
vt 0.758621 0.000000
vt 0.994253 0.000000
vt 0.933908 0.000000
vt 0.695402 0.000000
vt 0.936782 0.000000
vt 0.755747 0.000000
vt 0.991379 0.000000
vt 0.939655 0.000000
vt 0.988506 0.000000
vt 0.752874 0.000000
vt 0.698276 0.000000
vt 0.942529 0.000000
vt 0.945402 0.000000
vt 0.985632 0.000000
vt 0.750000 0.000000
vt 0.948276 0.000000
vt 0.701149 0.000000
vt 0.982759 0.000000
vt 0.951149 0.000000
vt 0.979885 0.000000
vt 0.747126 0.000000
vt 0.954023 0.000000
vt 0.704023 0.000000
vt 0.977012 0.000000
vt 0.956897 0.000000
vt 0.959770 0.000000
vt 0.974138 0.000000
vt 0.744253 0.000000
vt 0.962644 0.000000
vt 0.971264 0.000000
vt 0.965517 0.000000
vt 0.968391 0.000000
vt 0.706897 0.000000
vt 0.741379 0.000000
vt 0.709770 0.000000
vt 0.738506 0.000000
vt 0.712644 0.000000
vt 0.735632 0.000000
vt 0.715517 0.000000
vt 0.732759 0.000000
vt 0.718391 0.000000
vt 0.729885 0.000000
vt 0.721264 0.000000
vt 0.727012 0.000000
vt 0.724138 0.000000
vt 0.005747 0.000000
vt 0.002874 0.000000
vt 0.000000 0.000000
vt 0.031609 0.000000
vt 0.034483 0.000000
vt 0.028736 0.000000
vt 0.040230 0.000000
vt 0.037356 0.000000
vt 0.025862 0.000000
vt 0.022989 0.000000
vt 0.008621 0.000000
vt 0.011494 0.000000
vt 0.014368 0.000000
vt 0.020115 0.000000
vt 0.017241 0.000000
vt -0.067081 0.572071
vt 0.081783 0.595053
vt -0.067081 0.595053
vt 0.081783 0.572071
vt -0.005446 0.572071
vt -0.005446 0.416939
vt 0.020148 0.572071
vt 0.020148 0.416939
vt 0.243966 0.416939
vt 0.338508 0.596098
vt 0.320487 0.596098
vt 0.329106 0.556923
vt 0.418163 0.416939
vt 0.106332 0.416939
vt 0.131926 0.573115
vt 0.106332 0.595053
vt 0.151252 0.595053
vt 0.159974 0.594660
vt 0.168100 0.593498
vt 0.175598 0.591593
vt 0.182437 0.588969
vt 0.188588 0.585653
vt 0.194018 0.581669
vt 0.198698 0.577043
vt 0.148380 0.573115
vt 0.202595 0.571800
vt 0.131926 0.517226
vt 0.154274 0.572905
vt 0.159566 0.572284
vt 0.164273 0.571263
vt 0.205681 0.565966
vt 0.168414 0.569856
vt 0.172008 0.568075
vt 0.175072 0.565933
vt 0.207923 0.559566
vt 0.177625 0.563443
vt 0.179686 0.560618
vt 0.181273 0.557470
vt 0.209290 0.552626
vt 0.182404 0.554012
vt 0.302467 0.492415
vt 0.357834 0.492415
vt 0.183099 0.550256
vt 0.209753 0.545171
vt 0.183376 0.546215
vt 0.183266 0.542518
vt 0.209532 0.540123
vt 0.182778 0.538899
vt 0.208872 0.535302
vt 0.181874 0.535406
vt 0.180513 0.532084
vt 0.207782 0.530717
vt 0.178654 0.528979
vt 0.206271 0.526377
vt 0.176259 0.526138
vt 0.204346 0.522290
vt 0.173287 0.523608
vt 0.169698 0.521434
vt 0.202016 0.518467
vt 0.165453 0.519662
vt 0.160512 0.518340
vt 0.199289 0.514915
vt 0.154834 0.517512
vt 0.148380 0.517226
vt 0.131926 0.494244
vt 0.196173 0.511645
vt 0.192676 0.508665
vt 0.188806 0.505984
vt 0.184571 0.503611
vt 0.179980 0.501556
vt 0.183904 0.498760
vt 0.187600 0.495724
vt 0.142634 0.494244
vt 0.145858 0.494140
vt 0.191104 0.492448
vt 0.131926 0.416939
vt 0.149037 0.493765
vt 0.152224 0.493019
vt 0.155470 0.491806
vt 0.194451 0.488933
vt 0.292543 0.469433
vt 0.368280 0.469433
vt 0.158828 0.490027
vt 0.162352 0.487584
vt 0.197674 0.485179
vt 0.166093 0.484379
vt 0.200808 0.481185
vt 0.170105 0.480315
vt 0.203888 0.476952
vt 0.174439 0.475293
vt 0.206948 0.472480
vt 0.179149 0.469215
vt 0.210023 0.467768
vt 0.270082 0.416939
vt 0.392046 0.416939
vt 0.184286 0.461984
vt 0.213146 0.462817
vt 0.216353 0.457626
vt 0.189905 0.453502
vt 0.219678 0.452196
vt 0.213410 0.416939
vt 0.221502 0.449242
vt 0.223238 0.446491
vt 0.224922 0.443884
vt 0.226592 0.441359
vt 0.228286 0.438858
vt 0.230041 0.436320
vt 0.231895 0.433684
vt 0.233886 0.430890
vt 0.236051 0.427879
vt 0.238427 0.424590
vt 0.241053 0.420964
vt 0.475082 0.596653
vt 0.491826 0.596653
vt 0.483454 0.597404
vt 0.499680 0.594441
vt 0.467228 0.594441
vt 0.506975 0.590834
vt 0.459933 0.590834
vt 0.513672 0.585893
vt 0.453236 0.585893
vt 0.447178 0.579683
vt 0.519730 0.579683
vt 0.441798 0.572267
vt 0.483454 0.573115
vt 0.525110 0.572267
vt 0.479452 0.572593
vt 0.488250 0.572593
vt 0.477195 0.571045
vt 0.492706 0.571045
vt 0.437137 0.563708
vt 0.529772 0.563708
vt 0.476415 0.568504
vt 0.496806 0.568504
vt 0.476847 0.565000
vt 0.500536 0.565000
vt 0.478224 0.560563
vt 0.503882 0.560563
vt 0.433233 0.554070
vt 0.533675 0.554070
vt 0.480281 0.555226
vt 0.506828 0.555226
vt 0.482752 0.549017
vt 0.509361 0.549017
vt 0.430127 0.543416
vt 0.536781 0.543416
vt 0.485370 0.541969
vt 0.511466 0.541969
vt 0.427860 0.531810
vt 0.539048 0.531810
vt 0.487869 0.534112
vt 0.513129 0.534112
vt 0.489984 0.525477
vt 0.514334 0.525477
vt 0.426470 0.519316
vt 0.540438 0.519316
vt 0.491448 0.516095
vt 0.515068 0.516095
vt 0.425998 0.505996
vt 0.540910 0.505996
vt 0.491995 0.505996
vt 0.515316 0.505996
vt 0.426470 0.492676
vt 0.491448 0.495897
vt 0.515068 0.495897
vt 0.540438 0.492676
vt 0.489984 0.486515
vt 0.514334 0.486515
vt 0.427860 0.480182
vt 0.539048 0.480182
vt 0.487870 0.477880
vt 0.513129 0.477880
vt 0.430127 0.468576
vt 0.536781 0.468576
vt 0.511466 0.470023
vt 0.485370 0.470023
vt 0.509361 0.462975
vt 0.482752 0.462975
vt 0.433233 0.457922
vt 0.533675 0.457922
vt 0.506828 0.456766
vt 0.480281 0.456766
vt 0.437137 0.448284
vt 0.529771 0.448284
vt 0.503882 0.451429
vt 0.478224 0.451429
vt 0.500536 0.446992
vt 0.476847 0.446992
vt 0.441798 0.439725
vt 0.525110 0.439725
vt 0.496806 0.443488
vt 0.476415 0.443488
vt 0.492706 0.440947
vt 0.477195 0.440947
vt 0.488250 0.439399
vt 0.479452 0.439399
vt 0.447178 0.432309
vt 0.519730 0.432309
vt 0.483454 0.438877
vt 0.453236 0.426099
vt 0.513672 0.426099
vt 0.459933 0.421158
vt 0.506975 0.421158
vt 0.467228 0.417551
vt 0.499680 0.417551
vt 0.475082 0.415340
vt 0.491826 0.415339
vt 0.483454 0.414588
vt 0.601500 0.416939
vt 0.627095 0.595053
vt 0.601500 0.595053
vt 0.627095 0.416939
vt 0.751003 0.589429
vt 0.777526 0.577816
vt 0.762117 0.597404
vt 0.740785 0.580944
vt 0.731475 0.571993
vt 0.771324 0.573933
vt 0.765285 0.569625
vt 0.723087 0.562620
vt 0.759448 0.564934
vt 0.753856 0.559902
vt 0.715635 0.552870
vt 0.748551 0.554574
vt 0.743574 0.548990
vt 0.709133 0.542788
vt 0.738967 0.543195
vt 0.734772 0.537229
vt 0.703594 0.532416
vt 0.731030 0.531137
vt 0.699031 0.521801
vt 0.727783 0.524961
vt 0.725073 0.518743
vt 0.695459 0.510987
vt 0.748003 0.519764
vt 0.757848 0.519379
vt 0.750887 0.519838
vt 0.745226 0.519550
vt 0.742554 0.519209
vt 0.764466 0.518037
vt 0.739986 0.518754
vt 0.737519 0.518198
vt 0.722942 0.512525
vt 0.735152 0.517553
vt 0.770690 0.515867
vt 0.732882 0.516831
vt 0.730709 0.516046
vt 0.728631 0.515210
vt 0.776471 0.512922
vt 0.726644 0.514336
vt 0.724749 0.513437
vt 0.781759 0.509254
vt 0.692890 0.500017
vt 0.786503 0.504919
vt 0.790654 0.499968
vt 0.691339 0.488937
vt 0.738208 0.495109
vt 0.740545 0.495361
vt 0.743019 0.495504
vt 0.745663 0.495549
vt 0.794163 0.494456
vt 0.749810 0.495309
vt 0.753744 0.494606
vt 0.735971 0.494737
vt 0.733800 0.494235
vt 0.757436 0.493468
vt 0.796978 0.488437
vt 0.731658 0.493591
vt 0.729512 0.492795
vt 0.760859 0.491922
vt 0.727324 0.491835
vt 0.763985 0.489995
vt 0.725060 0.490702
vt 0.722685 0.489383
vt 0.766785 0.487714
vt 0.720162 0.487869
vt 0.690819 0.477790
vt 0.799051 0.481963
vt 0.717458 0.486148
vt 0.769232 0.485107
vt 0.716253 0.479073
vt 0.771296 0.482201
vt 0.772951 0.479023
vt 0.800331 0.475088
vt 0.715979 0.472490
vt 0.774168 0.475599
vt 0.691296 0.468646
vt 0.774919 0.471958
vt 0.800769 0.467866
vt 0.716556 0.466421
vt 0.775175 0.468127
vt 0.692699 0.460050
vt 0.774939 0.463876
vt 0.800280 0.460728
vt 0.717902 0.460892
vt 0.774245 0.459885
vt 0.719939 0.455925
vt 0.798858 0.453854
vt 0.694985 0.452049
vt 0.773114 0.456175
vt 0.771567 0.452767
vt 0.722583 0.451543
vt 0.796570 0.447311
vt 0.769624 0.449682
vt 0.698112 0.444690
vt 0.725755 0.447771
vt 0.767307 0.446940
vt 0.729374 0.444632
vt 0.793486 0.441169
vt 0.764637 0.444563
vt 0.702037 0.438020
vt 0.733360 0.442149
vt 0.761633 0.442572
vt 0.758318 0.440986
vt 0.737631 0.440347
vt 0.789672 0.435495
vt 0.754711 0.439828
vt 0.742108 0.439248
vt 0.750834 0.439118
vt 0.746708 0.438877
vt 0.706717 0.432086
vt 0.785197 0.430356
vt 0.712110 0.426936
vt 0.780129 0.425822
vt 0.718173 0.422617
vt 0.774537 0.421959
vt 0.724864 0.419175
vt 0.768487 0.418836
vt 0.732140 0.416658
vt 0.762048 0.416522
vt 0.739958 0.415114
vt 0.755288 0.415083
vt 0.748275 0.414588
vt 0.812783 0.487192
vt 0.913854 0.597404
vt 0.902885 0.597404
vt 0.887737 0.549088
vt 0.888259 0.549088
vt 0.913854 0.498422
vt 0.846995 0.498422
vt 0.888259 0.498422
vt 0.932919 0.498422
vt 0.932919 0.475440
vt 0.812783 0.475440
vt 0.888259 0.475440
vt 0.888259 0.416939
vt 0.913854 0.475440
vt 0.913854 0.416939
s 1
f 18/1/1 17/2/1 16/3/1
f 18/1/1 16/3/1 23/4/1
f 19/5/2 18/1/2 23/4/3
f 20/6/1 19/5/1 22/7/1
f 22/7/2 19/5/2 23/4/3
f 20/6/1 22/7/1 21/8/1
f 120/9/1 119/10/1 118/11/1
f 120/9/1 118/11/1 126/12/1
f 126/12/1 118/11/1 125/13/1
f 25/14/1 24/15/1 91/16/1
f 91/16/1 24/15/1 90/17/1
f 91/16/1 90/17/1 89/18/1
f 91/16/1 89/18/1 88/19/1
f 91/16/1 88/19/1 87/20/1
f 91/16/1 87/20/1 86/21/1
f 91/16/1 86/21/1 85/22/1
f 91/16/1 85/22/1 84/23/1
f 91/16/1 84/23/1 83/24/1
f 91/16/1 83/24/1 92/25/1
f 92/25/1 83/24/1 82/26/1
f 25/14/1 91/16/1 117/27/1
f 93/28/1 92/25/1 82/26/1
f 94/29/1 93/28/1 82/26/1
f 95/30/1 94/29/1 82/26/1
f 95/30/1 82/26/1 81/31/1
f 96/32/1 95/30/1 81/31/1
f 97/33/1 96/32/1 81/31/1
f 98/34/1 97/33/1 81/31/1
f 98/34/1 81/31/1 80/35/1
f 99/36/1 98/34/1 80/35/1
f 100/37/1 99/36/1 80/35/1
f 101/38/1 100/37/1 80/35/1
f 101/38/1 80/35/1 79/39/1
f 102/40/1 101/38/1 79/39/1
f 120/9/1 126/12/1 128/41/1
f 127/42/1 126/12/1 125/13/1
f 103/43/1 102/40/1 79/39/1
f 103/43/1 79/39/1 78/44/1
f 104/45/1 103/43/1 78/44/1
f 105/46/1 104/45/1 78/44/1
f 105/46/1 78/44/1 77/47/1
f 106/48/1 105/46/1 77/47/1
f 106/48/1 77/47/1 76/49/1
f 107/50/1 106/48/1 76/49/1
f 108/51/1 107/50/1 76/49/1
f 108/51/1 76/49/1 75/52/1
f 109/53/1 108/51/1 75/52/1
f 109/53/1 75/52/1 74/54/1
f 110/55/1 109/53/1 74/54/1
f 110/55/1 74/54/1 73/56/1
f 111/57/1 110/55/1 73/56/1
f 112/58/1 111/57/1 73/56/1
f 112/58/1 73/56/1 72/59/1
f 113/60/1 112/58/1 72/59/1
f 114/61/1 113/60/1 72/59/1
f 114/61/1 72/59/1 71/62/1
f 115/63/1 114/61/1 71/62/1
f 116/64/1 115/63/1 71/62/1
f 25/14/1 117/27/1 27/65/1
f 27/65/1 117/27/1 116/64/1
f 27/65/1 116/64/1 71/62/1
f 27/65/1 71/62/1 70/66/1
f 27/65/1 70/66/1 69/67/1
f 27/65/1 69/67/1 68/68/1
f 27/65/1 68/68/1 67/69/1
f 27/65/1 67/69/1 66/70/1
f 27/65/1 66/70/1 65/71/1
f 27/65/1 65/71/1 64/72/1
f 27/65/1 64/72/1 28/73/1
f 28/73/1 64/72/1 29/74/1
f 29/74/1 64/72/1 63/75/1
f 25/14/1 27/65/1 26/76/1
f 30/77/1 29/74/1 63/75/1
f 31/78/1 30/77/1 63/75/1
f 32/79/1 31/78/1 63/75/1
f 32/79/1 63/75/1 62/80/1
f 120/9/1 128/41/1 122/81/1
f 122/81/1 128/41/1 127/42/1
f 122/81/1 127/42/1 123/82/1
f 123/82/1 127/42/1 125/13/1
f 33/83/1 32/79/1 62/80/1
f 34/84/1 33/83/1 62/80/1
f 34/84/1 62/80/1 61/85/1
f 35/86/1 34/84/1 61/85/1
f 35/86/1 61/85/1 60/87/1
f 36/88/1 35/86/1 60/87/1
f 36/88/1 60/87/1 59/89/1
f 37/90/1 36/88/1 59/89/1
f 37/90/1 59/89/1 58/91/1
f 38/92/1 37/90/1 58/91/1
f 38/92/1 58/91/1 57/93/1
f 120/9/1 122/81/1 121/94/1
f 124/95/1 123/82/1 125/13/1
f 39/96/1 38/92/1 57/93/1
f 39/96/1 57/93/1 56/97/1
f 39/96/1 56/97/1 55/98/1
f 40/99/1 39/96/1 55/98/1
f 40/99/1 55/98/1 54/100/1
f 41/101/1 40/99/1 54/100/1
f 41/101/1 54/100/1 53/102/1
f 41/101/1 53/102/1 52/103/1
f 41/101/1 52/103/1 51/104/1
f 41/101/1 51/104/1 50/105/1
f 41/101/1 50/105/1 49/106/1
f 41/101/1 49/106/1 48/107/1
f 41/101/1 48/107/1 47/108/1
f 41/101/1 47/108/1 46/109/1
f 41/101/1 46/109/1 45/110/1
f 41/101/1 45/110/1 44/111/1
f 41/101/1 44/111/1 43/112/1
f 41/101/1 43/112/1 42/113/1
f 142/114/1 141/115/1 140/116/1
f 142/114/1 140/116/1 139/117/1
f 143/118/1 142/114/1 139/117/1
f 143/118/1 139/117/1 138/119/1
f 144/120/1 143/118/1 138/119/1
f 144/120/1 138/119/1 137/121/1
f 145/122/1 144/120/1 137/121/1
f 146/123/1 145/122/1 137/121/1
f 146/123/1 137/121/1 136/124/1
f 147/125/1 146/123/1 136/124/1
f 147/125/1 136/124/1 213/126/1
f 213/126/1 136/124/1 135/127/1
f 147/125/1 213/126/1 212/128/1
f 214/129/1 213/126/1 135/127/1
f 147/125/1 212/128/1 211/130/1
f 215/131/1 214/129/1 135/127/1
f 148/132/1 147/125/1 211/130/1
f 215/131/1 135/127/1 134/133/1
f 148/132/1 211/130/1 210/134/1
f 216/135/1 215/131/1 134/133/1
f 148/132/1 210/134/1 209/136/1
f 217/137/1 216/135/1 134/133/1
f 148/132/1 209/136/1 208/138/1
f 218/139/1 217/137/1 134/133/1
f 149/140/1 148/132/1 208/138/1
f 218/139/1 134/133/1 133/141/1
f 149/140/1 208/138/1 207/142/1
f 219/143/1 218/139/1 133/141/1
f 149/140/1 207/142/1 206/144/1
f 220/145/1 219/143/1 133/141/1
f 150/146/1 149/140/1 206/144/1
f 220/145/1 133/141/1 132/147/1
f 150/146/1 206/144/1 205/148/1
f 221/149/1 220/145/1 132/147/1
f 151/150/1 150/146/1 205/148/1
f 221/149/1 132/147/1 131/151/1
f 151/150/1 205/148/1 204/152/1
f 222/153/1 221/149/1 131/151/1
f 151/150/1 204/152/1 203/154/1
f 223/155/1 222/153/1 131/151/1
f 152/156/1 151/150/1 203/154/1
f 223/155/1 131/151/1 130/157/1
f 152/156/1 203/154/1 202/158/1
f 224/159/1 223/155/1 130/157/1
f 153/160/1 152/156/1 202/158/1
f 224/159/1 130/157/1 129/161/1
f 153/160/1 202/158/1 201/162/1
f 177/163/1 224/159/1 129/161/1
f 154/164/1 153/160/1 201/162/1
f 154/164/1 201/162/1 200/165/1
f 178/166/1 177/163/1 129/161/1
f 178/166/1 129/161/1 176/167/1
f 154/164/1 200/165/1 199/168/1
f 179/169/1 178/166/1 176/167/1
f 155/170/1 154/164/1 199/168/1
f 179/169/1 176/167/1 175/171/1
f 155/170/1 199/168/1 198/172/1
f 180/173/1 179/169/1 175/171/1
f 156/174/1 155/170/1 198/172/1
f 180/173/1 175/171/1 174/175/1
f 181/176/1 180/173/1 174/175/1
f 156/174/1 198/172/1 197/177/1
f 182/178/1 181/176/1 174/175/1
f 156/174/1 197/177/1 196/179/1
f 157/180/1 156/174/1 196/179/1
f 182/178/1 174/175/1 173/181/1
f 183/182/1 182/178/1 173/181/1
f 157/180/1 196/179/1 195/183/1
f 158/184/1 157/180/1 195/183/1
f 183/182/1 173/181/1 172/185/1
f 184/186/1 183/182/1 172/185/1
f 158/184/1 195/183/1 194/187/1
f 185/188/1 184/186/1 172/185/1
f 158/184/1 194/187/1 193/189/1
f 159/190/1 158/184/1 193/189/1
f 185/188/1 172/185/1 171/191/1
f 186/192/1 185/188/1 171/191/1
f 159/190/1 193/189/1 192/193/1
f 187/194/1 186/192/1 171/191/1
f 159/190/1 192/193/1 191/195/1
f 188/196/1 187/194/1 171/191/1
f 159/190/1 191/195/1 190/197/1
f 160/198/1 159/190/1 190/197/1
f 188/196/1 171/191/1 170/199/1
f 189/200/1 188/196/1 170/199/1
f 160/198/1 190/197/1 189/200/1
f 160/198/1 189/200/1 170/199/1
f 161/201/1 160/198/1 170/199/1
f 161/201/1 170/199/1 169/202/1
f 162/203/1 161/201/1 169/202/1
f 162/203/1 169/202/1 168/204/1
f 163/205/1 162/203/1 168/204/1
f 163/205/1 168/204/1 167/206/1
f 164/207/1 163/205/1 167/206/1
f 164/207/1 167/206/1 166/208/1
f 165/209/1 164/207/1 166/208/1
f 227/210/1 226/211/1 225/212/1
f 227/210/1 225/212/1 228/213/1
f 230/214/1 229/215/1 301/216/1
f 231/217/1 230/214/1 301/216/1
f 232/218/1 231/217/1 301/216/1
f 232/218/1 301/216/1 300/219/1
f 232/218/1 300/219/1 299/220/1
f 233/221/1 232/218/1 299/220/1
f 233/221/1 299/220/1 298/222/1
f 233/221/1 298/222/1 297/223/1
f 234/224/1 233/221/1 297/223/1
f 234/224/1 297/223/1 296/225/1
f 234/224/1 296/225/1 295/226/1
f 235/227/1 234/224/1 295/226/1
f 235/227/1 295/226/1 294/228/1
f 235/227/1 294/228/1 293/229/1
f 236/230/1 235/227/1 293/229/1
f 236/230/1 293/229/1 292/231/1
f 237/232/1 236/230/1 292/231/1
f 237/232/1 292/231/1 291/233/1
f 237/232/1 291/233/1 290/234/1
f 238/235/1 237/232/1 290/234/1
f 278/236/1 277/237/1 276/238/1
f 279/239/1 278/236/1 276/238/1
f 280/240/1 279/239/1 276/238/1
f 280/240/1 276/238/1 275/241/1
f 281/242/1 280/240/1 275/241/1
f 282/243/1 281/242/1 275/241/1
f 238/235/1 290/234/1 289/244/1
f 283/245/1 282/243/1 275/241/1
f 283/245/1 275/241/1 274/246/1
f 284/247/1 283/245/1 274/246/1
f 285/248/1 284/247/1 274/246/1
f 286/249/1 285/248/1 274/246/1
f 286/249/1 274/246/1 273/250/1
f 287/251/1 286/249/1 273/250/1
f 288/252/1 287/251/1 273/250/1
f 289/244/1 288/252/1 273/250/1
f 289/244/1 273/250/1 272/253/1
f 238/235/1 289/244/1 272/253/1
f 239/254/1 238/235/1 272/253/1
f 239/254/1 272/253/1 271/255/1
f 239/254/1 271/255/1 270/256/1
f 240/257/1 239/254/1 311/258/1
f 311/258/1 239/254/1 312/259/1
f 312/259/1 239/254/1 270/256/1
f 312/259/1 270/256/1 313/260/1
f 313/260/1 270/256/1 314/261/1
f 314/261/1 270/256/1 269/262/1
f 315/263/1 314/261/1 269/262/1
f 316/264/1 315/263/1 269/262/1
f 240/257/1 311/258/1 310/265/1
f 240/257/1 310/265/1 309/266/1
f 317/267/1 316/264/1 269/262/1
f 317/267/1 269/262/1 268/268/1
f 240/257/1 309/266/1 308/269/1
f 240/257/1 308/269/1 307/270/1
f 318/271/1 317/267/1 268/268/1
f 240/257/1 307/270/1 306/272/1
f 319/273/1 318/271/1 268/268/1
f 240/257/1 306/272/1 305/274/1
f 240/257/1 305/274/1 304/275/1
f 320/276/1 319/273/1 268/268/1
f 240/257/1 304/275/1 303/277/1
f 241/278/1 240/257/1 303/277/1
f 320/276/1 268/268/1 267/279/1
f 241/278/1 303/277/1 302/280/1
f 321/281/1 320/276/1 267/279/1
f 241/278/1 302/280/1 349/282/1
f 322/283/1 321/281/1 267/279/1
f 323/284/1 322/283/1 267/279/1
f 323/284/1 267/279/1 266/285/1
f 241/278/1 349/282/1 348/286/1
f 324/287/1 323/284/1 266/285/1
f 242/288/1 241/278/1 348/286/1
f 325/289/1 324/287/1 266/285/1
f 325/289/1 266/285/1 265/290/1
f 242/288/1 348/286/1 347/291/1
f 326/292/1 325/289/1 265/290/1
f 243/293/1 242/288/1 347/291/1
f 327/294/1 326/292/1 265/290/1
f 327/294/1 265/290/1 264/295/1
f 243/293/1 347/291/1 346/296/1
f 328/297/1 327/294/1 264/295/1
f 243/293/1 346/296/1 345/298/1
f 328/297/1 264/295/1 263/299/1
f 244/300/1 243/293/1 345/298/1
f 329/301/1 328/297/1 263/299/1
f 330/302/1 329/301/1 263/299/1
f 244/300/1 345/298/1 344/303/1
f 330/302/1 263/299/1 262/304/1
f 331/305/1 330/302/1 262/304/1
f 245/306/1 244/300/1 344/303/1
f 245/306/1 344/303/1 343/307/1
f 332/308/1 331/305/1 262/304/1
f 245/306/1 343/307/1 342/309/1
f 332/308/1 262/304/1 261/310/1
f 333/311/1 332/308/1 261/310/1
f 246/312/1 245/306/1 342/309/1
f 246/312/1 342/309/1 341/313/1
f 334/314/1 333/311/1 261/310/1
f 335/315/1 334/314/1 261/310/1
f 246/312/1 341/313/1 340/316/1
f 335/315/1 261/310/1 260/317/1
f 336/318/1 335/315/1 260/317/1
f 246/312/1 340/316/1 339/319/1
f 337/320/1 336/318/1 260/317/1
f 246/312/1 339/319/1 338/321/1
f 338/321/1 337/320/1 260/317/1
f 246/312/1 338/321/1 260/317/1
f 247/322/1 246/312/1 260/317/1
f 247/322/1 260/317/1 259/323/1
f 248/324/1 247/322/1 259/323/1
f 248/324/1 259/323/1 258/325/1
f 249/326/1 248/324/1 258/325/1
f 249/326/1 258/325/1 257/327/1
f 250/328/1 249/326/1 257/327/1
f 250/328/1 257/327/1 256/329/1
f 251/330/1 250/328/1 256/329/1
f 251/330/1 256/329/1 255/331/1
f 252/332/1 251/330/1 255/331/1
f 252/332/1 255/331/1 254/333/1
f 253/334/1 252/332/1 254/333/1
f 3/335/1 2/336/1 1/337/1
f 3/335/1 1/337/1 12/338/1
f 12/338/1 1/337/1 13/339/1
f 13/339/1 1/337/1 11/340/1
f 3/335/1 12/338/1 15/341/1
f 14/342/1 13/339/1 11/340/1
f 3/335/1 15/341/1 14/342/1
f 3/335/1 14/342/1 11/340/1
f 3/335/1 11/340/1 10/343/1
f 3/335/1 10/343/1 9/344/1
f 4/345/1 3/335/1 9/344/1
f 5/346/2 4/345/2 9/344/3
f 6/347/1 5/346/1 8/348/1
f 8/348/2 5/346/2 9/344/3
f 6/347/1 8/348/1 7/349/1
f 367/350/2 365/351/2 366/352/2
f 367/350/2 372/353/2 365/351/2
f 368/354/2 372/353/2 367/350/2
f 369/355/2 371/356/2 368/354/2
f 371/356/2 372/353/2 368/354/2
f 369/355/2 370/357/2 371/356/2
f 469/358/2 467/359/2 468/360/2
f 469/358/2 475/361/2 467/359/2
f 475/361/2 474/362/2 467/359/2
f 374/363/2 440/364/2 373/365/2
f 440/364/2 439/366/2 373/365/2
f 440/364/2 438/367/2 439/366/2
f 440/364/2 437/368/2 438/367/2
f 440/364/2 436/369/2 437/368/2
f 440/364/2 435/370/2 436/369/2
f 440/364/2 434/371/2 435/370/2
f 440/364/2 433/372/2 434/371/2
f 440/364/2 432/373/2 433/372/2
f 440/364/2 441/374/2 432/373/2
f 441/374/2 431/375/2 432/373/2
f 374/363/2 466/376/2 440/364/2
f 442/377/2 431/375/2 441/374/2
f 443/378/2 431/375/2 442/377/2
f 444/379/2 431/375/2 443/378/2
f 444/379/2 430/380/2 431/375/2
f 445/381/2 430/380/2 444/379/2
f 446/382/2 430/380/2 445/381/2
f 447/383/2 430/380/2 446/382/2
f 447/383/2 429/384/2 430/380/2
f 448/385/2 429/384/2 447/383/2
f 449/386/2 429/384/2 448/385/2
f 450/387/2 429/384/2 449/386/2
f 450/387/2 428/388/2 429/384/2
f 451/389/2 428/388/2 450/387/2
f 469/358/2 477/390/2 475/361/2
f 476/391/2 474/362/2 475/361/2
f 452/392/2 428/388/2 451/389/2
f 452/392/2 427/393/2 428/388/2
f 453/394/2 427/393/2 452/392/2
f 454/395/2 427/393/2 453/394/2
f 454/395/2 426/396/2 427/393/2
f 455/397/2 426/396/2 454/395/2
f 455/397/2 425/398/2 426/396/2
f 456/399/2 425/398/2 455/397/2
f 457/400/2 425/398/2 456/399/2
f 457/400/2 424/401/2 425/398/2
f 458/402/2 424/401/2 457/400/2
f 458/402/2 423/403/2 424/401/2
f 459/404/2 423/403/2 458/402/2
f 459/404/2 422/405/2 423/403/2
f 460/406/2 422/405/2 459/404/2
f 461/407/2 422/405/2 460/406/2
f 461/407/2 421/408/2 422/405/2
f 462/409/2 421/408/2 461/407/2
f 463/410/2 421/408/2 462/409/2
f 463/410/2 420/411/2 421/408/2
f 464/412/2 420/411/2 463/410/2
f 465/413/2 420/411/2 464/412/2
f 374/363/2 376/414/2 466/376/2
f 376/414/2 465/413/2 466/376/2
f 376/414/2 420/411/2 465/413/2
f 376/414/2 419/415/2 420/411/2
f 376/414/2 418/416/2 419/415/2
f 376/414/2 417/417/2 418/416/2
f 376/414/2 416/418/2 417/417/2
f 376/414/2 415/419/2 416/418/2
f 376/414/2 414/420/2 415/419/2
f 376/414/2 413/421/2 414/420/2
f 376/414/2 377/422/2 413/421/2
f 377/422/2 378/423/2 413/421/2
f 378/423/2 412/424/2 413/421/2
f 374/363/2 375/425/2 376/414/2
f 379/426/2 412/424/2 378/423/2
f 380/427/2 412/424/2 379/426/2
f 381/428/2 412/424/2 380/427/2
f 381/428/2 411/429/2 412/424/2
f 469/358/2 471/430/2 477/390/2
f 471/430/2 476/391/2 477/390/2
f 471/430/2 472/431/2 476/391/2
f 472/431/2 474/362/2 476/391/2
f 382/432/2 411/429/2 381/428/2
f 383/433/2 411/429/2 382/432/2
f 383/433/2 410/434/2 411/429/2
f 384/435/2 410/434/2 383/433/2
f 384/435/2 409/436/2 410/434/2
f 385/437/2 409/436/2 384/435/2
f 385/437/2 408/438/2 409/436/2
f 386/439/2 408/438/2 385/437/2
f 386/439/2 407/440/2 408/438/2
f 387/441/2 407/440/2 386/439/2
f 387/441/2 406/442/2 407/440/2
f 469/358/2 470/443/2 471/430/2
f 473/444/2 474/362/2 472/431/2
f 388/445/2 406/442/2 387/441/2
f 388/445/2 405/446/2 406/442/2
f 388/445/2 404/447/2 405/446/2
f 389/448/2 404/447/2 388/445/2
f 389/448/2 403/449/2 404/447/2
f 390/450/2 403/449/2 389/448/2
f 390/450/2 402/451/2 403/449/2
f 390/450/2 401/452/2 402/451/2
f 390/450/2 400/453/2 401/452/2
f 390/450/2 399/454/2 400/453/2
f 390/450/2 398/455/2 399/454/2
f 390/450/2 397/456/2 398/455/2
f 390/450/2 396/457/2 397/456/2
f 390/450/2 395/458/2 396/457/2
f 390/450/2 394/459/2 395/458/2
f 390/450/2 393/460/2 394/459/2
f 390/450/2 392/461/2 393/460/2
f 390/450/2 391/358/2 392/461/2
f 491/462/2 489/463/2 490/464/2
f 491/462/2 488/465/2 489/463/2
f 492/466/2 488/465/2 491/462/2
f 492/466/2 487/467/2 488/465/2
f 493/468/2 487/467/2 492/466/2
f 493/468/2 486/469/2 487/467/2
f 494/470/2 486/469/2 493/468/2
f 495/471/2 486/469/2 494/470/2
f 495/471/2 485/472/2 486/469/2
f 496/473/2 485/472/2 495/471/2
f 496/473/2 562/474/2 485/472/2
f 562/474/2 484/475/2 485/472/2
f 496/473/2 561/476/2 562/474/2
f 563/477/2 484/475/2 562/474/2
f 496/473/2 560/478/2 561/476/2
f 564/479/2 484/475/2 563/477/2
f 497/480/2 560/478/2 496/473/2
f 564/479/2 483/481/2 484/475/2
f 497/480/2 559/482/2 560/478/2
f 565/483/2 483/481/2 564/479/2
f 497/480/2 558/484/2 559/482/2
f 566/485/2 483/481/2 565/483/2
f 497/480/2 557/486/2 558/484/2
f 567/487/2 483/481/2 566/485/2
f 498/488/2 557/486/2 497/480/2
f 567/487/2 482/489/2 483/481/2
f 498/488/2 556/490/2 557/486/2
f 568/491/2 482/489/2 567/487/2
f 498/488/2 555/492/2 556/490/2
f 569/493/2 482/489/2 568/491/2
f 499/494/2 555/492/2 498/488/2
f 569/493/2 481/495/2 482/489/2
f 499/494/2 554/496/2 555/492/2
f 570/497/2 481/495/2 569/493/2
f 500/498/2 554/496/2 499/494/2
f 570/497/2 480/499/2 481/495/2
f 500/498/2 553/500/2 554/496/2
f 571/501/2 480/499/2 570/497/2
f 500/498/2 552/502/2 553/500/2
f 572/503/2 480/499/2 571/501/2
f 501/504/2 552/502/2 500/498/2
f 572/503/2 479/505/2 480/499/2
f 501/504/2 551/506/2 552/502/2
f 573/507/2 479/505/2 572/503/2
f 502/508/2 551/506/2 501/504/2
f 573/507/2 478/509/2 479/505/2
f 502/508/2 550/510/2 551/506/2
f 526/511/2 478/509/2 573/507/2
f 503/512/2 550/510/2 502/508/2
f 503/512/2 549/513/2 550/510/2
f 527/514/2 478/509/2 526/511/2
f 527/514/2 525/515/2 478/509/2
f 503/512/2 548/516/2 549/513/2
f 528/517/2 525/515/2 527/514/2
f 504/518/2 548/516/2 503/512/2
f 528/517/2 524/519/2 525/515/2
f 504/518/2 547/520/2 548/516/2
f 529/521/2 524/519/2 528/517/2
f 505/522/2 547/520/2 504/518/2
f 529/521/2 523/523/2 524/519/2
f 530/524/2 523/523/2 529/521/2
f 505/522/2 546/525/2 547/520/2
f 531/526/2 523/523/2 530/524/2
f 505/522/2 545/527/2 546/525/2
f 506/528/2 545/527/2 505/522/2
f 531/526/2 522/529/2 523/523/2
f 532/530/2 522/529/2 531/526/2
f 506/528/2 544/531/2 545/527/2
f 507/532/2 544/531/2 506/528/2
f 532/530/2 521/533/2 522/529/2
f 533/534/2 521/533/2 532/530/2
f 507/532/2 543/535/2 544/531/2
f 534/536/2 521/533/2 533/534/2
f 507/532/2 542/537/2 543/535/2
f 508/538/2 542/537/2 507/532/2
f 534/536/2 520/539/2 521/533/2
f 535/540/2 520/539/2 534/536/2
f 508/538/2 541/541/2 542/537/2
f 536/542/2 520/539/2 535/540/2
f 508/538/2 540/543/2 541/541/2
f 537/544/2 520/539/2 536/542/2
f 508/538/2 539/545/2 540/543/2
f 509/546/2 539/545/2 508/538/2
f 537/544/2 519/547/2 520/539/2
f 538/548/2 519/547/2 537/544/2
f 509/546/2 538/548/2 539/545/2
f 509/546/2 519/547/2 538/548/2
f 510/549/2 519/547/2 509/546/2
f 510/549/2 518/550/2 519/547/2
f 511/551/2 518/550/2 510/549/2
f 511/551/2 517/552/2 518/550/2
f 512/553/2 517/552/2 511/551/2
f 512/553/2 516/554/2 517/552/2
f 513/555/2 516/554/2 512/553/2
f 513/555/2 515/556/2 516/554/2
f 514/557/2 515/556/2 513/555/2
f 576/558/2 574/559/2 575/560/2
f 576/558/2 577/561/2 574/559/2
f 579/562/2 650/563/2 578/564/2
f 580/565/2 650/563/2 579/562/2
f 581/566/2 650/563/2 580/565/2
f 581/566/2 649/567/2 650/563/2
f 581/566/2 648/568/2 649/567/2
f 582/569/2 648/568/2 581/566/2
f 582/569/2 647/570/2 648/568/2
f 582/569/2 646/571/2 647/570/2
f 583/572/2 646/571/2 582/569/2
f 583/572/2 645/573/2 646/571/2
f 583/572/2 644/574/2 645/573/2
f 584/575/2 644/574/2 583/572/2
f 584/575/2 643/576/2 644/574/2
f 584/575/2 642/577/2 643/576/2
f 585/578/2 642/577/2 584/575/2
f 585/578/2 641/579/2 642/577/2
f 586/580/2 641/579/2 585/578/2
f 586/580/2 640/581/2 641/579/2
f 586/580/2 639/582/2 640/581/2
f 587/583/2 639/582/2 586/580/2
f 627/584/2 625/585/2 626/586/2
f 628/587/2 625/585/2 627/584/2
f 629/588/2 625/585/2 628/587/2
f 629/588/2 624/589/2 625/585/2
f 630/590/2 624/589/2 629/588/2
f 631/591/2 624/589/2 630/590/2
f 587/583/2 638/592/2 639/582/2
f 632/593/2 624/589/2 631/591/2
f 632/593/2 623/594/2 624/589/2
f 633/595/2 623/594/2 632/593/2
f 634/596/2 623/594/2 633/595/2
f 635/597/2 623/594/2 634/596/2
f 635/597/2 622/598/2 623/594/2
f 636/599/2 622/598/2 635/597/2
f 637/600/2 622/598/2 636/599/2
f 638/592/2 622/598/2 637/600/2
f 638/592/2 621/601/2 622/598/2
f 587/583/2 621/601/2 638/592/2
f 588/602/2 621/601/2 587/583/2
f 588/602/2 620/603/2 621/601/2
f 588/602/2 619/604/2 620/603/2
f 589/605/2 660/606/2 588/602/2
f 660/606/2 661/607/2 588/602/2
f 661/607/2 619/604/2 588/602/2
f 661/607/2 662/608/2 619/604/2
f 662/608/2 663/609/2 619/604/2
f 663/609/2 618/610/2 619/604/2
f 664/611/2 618/610/2 663/609/2
f 665/612/2 618/610/2 664/611/2
f 589/605/2 659/613/2 660/606/2
f 589/605/2 658/614/2 659/613/2
f 666/615/2 618/610/2 665/612/2
f 666/615/2 617/616/2 618/610/2
f 589/605/2 657/617/2 658/614/2
f 589/605/2 656/618/2 657/617/2
f 667/619/2 617/616/2 666/615/2
f 589/605/2 655/620/2 656/618/2
f 668/621/2 617/616/2 667/619/2
f 589/605/2 654/622/2 655/620/2
f 589/605/2 653/623/2 654/622/2
f 669/624/2 617/616/2 668/621/2
f 589/605/2 652/625/2 653/623/2
f 590/626/2 652/625/2 589/605/2
f 669/624/2 616/627/2 617/616/2
f 590/626/2 651/628/2 652/625/2
f 670/629/2 616/627/2 669/624/2
f 590/626/2 698/630/2 651/628/2
f 671/631/2 616/627/2 670/629/2
f 672/632/2 616/627/2 671/631/2
f 672/632/2 615/633/2 616/627/2
f 590/626/2 697/634/2 698/630/2
f 673/635/2 615/633/2 672/632/2
f 591/636/2 697/634/2 590/626/2
f 674/637/2 615/633/2 673/635/2
f 674/637/2 614/638/2 615/633/2
f 591/636/2 696/639/2 697/634/2
f 675/640/2 614/638/2 674/637/2
f 592/641/2 696/639/2 591/636/2
f 676/642/2 614/638/2 675/640/2
f 676/642/2 613/643/2 614/638/2
f 592/641/2 695/644/2 696/639/2
f 677/645/2 613/643/2 676/642/2
f 592/641/2 694/646/2 695/644/2
f 677/645/2 612/647/2 613/643/2
f 593/648/2 694/646/2 592/641/2
f 678/649/2 612/647/2 677/645/2
f 679/650/2 612/647/2 678/649/2
f 593/648/2 693/651/2 694/646/2
f 679/650/2 611/652/2 612/647/2
f 680/653/2 611/652/2 679/650/2
f 594/654/2 693/651/2 593/648/2
f 594/654/2 692/655/2 693/651/2
f 681/656/2 611/652/2 680/653/2
f 594/654/2 691/657/2 692/655/2
f 681/656/2 610/658/2 611/652/2
f 682/659/2 610/658/2 681/656/2
f 595/660/2 691/657/2 594/654/2
f 595/660/2 690/661/2 691/657/2
f 683/662/2 610/658/2 682/659/2
f 684/663/2 610/658/2 683/662/2
f 595/660/2 689/664/2 690/661/2
f 684/663/2 609/665/2 610/658/2
f 685/666/2 609/665/2 684/663/2
f 595/660/2 688/667/2 689/664/2
f 686/668/2 609/665/2 685/666/2
f 595/660/2 687/669/2 688/667/2
f 687/669/2 609/665/2 686/668/2
f 595/660/2 609/665/2 687/669/2
f 596/670/2 609/665/2 595/660/2
f 596/670/2 608/671/2 609/665/2
f 597/672/2 608/671/2 596/670/2
f 597/672/2 607/673/2 608/671/2
f 598/674/2 607/673/2 597/672/2
f 598/674/2 606/675/2 607/673/2
f 599/676/2 606/675/2 598/674/2
f 599/676/2 605/677/2 606/675/2
f 600/678/2 605/677/2 599/676/2
f 600/678/2 604/679/2 605/677/2
f 601/680/2 604/679/2 600/678/2
f 601/680/2 603/681/2 604/679/2
f 602/682/2 603/681/2 601/680/2
f 352/683/2 350/684/2 351/685/2
f 352/683/2 361/686/2 350/684/2
f 361/686/2 362/687/2 350/684/2
f 362/687/2 360/688/2 350/684/2
f 352/683/2 364/689/2 361/686/2
f 363/690/2 360/688/2 362/687/2
f 352/683/2 363/690/2 364/689/2
f 352/683/2 360/688/2 363/690/2
f 352/683/2 359/691/2 360/688/2
f 352/683/2 358/692/2 359/691/2
f 353/693/2 358/692/2 352/683/2
f 354/694/2 358/692/2 353/693/2
f 355/695/2 357/696/2 354/694/2
f 357/696/2 358/692/2 354/694/2
f 355/695/2 356/697/2 357/696/2
f 257/327/4 258/325/5 607/325/5 606/327/4
f 175/171/6 176/167/7 525/167/7 524/171/6
f 138/119/8 139/117/9 488/117/9 487/119/8
f 249/326/10 250/328/11 599/328/11 598/326/10
f 69/67/12 70/66/13 419/66/13 418/67/12
f 303/277/14 304/275/15 653/275/15 652/277/14
f 296/225/16 297/223/17 646/223/17 645/225/16
f 143/118/18 144/120/19 493/120/19 492/118/18
f 240/257/20 241/278/21 590/278/21 589/257/20
f 90/17/22 24/15/23 373/15/23 439/17/22
f 198/172/24 199/168/25 548/168/25 547/172/24
f 68/68/26 69/67/12 418/67/12 417/68/26
f 295/226/27 296/225/16 645/225/16 644/226/27
f 179/169/28 180/173/29 529/173/29 528/169/28
f 256/329/30 257/327/4 606/327/4 605/329/30
f 89/18/31 90/17/22 439/17/22 438/18/31
f 234/224/32 235/227/33 584/227/33 583/224/32
f 137/121/34 138/119/8 487/119/8 486/121/34
f 250/328/11 251/330/35 600/330/35 599/328/11
f 67/69/36 68/68/26 417/68/26 416/69/36
f 267/279/37 268/268/38 617/268/38 616/279/37
f 155/170/39 156/174/40 505/174/40 504/170/39
f 144/120/19 145/122/41 494/122/41 493/120/19
f 88/19/42 89/18/31 438/18/31 437/19/42
f 66/70/43 67/69/36 416/69/36 415/70/43
f 302/280/44 303/277/14 652/277/14 651/280/44
f 294/228/45 295/226/27 644/226/27 643/228/45
f 145/122/41 146/123/46 495/123/46 494/122/41
f 255/331/47 256/329/30 605/329/30 604/331/47
f 320/276/48 321/281/49 670/281/49 669/276/48
f 87/20/50 88/19/42 437/19/42 436/20/50
f 174/175/51 175/171/6 524/171/6 523/175/51
f 251/330/35 252/332/52 601/332/52 600/330/35
f 65/71/53 66/70/54 415/70/54 414/71/53
f 293/229/55 294/228/45 643/228/45 642/229/55
f 180/173/29 181/176/56 530/176/56 529/173/29
f 86/21/57 87/20/50 436/20/50 435/21/57
f 235/227/33 236/230/58 585/230/58 584/227/33
f 136/124/59 137/121/34 486/121/34 485/124/59
f 64/72/60 65/71/53 414/71/53 413/72/60
f 349/282/61 302/280/62 651/280/62 698/282/61
f 146/123/46 147/125/63 496/125/63 495/123/46
f 254/333/64 255/331/47 604/331/47 603/333/64
f 27/65/65 28/73/66 377/73/66 376/65/65
f 321/281/49 322/283/67 671/283/67 670/281/49
f 85/22/68 86/21/57 435/21/57 434/22/68
f 197/177/69 198/172/24 547/172/24 546/177/69
f 252/332/52 253/334/70 602/334/70 601/332/52
f 292/231/71 293/229/55 642/229/55 641/231/71
f 181/176/56 182/178/72 531/178/72 530/176/56
f 253/334/70 254/333/64 603/333/64 602/334/70
f 28/73/66 29/74/73 378/74/73 377/73/66
f 322/283/67 323/284/74 672/284/74 671/283/67
f 84/23/75 85/22/68 434/22/68 433/23/75
f 236/230/58 237/232/76 586/232/76 585/230/58
f 2/336/77 3/335/77 352/335/77 351/336/77
f 83/24/78 84/23/75 433/23/75 432/24/78
f 196/179/79 197/177/69 546/177/69 545/179/79
f 135/127/80 136/124/59 485/124/59 484/127/80
f 1/337/23 2/336/23 351/336/23 350/337/23
f 63/75/81 64/72/60 413/72/60 412/75/81
f 266/285/82 267/279/37 616/279/37 615/285/82
f 91/16/65 92/25/83 441/25/83 440/16/65
f 291/233/84 292/231/71 641/231/71 640/233/84
f 156/174/40 157/180/85 506/180/85 505/174/40
f 25/14/65 26/76/65 375/76/65 374/14/65
f 212/128/86 213/126/87 562/126/87 561/128/86
f 26/76/88 27/65/88 376/65/88 375/76/88
f 348/286/89 349/282/61 698/282/61 697/286/89
f 290/234/90 291/233/84 640/233/84 639/234/90
f 213/126/87 214/129/91 563/129/91 562/126/87
f 12/338/65 13/339/65 362/339/65 361/338/65
f 29/74/73 30/77/92 379/77/92 378/74/73
f 323/284/74 324/287/93 673/287/93 672/284/74
f 82/26/94 83/24/78 432/24/78 431/26/94
f 237/232/76 238/235/95 587/235/95 586/232/76
f 173/181/96 174/175/51 523/175/51 522/181/96
f 182/178/72 183/182/97 532/182/97 531/178/72
f 30/77/92 31/78/98 380/78/98 379/77/92
f 241/278/21 242/288/99 591/288/99 590/278/21
f 117/27/88 91/16/88 440/16/88 466/27/88
f 277/237/100 278/236/101 627/236/101 626/237/100
f 211/130/102 212/128/86 561/128/86 560/130/102
f 11/340/88 1/337/88 350/337/88 360/340/88
f 92/25/83 93/28/103 442/28/103 441/25/83
f 214/129/91 215/131/104 564/131/104 563/129/91
f 31/78/98 32/79/105 381/79/105 380/78/98
f 324/287/93 325/289/106 674/289/106 673/287/93
f 276/238/107 277/237/100 626/237/100 625/238/107
f 195/183/108 196/179/79 545/179/79 544/183/108
f 15/341/109 12/338/109 361/338/109 364/341/109
f 93/28/103 94/29/110 443/29/110 442/28/103
f 278/236/101 279/239/111 628/239/111 627/236/101
f 157/180/85 158/184/112 507/184/112 506/180/85
f 147/125/63 148/132/113 497/132/113 496/125/63
f 13/339/114 14/342/114 363/342/114 362/339/114
f 62/80/115 63/75/81 412/75/81 411/80/115
f 265/290/116 266/285/82 615/285/82 614/290/116
f 94/29/110 95/30/117 444/30/117 443/29/110
f 279/239/111 280/240/118 629/240/118 628/239/111
f 172/185/119 173/181/96 522/181/96 521/185/119
f 134/133/120 135/127/80 484/127/80 483/133/120
f 14/342/23 15/341/23 364/341/23 363/342/23
f 347/291/121 348/286/89 697/286/89 696/291/121
f 183/182/97 184/186/122 533/186/122 532/182/97
f 325/289/106 326/292/123 675/292/123 674/289/106
f 81/31/124 82/26/94 431/26/94 430/31/124
f 275/241/125 276/238/107 625/238/107 624/241/125
f 210/134/126 211/130/127 560/130/127 559/134/126
f 127/42/23 128/41/23 477/41/23 476/42/23
f 95/30/117 96/32/128 445/32/128 444/30/117
f 280/240/118 281/242/129 630/242/129 629/240/118
f 215/131/104 216/135/130 565/135/130 564/131/104
f 10/343/23 11/340/23 360/340/23 359/343/23
f 122/81/65 123/82/65 472/82/65 471/81/65
f 242/288/99 243/293/131 592/293/131 591/288/99
f 194/187/132 195/183/108 544/183/108 543/187/132
f 96/32/128 97/33/133 446/33/133 445/32/128
f 281/242/129 282/243/134 631/243/134 630/242/129
f 184/186/122 185/188/135 534/188/135 533/186/122
f 9/344/88 10/343/88 359/343/88 358/344/88
f 326/292/123 327/294/136 676/294/136 675/292/123
f 209/136/137 210/134/126 559/134/126 558/136/137
f 3/335/114 4/345/114 353/345/114 352/335/114
f 32/79/105 33/83/138 382/83/138 381/79/105
f 97/33/133 98/34/139 447/34/139 446/33/133
f 216/135/130 217/137/140 566/137/140 565/135/130
f 289/244/141 290/234/90 639/234/90 638/244/141
f 193/189/142 194/187/132 543/187/132 542/189/142
f 4/345/65 5/346/65 354/346/65 353/345/65
f 33/83/138 34/84/143 383/84/143 382/83/138
f 264/295/144 265/290/116 614/290/116 613/295/144
f 282/243/134 283/245/145 632/245/145 631/243/134
f 158/184/112 159/190/146 508/190/146 507/184/112
f 80/35/147 81/31/124 430/31/124 429/35/147
f 208/138/148 209/136/137 558/136/137 557/138/148
f 5/346/114 6/347/114 355/347/114 354/346/114
f 346/296/149 347/291/121 696/291/121 695/296/149
f 98/34/139 99/36/150 448/36/150 447/34/139
f 217/137/140 218/139/151 567/139/151 566/137/140
f 61/85/152 62/80/115 411/80/115 410/85/152
f 327/294/136 328/297/153 677/297/153 676/294/136
f 274/246/154 275/241/125 624/241/125 623/246/154
f 171/191/155 172/185/119 521/185/119 520/191/155
f 34/84/143 35/86/156 384/86/156 383/84/143
f 99/36/150 100/37/157 449/37/157 448/36/150
f 283/245/145 284/247/158 633/247/158 632/245/145
f 185/188/135 186/192/159 535/192/159 534/188/135
f 148/132/113 149/140/160 498/140/160 497/132/113
f 8/348/65 9/344/65 358/344/65 357/348/65
f 6/347/65 7/349/65 356/349/65 355/347/65
f 345/298/161 346/296/149 695/296/149 694/298/161
f 100/37/157 101/38/162 450/38/162 449/37/157
f 284/247/158 285/248/163 634/248/163 633/247/158
f 7/349/88 8/348/88 357/348/88 356/349/88
f 60/87/164 61/85/152 410/85/152 409/87/164
f 192/193/165 193/189/142 542/189/142 541/193/165
f 133/141/166 134/133/120 483/133/120 482/141/166
f 35/86/156 36/88/167 385/88/167 384/86/156
f 263/299/168 264/295/144 613/295/144 612/299/168
f 285/248/163 286/249/169 635/249/169 634/248/163
f 186/192/159 187/194/170 536/194/170 535/192/159
f 243/293/131 244/300/171 593/300/171 592/293/131
f 79/39/172 80/35/147 429/35/147 428/39/172
f 207/142/173 208/138/148 557/138/148 556/142/173
f 101/38/162 102/40/174 451/40/174 450/38/162
f 218/139/151 219/143/175 568/143/175 567/139/151
f 59/89/176 60/87/164 409/87/164 408/89/176
f 328/297/153 329/301/177 678/301/177 677/297/153
f 273/250/178 274/246/154 623/246/154 622/250/178
f 191/195/179 192/193/165 541/193/165 540/195/179
f 36/88/167 37/90/49 386/90/49 385/88/167
f 286/249/169 287/251/180 636/251/180 635/249/169
f 187/194/170 188/196/181 537/196/181 536/194/170
f 329/301/177 330/302/182 679/302/182 678/301/177
f 128/41/183 126/12/183 475/12/183 477/41/183
f 206/144/184 207/142/173 556/142/173 555/144/184
f 126/12/185 127/42/185 476/42/185 475/12/185
f 287/251/180 288/252/186 637/252/186 636/251/180
f 219/143/175 220/145/187 569/145/187 568/143/175
f 58/91/188 59/89/176 408/89/176 407/91/188
f 190/197/189 191/195/190 540/195/190 539/197/189
f 37/90/49 38/92/191 387/92/191 386/90/49
f 344/303/192 345/298/161 694/298/161 693/303/192
f 102/40/174 103/43/193 452/43/193 451/40/174
f 288/252/186 289/244/194 638/244/194 637/252/186
f 159/190/146 160/198/195 509/198/195 508/190/146
f 149/140/160 150/146/196 499/146/196 498/140/160
f 262/304/197 263/299/168 612/299/168 611/304/197
f 57/93/198 58/91/188 407/91/188 406/93/198
f 330/302/182 331/305/199 680/305/199 679/302/182
f 78/44/200 79/39/172 428/39/172 427/44/200
f 272/253/201 273/250/178 622/250/178 621/253/201
f 170/199/202 171/191/155 520/191/155 519/199/202
f 132/147/203 133/141/166 482/141/166 481/147/203
f 120/9/65 121/94/65 470/94/65 469/9/65
f 103/43/193 104/45/204 453/45/204 452/43/193
f 188/196/181 189/200/205 538/200/205 537/196/181
f 121/94/206 122/81/206 471/81/206 470/94/206
f 244/300/171 245/306/207 594/306/207 593/300/171
f 238/235/95 239/254/208 588/254/208 587/235/95
f 205/148/209 206/144/184 555/144/184 554/148/209
f 123/82/210 124/95/210 473/95/210 472/82/210
f 104/45/204 105/46/211 454/46/211 453/45/204
f 220/145/187 221/149/212 570/149/212 569/145/187
f 124/95/65 125/13/65 474/13/65 473/95/65
f 189/200/205 190/197/189 539/197/189 538/200/205
f 38/92/191 39/96/213 388/96/213 387/92/191
f 343/307/214 344/303/192 693/303/192 692/307/214
f 271/255/215 272/253/201 621/253/201 620/255/215
f 150/146/196 151/150/216 500/150/216 499/146/196
f 331/305/199 332/308/217 681/308/217 680/305/199
f 77/47/218 78/44/200 427/44/200 426/47/218
f 160/198/195 161/201/219 510/201/219 509/198/195
f 105/46/211 106/48/220 455/48/220 454/46/211
f 270/256/221 271/255/215 620/255/215 619/256/221
f 56/97/222 57/93/198 406/93/198 405/97/222
f 239/254/208 240/257/20 589/257/20 588/254/208
f 131/151/223 132/147/203 481/147/203 480/151/223
f 342/309/224 343/307/214 692/307/214 691/309/224
f 169/202/225 170/199/202 519/199/202 518/202/225
f 55/98/226 56/97/222 405/97/222 404/98/226
f 76/49/227 77/47/218 426/47/218 425/49/227
f 161/201/219 162/203/228 511/203/228 510/201/219
f 204/152/229 205/148/209 554/148/209 553/152/229
f 39/96/213 40/99/230 389/99/230 388/96/213
f 261/310/231 262/304/197 611/304/197 610/310/231
f 106/48/220 107/50/232 456/50/232 455/48/220
f 311/258/233 312/259/234 661/259/234 660/258/233
f 221/149/212 222/153/235 571/153/235 570/149/212
f 332/308/217 333/311/236 682/311/236 681/308/217
f 107/50/232 108/51/237 457/51/237 456/50/232
f 168/204/238 169/202/225 518/202/225 517/204/238
f 54/100/239 55/98/226 404/98/226 403/100/239
f 245/306/207 246/312/240 595/312/240 594/306/207
f 312/259/234 313/260/241 662/260/241 661/259/234
f 162/203/228 163/205/242 512/205/242 511/203/228
f 203/154/243 204/152/229 553/152/229 552/154/243
f 40/99/230 41/101/244 390/101/244 389/99/230
f 222/153/235 223/155/245 572/155/245 571/153/235
f 75/52/246 76/49/227 425/49/227 424/52/246
f 313/260/241 314/261/247 663/261/247 662/260/241
f 341/313/248 342/309/224 691/309/224 690/313/248
f 108/51/237 109/53/249 458/53/249 457/51/237
f 167/206/250 168/204/238 517/204/238 516/206/250
f 151/150/216 152/156/251 501/156/251 500/150/216
f 53/102/222 54/100/239 403/100/239 402/102/222
f 333/311/236 334/314/252 683/314/252 682/311/236
f 163/205/242 164/207/253 513/207/253 512/205/242
f 269/262/254 270/256/221 619/256/221 618/262/254
f 52/103/255 53/102/222 402/102/222 401/103/255
f 334/314/252 335/315/256 684/315/256 683/314/252
f 74/54/257 75/52/246 424/52/246 423/54/257
f 314/261/247 315/263/258 664/263/258 663/261/247
f 130/157/259 131/151/223 480/151/223 479/157/259
f 109/53/249 110/55/260 459/55/260 458/53/249
f 166/208/261 167/206/250 516/206/250 515/208/261
f 51/104/262 52/103/255 401/103/255 400/104/262
f 315/263/258 316/264/263 665/264/263 664/263/258
f 164/207/253 165/209/65 514/209/65 513/207/253
f 202/158/264 203/154/243 552/154/243 551/158/264
f 340/316/265 341/313/248 690/313/248 689/316/265
f 165/209/65 166/208/261 515/208/261 514/209/65
f 223/155/245 224/159/266 573/159/266 572/155/245
f 50/105/267 51/104/262 400/104/262 399/105/267
f 73/56/268 74/54/257 423/54/257 422/56/268
f 226/211/114 227/210/114 576/210/114 575/211/114
f 260/317/269 261/310/231 610/310/231 609/317/269
f 110/55/260 111/57/270 460/57/270 459/55/260
f 310/265/271 311/258/233 660/258/233 659/265/271
f 152/156/251 153/160/114 502/160/114 501/156/251
f 49/106/272 50/105/267 399/105/267 398/106/272
f 335/315/256 336/318/273 685/318/273 684/315/256
f 17/2/114 18/1/114 367/1/114 366/2/114
f 225/212/23 226/211/23 575/211/23 574/212/23
f 111/57/270 112/58/274 461/58/274 460/57/270
f 309/266/275 310/265/271 659/265/271 658/266/275
f 227/210/65 228/213/65 577/213/65 576/210/65
f 48/107/276 49/106/272 398/106/272 397/107/276
f 316/264/263 317/267/277 666/267/277 665/264/263
f 16/3/23 17/2/23 366/2/23 365/3/23
f 228/213/88 225/212/88 574/212/88 577/213/88
f 129/161/88 130/157/259 479/157/259 478/161/88
f 339/319/278 340/316/265 689/316/265 688/319/278
f 229/215/279 230/214/280 579/214/280 578/215/279
f 47/108/281 48/107/276 397/107/276 396/108/281
f 336/318/273 337/320/282 686/320/282 685/318/273
f 72/59/283 73/56/268 422/56/268 421/59/283
f 23/4/88 16/3/88 365/3/88 372/4/88
f 201/162/88 202/158/264 551/158/264 550/162/88
f 112/58/274 113/60/284 462/60/284 461/58/274
f 268/268/38 269/262/254 618/262/254 617/268/38
f 18/1/65 19/5/65 368/5/65 367/1/65
f 301/216/285 229/215/285 578/215/285 650/216/285
f 224/159/266 177/163/114 526/163/114 573/159/266
f 46/109/192 47/108/281 396/108/281 395/109/192
f 230/214/280 231/217/286 580/217/286 579/214/280
f 338/321/287 339/319/278 688/319/278 687/321/287
f 113/60/284 114/61/288 463/61/288 462/60/284
f 308/269/289 309/266/275 658/266/275 657/269/289
f 19/5/114 20/6/114 369/6/114 368/5/114
f 153/160/114 154/164/290 503/164/290 502/160/114
f 45/110/291 46/109/192 395/109/192 394/110/291
f 337/320/282 338/321/287 687/321/287 686/320/282
f 231/217/286 232/218/292 581/218/292 580/217/286
f 307/270/293 308/269/289 657/269/289 656/270/293
f 44/111/294 45/110/291 394/110/291 393/111/294
f 71/62/295 72/59/283 421/59/283 420/62/295
f 317/267/277 318/271/296 667/271/296 666/267/277
f 22/7/65 23/4/65 372/4/65 371/7/65
f 200/165/297 201/162/88 550/162/88 549/165/297
f 246/312/240 247/322/298 596/322/298 595/312/240
f 114/61/288 115/63/299 464/63/299 463/61/288
f 20/6/65 21/8/65 370/8/65 369/6/65
f 300/219/300 301/216/301 650/216/301 649/219/300
f 177/163/114 178/166/302 527/166/302 526/163/114
f 43/112/303 44/111/294 393/111/294 392/112/303
f 21/8/88 22/7/88 371/7/88 370/8/88
f 41/101/65 42/113/65 391/113/65 390/101/65
f 115/63/299 116/64/304 465/64/304 464/63/299
f 306/272/305 307/270/293 656/270/293 655/272/305
f 119/10/306 120/9/306 469/9/306 468/10/306
f 299/220/307 300/219/300 649/219/300 648/220/307
f 42/113/308 43/112/303 392/112/303 391/113/308
f 259/323/309 260/317/269 609/317/269 608/323/309
f 318/271/296 319/273/310 668/273/310 667/271/296
f 232/218/292 233/221/311 582/221/311 581/218/292
f 176/167/7 129/161/88 478/161/88 525/167/7
f 141/115/23 142/114/312 491/114/312 490/115/23
f 247/322/298 248/324/313 597/324/313 596/322/298
f 118/11/23 119/10/23 468/10/23 467/11/23
f 199/168/25 200/165/297 549/165/297 548/168/25
f 140/116/314 141/115/23 490/115/23 489/116/314
f 305/274/315 306/272/305 655/272/305 654/274/315
f 298/222/316 299/220/307 648/220/307 647/222/316
f 178/166/302 179/169/28 528/169/28 527/166/302
f 258/325/5 259/323/309 608/323/309 607/325/5
f 116/64/304 117/27/23 466/27/23 465/64/304
f 139/117/9 140/116/314 489/116/314 488/117/9
f 248/324/313 249/326/10 598/326/10 597/324/313
f 304/275/15 305/274/315 654/274/315 653/275/15
f 125/13/317 118/11/317 467/11/317 474/13/317
f 297/223/17 298/222/316 647/222/316 646/223/17
f 154/164/290 155/170/39 504/170/39 503/164/290
f 142/114/312 143/118/18 492/118/18 491/114/312
f 319/273/310 320/276/48 669/276/48 668/273/310
f 24/15/114 25/14/114 374/14/114 373/15/114
f 233/221/311 234/224/32 583/224/32 582/221/311
f 70/66/13 71/62/295 420/62/295 419/66/13
