# Blender 4.5.4 LTS
# www.blender.org
mtllib sun.mtl
o Sphere
v 0.000000 0.831470 -0.555570
v 0.000000 0.555570 -0.831470
v 0.000000 0.195090 -0.980785
v 0.000000 0.000000 -1.000000
v 0.000000 -0.195090 -0.980785
v 0.000000 -0.555570 -0.831470
v 0.038060 0.980785 -0.191342
v 0.074658 0.923880 -0.375330
v 0.108386 0.831470 -0.544895
v 0.137950 0.707107 -0.693520
v 0.162212 0.555570 -0.815493
v 0.180240 0.382683 -0.906127
v 0.191342 0.195090 -0.961940
v 0.195090 0.000000 -0.980785
v 0.191342 -0.195090 -0.961940
v 0.180240 -0.382683 -0.906127
v 0.162212 -0.555570 -0.815493
v 0.137950 -0.707107 -0.693520
v 0.108386 -0.831470 -0.544895
v 0.074658 -0.923880 -0.375330
v 0.038060 -0.980785 -0.191342
v 0.074658 0.980785 -0.180240
v 0.146447 0.923880 -0.353553
v 0.212608 0.831470 -0.513280
v 0.270598 0.707107 -0.653281
v 0.318190 0.555570 -0.768178
v 0.353553 0.382683 -0.853553
v 0.375330 0.195090 -0.906127
v 0.382683 0.000000 -0.923879
v 0.375330 -0.195090 -0.906127
v 0.353553 -0.382683 -0.853553
v 0.318190 -0.555570 -0.768178
v 0.270598 -0.707107 -0.653281
v 0.212608 -0.831470 -0.513280
v 0.146447 -0.923880 -0.353553
v 0.074658 -0.980785 -0.180240
v 0.108386 0.980785 -0.162212
v 0.212608 0.923880 -0.318190
v 0.308658 0.831470 -0.461940
v 0.392847 0.707107 -0.587938
v 0.461940 0.555570 -0.691342
v 0.513280 0.382683 -0.768178
v 0.544895 0.195090 -0.815493
v 0.555570 0.000000 -0.831469
v 0.544895 -0.195090 -0.815493
v 0.513280 -0.382683 -0.768178
v 0.461940 -0.555570 -0.691342
v 0.392847 -0.707107 -0.587938
v 0.308658 -0.831470 -0.461940
v 0.212608 -0.923880 -0.318190
v 0.108386 -0.980785 -0.162212
v 0.137950 0.980785 -0.137950
v 0.270598 0.923880 -0.270598
v 0.392847 0.831470 -0.392847
v 0.500000 0.707107 -0.500000
v 0.587938 0.555570 -0.587938
v 0.653281 0.382683 -0.653281
v 0.693520 0.195090 -0.693520
v 0.707107 0.000000 -0.707107
v 0.693520 -0.195090 -0.693520
v 0.653281 -0.382683 -0.653281
v 0.587938 -0.555570 -0.587938
v 0.500000 -0.707107 -0.500000
v 0.392847 -0.831470 -0.392847
v 0.270598 -0.923880 -0.270598
v 0.137950 -0.980785 -0.137950
v 0.162212 0.980785 -0.108386
v 0.318190 0.923880 -0.212608
v 0.461940 0.831470 -0.308658
v 0.587938 0.707107 -0.392847
v 0.691342 0.555570 -0.461940
v 0.768178 0.382683 -0.513280
v 0.815493 0.195090 -0.544895
v 0.831470 0.000000 -0.555570
v 0.815493 -0.195090 -0.544895
v 0.768178 -0.382683 -0.513280
v 0.691342 -0.555570 -0.461940
v 0.587938 -0.707107 -0.392847
v 0.461940 -0.831470 -0.308658
v 0.318190 -0.923880 -0.212608
v 0.162212 -0.980785 -0.108386
v 0.000000 1.000000 0.000000
v 0.180240 0.980785 -0.074658
v 0.353553 0.923880 -0.146447
v 0.513280 0.831470 -0.212607
v 0.653281 0.707107 -0.270598
v 0.768178 0.555570 -0.318190
v 0.853553 0.382683 -0.353553
v 0.906127 0.195090 -0.375330
v 0.923879 0.000000 -0.382683
v 0.906127 -0.195090 -0.375330
v 0.853553 -0.382683 -0.353553
v 0.768178 -0.555570 -0.318190
v 0.653281 -0.707107 -0.270598
v 0.513280 -0.831470 -0.212607
v 0.353553 -0.923880 -0.146447
v 0.180240 -0.980785 -0.074658
v 0.191342 0.980785 -0.038060
v 0.375330 0.923880 -0.074658
v 0.544895 0.831470 -0.108386
v 0.693520 0.707107 -0.137950
v 0.815493 0.555570 -0.162212
v 0.906127 0.382683 -0.180240
v 0.961940 0.195090 -0.191342
v 0.980785 0.000000 -0.195090
v 0.961940 -0.195090 -0.191342
v 0.906127 -0.382683 -0.180240
v 0.815493 -0.555570 -0.162212
v 0.693520 -0.707107 -0.137950
v 0.544895 -0.831470 -0.108386
v 0.375330 -0.923880 -0.074658
v 0.191342 -0.980785 -0.038060
v 0.195090 0.980785 0.000000
v 0.382683 0.923880 0.000000
v 0.555570 0.831470 0.000000
v 0.707107 0.707107 -0.000000
v 0.831469 0.555570 0.000000
v 0.923879 0.382683 -0.000000
v 0.980785 0.195090 0.000000
v 1.000000 0.000000 0.000000
v 0.980785 -0.195090 0.000000
v 0.923879 -0.382683 -0.000000
v 0.831469 -0.555570 0.000000
v 0.707107 -0.707107 -0.000000
v 0.555570 -0.831470 0.000000
v 0.382683 -0.923880 0.000000
v 0.195090 -0.980785 0.000000
v 0.191342 0.980785 0.038060
v 0.375330 0.923880 0.074658
v 0.544895 0.831470 0.108386
v 0.693520 0.707107 0.137950
v 0.815493 0.555570 0.162212
v 0.906127 0.382683 0.180240
v 0.961940 0.195090 0.191342
v 0.980785 0.000000 0.195090
v 0.961940 -0.195090 0.191342
v 0.906127 -0.382683 0.180240
v 0.815493 -0.555570 0.162212
v 0.693520 -0.707107 0.137950
v 0.544895 -0.831470 0.108386
v 0.375330 -0.923880 0.074658
v 0.191342 -0.980785 0.038060
v 0.180240 0.980785 0.074658
v 0.353553 0.923880 0.146447
v 0.513280 0.831470 0.212608
v 0.653281 0.707107 0.270598
v 0.768178 0.555570 0.318190
v 0.853553 0.382683 0.353553
v 0.906127 0.195090 0.375330
v 0.923879 0.000000 0.382683
v 0.906127 -0.195090 0.375330
v 0.853553 -0.382683 0.353553
v 0.768178 -0.555570 0.318190
v 0.653281 -0.707107 0.270598
v 0.513280 -0.831470 0.212608
v 0.353553 -0.923880 0.146447
v 0.180240 -0.980785 0.074658
v 0.162212 0.980785 0.108386
v 0.318190 0.923880 0.212608
v 0.461940 0.831470 0.308658
v 0.587938 0.707107 0.392847
v 0.691341 0.555570 0.461940
v 0.768178 0.382683 0.513280
v 0.815493 0.195090 0.544895
v 0.831469 0.000000 0.555570
v 0.815493 -0.195090 0.544895
v 0.768178 -0.382683 0.513280
v 0.691341 -0.555570 0.461940
v 0.587938 -0.707107 0.392847
v 0.461940 -0.831470 0.308658
v 0.318190 -0.923880 0.212608
v 0.162212 -0.980785 0.108386
v 0.137950 0.980785 0.137950
v 0.270598 0.923880 0.270598
v 0.392847 0.831470 0.392847
v 0.500000 0.707107 0.500000
v 0.587938 0.555570 0.587938
v 0.653281 0.382683 0.653281
v 0.693520 0.195090 0.693520
v 0.707106 0.000000 0.707107
v 0.693520 -0.195090 0.693520
v 0.653281 -0.382683 0.653281
v 0.587938 -0.555570 0.587938
v 0.500000 -0.707107 0.500000
v 0.392847 -0.831470 0.392847
v 0.270598 -0.923880 0.270598
v 0.137950 -0.980785 0.137950
v 0.108386 0.980785 0.162212
v 0.212607 0.923880 0.318190
v 0.308658 0.831470 0.461940
v 0.392847 0.707107 0.587938
v 0.461940 0.555570 0.691342
v 0.513280 0.382683 0.768178
v 0.544895 0.195090 0.815493
v 0.555570 0.000000 0.831469
v 0.544895 -0.195090 0.815493
v 0.513280 -0.382683 0.768178
v 0.461940 -0.555570 0.691342
v 0.392847 -0.707107 0.587938
v 0.308658 -0.831470 0.461940
v 0.212607 -0.923880 0.318190
v 0.108386 -0.980785 0.162212
v 0.074658 0.980785 0.180240
v 0.146447 0.923880 0.353553
v 0.212607 0.831470 0.513280
v 0.270598 0.707107 0.653281
v 0.318189 0.555570 0.768178
v 0.353553 0.382683 0.853553
v 0.375330 0.195090 0.906127
v 0.382683 0.000000 0.923879
v 0.375330 -0.195090 0.906127
v 0.353553 -0.382683 0.853553
v 0.318189 -0.555570 0.768178
v 0.270598 -0.707107 0.653281
v 0.212607 -0.831470 0.513280
v 0.146447 -0.923880 0.353553
v 0.074658 -0.980785 0.180240
v 0.038060 0.980785 0.191342
v 0.074658 0.923880 0.375330
v 0.108386 0.831470 0.544895
v 0.137950 0.707107 0.693520
v 0.162212 0.555570 0.815493
v 0.180240 0.382683 0.906127
v 0.191342 0.195090 0.961939
v 0.195090 0.000000 0.980785
v 0.191342 -0.195090 0.961939
v 0.180240 -0.382683 0.906127
v 0.162212 -0.555570 0.815493
v 0.137950 -0.707107 0.693520
v 0.108386 -0.831470 0.544895
v 0.074658 -0.923880 0.375330
v 0.038060 -0.980785 0.191342
v -0.000000 0.980785 0.195090
v -0.000000 0.923880 0.382683
v -0.000000 0.831470 0.555570
v -0.000000 0.707107 0.707107
v -0.000000 0.555570 0.831469
v 0.000000 0.382683 0.923879
v -0.000000 0.195090 0.980785
v -0.000000 0.000000 0.999999
v -0.000000 -0.195090 0.980785
v 0.000000 -0.382683 0.923879
v -0.000000 -0.555570 0.831469
v -0.000000 -0.707107 0.707107
v -0.000000 -0.831470 0.555570
v -0.000000 -0.923880 0.382683
v -0.000000 -0.980785 0.195090
v -0.038060 0.980785 0.191342
v -0.074658 0.923880 0.375330
v -0.108386 0.831470 0.544895
v -0.137950 0.707107 0.693520
v -0.162212 0.555570 0.815493
v -0.180240 0.382683 0.906127
v -0.191342 0.195090 0.961939
v -0.195091 0.000000 0.980785
v -0.191342 -0.195090 0.961939
v -0.180240 -0.382683 0.906127
v -0.162212 -0.555570 0.815493
v -0.137950 -0.707107 0.693520
v -0.108386 -0.831470 0.544895
v -0.074658 -0.923880 0.375330
v -0.038060 -0.980785 0.191342
v -0.074658 0.980785 0.180240
v -0.146447 0.923880 0.353553
v -0.212608 0.831470 0.513280
v -0.270598 0.707107 0.653281
v -0.318190 0.555570 0.768177
v -0.353553 0.382683 0.853553
v -0.375330 0.195090 0.906127
v -0.382683 0.000000 0.923879
v -0.375330 -0.195090 0.906127
v -0.353553 -0.382683 0.853553
v -0.318190 -0.555570 0.768177
v -0.270598 -0.707107 0.653281
v -0.212608 -0.831470 0.513280
v -0.146447 -0.923880 0.353553
v -0.074658 -0.980785 0.180240
v -0.108386 0.980785 0.162212
v -0.212608 0.923880 0.318190
v -0.308658 0.831470 0.461939
v -0.392847 0.707107 0.587938
v -0.461940 0.555570 0.691341
v -0.513280 0.382683 0.768178
v -0.544895 0.195090 0.815493
v -0.555570 0.000000 0.831469
v -0.544895 -0.195090 0.815493
v -0.513280 -0.382683 0.768178
v -0.461940 -0.555570 0.691341
v -0.392847 -0.707107 0.587938
v -0.308658 -0.831470 0.461939
v -0.212608 -0.923880 0.318190
v -0.108386 -0.980785 0.162212
v -0.137950 0.980785 0.137950
v -0.270598 0.923880 0.270598
v -0.392847 0.831470 0.392847
v -0.500000 0.707107 0.500000
v -0.587938 0.555570 0.587937
v -0.653281 0.382683 0.653281
v -0.693520 0.195090 0.693520
v -0.707106 0.000000 0.707106
v -0.693520 -0.195090 0.693520
v -0.653281 -0.382683 0.653281
v -0.587938 -0.555570 0.587937
v -0.500000 -0.707107 0.500000
v -0.392847 -0.831470 0.392847
v -0.270598 -0.923880 0.270598
v -0.137950 -0.980785 0.137950
v 0.000000 -1.000000 0.000000
v -0.162212 0.980785 0.108386
v -0.318190 0.923880 0.212607
v -0.461940 0.831470 0.308658
v -0.587938 0.707107 0.392847
v -0.691341 0.555570 0.461939
v -0.768177 0.382683 0.513280
v -0.815493 0.195090 0.544895
v -0.831469 0.000000 0.555569
v -0.815493 -0.195090 0.544895
v -0.768177 -0.382683 0.513280
v -0.691341 -0.555570 0.461939
v -0.587938 -0.707107 0.392847
v -0.461940 -0.831470 0.308658
v -0.318190 -0.923880 0.212607
v -0.162212 -0.980785 0.108386
v -0.180240 0.980785 0.074658
v -0.353553 0.923880 0.146447
v -0.513280 0.831470 0.212607
v -0.653281 0.707107 0.270598
v -0.768177 0.555570 0.318189
v -0.853553 0.382683 0.353553
v -0.906127 0.195090 0.375330
v -0.923879 0.000000 0.382683
v -0.906127 -0.195090 0.375330
v -0.853553 -0.382683 0.353553
v -0.768177 -0.555570 0.318189
v -0.653281 -0.707107 0.270598
v -0.513280 -0.831470 0.212607
v -0.353553 -0.923880 0.146447
v -0.180240 -0.980785 0.074658
v -0.191342 0.980785 0.038060
v -0.375330 0.923880 0.074658
v -0.544895 0.831470 0.108386
v -0.693520 0.707107 0.137950
v -0.815493 0.555570 0.162211
v -0.906127 0.382683 0.180240
v -0.961939 0.195090 0.191341
v -0.980784 0.000000 0.195090
v -0.961939 -0.195090 0.191341
v -0.906127 -0.382683 0.180240
v -0.815493 -0.555570 0.162211
v -0.693520 -0.707107 0.137950
v -0.544895 -0.831470 0.108386
v -0.375330 -0.923880 0.074658
v -0.191342 -0.980785 0.038060
v -0.195090 0.980785 -0.000000
v -0.382683 0.923880 -0.000000
v -0.555570 0.831470 -0.000000
v -0.707107 0.707107 -0.000000
v -0.831469 0.555570 -0.000000
v -0.923879 0.382683 -0.000000
v -0.980785 0.195090 -0.000000
v -0.999999 0.000000 -0.000000
v -0.980785 -0.195090 -0.000000
v -0.923879 -0.382683 -0.000000
v -0.831469 -0.555570 -0.000000
v -0.707107 -0.707107 -0.000000
v -0.555570 -0.831470 -0.000000
v -0.382683 -0.923880 -0.000000
v -0.195090 -0.980785 -0.000000
v -0.191342 0.980785 -0.038060
v -0.375330 0.923880 -0.074658
v -0.544895 0.831470 -0.108386
v -0.693520 0.707107 -0.137950
v -0.815493 0.555570 -0.162212
v -0.906127 0.382683 -0.180240
v -0.961939 0.195090 -0.191342
v -0.980784 0.000000 -0.195091
v -0.961939 -0.195090 -0.191342
v -0.906127 -0.382683 -0.180240
v -0.815493 -0.555570 -0.162212
v -0.693520 -0.707107 -0.137950
v -0.544895 -0.831470 -0.108386
v -0.375330 -0.923880 -0.074658
v -0.191342 -0.980785 -0.038060
v -0.180240 0.980785 -0.074658
v -0.353553 0.923880 -0.146447
v -0.513279 0.831470 -0.212607
v -0.653281 0.707107 -0.270598
v -0.768177 0.555570 -0.318190
v -0.853553 0.382683 -0.353553
v -0.906127 0.195090 -0.375330
v -0.923878 0.000000 -0.382683
v -0.906127 -0.195090 -0.375330
v -0.853553 -0.382683 -0.353553
v -0.768177 -0.555570 -0.318190
v -0.653281 -0.707107 -0.270598
v -0.513279 -0.831470 -0.212607
v -0.353553 -0.923880 -0.146447
v -0.180240 -0.980785 -0.074658
v -0.162212 0.980785 -0.108386
v -0.318189 0.923880 -0.212607
v -0.461939 0.831470 -0.308658
v -0.587938 0.707107 -0.392847
v -0.691341 0.555570 -0.461940
v -0.768177 0.382683 -0.513280
v -0.815493 0.195090 -0.544895
v -0.831468 0.000000 -0.555570
v -0.815493 -0.195090 -0.544895
v -0.768177 -0.382683 -0.513280
v -0.691341 -0.555570 -0.461940
v -0.587938 -0.707107 -0.392847
v -0.461939 -0.831470 -0.308658
v -0.318189 -0.923880 -0.212607
v -0.162212 -0.980785 -0.108386
v -0.137950 0.980785 -0.137950
v -0.270598 0.923880 -0.270598
v -0.392847 0.831470 -0.392847
v -0.500000 0.707107 -0.500000
v -0.587937 0.555570 -0.587938
v -0.653281 0.382683 -0.653281
v -0.693519 0.195090 -0.693520
v -0.707106 0.000000 -0.707106
v -0.693519 -0.195090 -0.693520
v -0.653281 -0.382683 -0.653281
v -0.587937 -0.555570 -0.587938
v -0.500000 -0.707107 -0.500000
v -0.392847 -0.831470 -0.392847
v -0.270598 -0.923880 -0.270598
v -0.137950 -0.980785 -0.137950
v -0.108386 0.980785 -0.162212
v -0.212607 0.923880 -0.318190
v -0.308658 0.831470 -0.461939
v -0.392847 0.707107 -0.587938
v -0.461939 0.555570 -0.691341
v -0.513280 0.382683 -0.768177
v -0.544895 0.195090 -0.815493
v -0.555569 0.000000 -0.831469
v -0.544895 -0.195090 -0.815493
v -0.513280 -0.382683 -0.768177
v -0.461939 -0.555570 -0.691341
v -0.392847 -0.707107 -0.587938
v -0.308658 -0.831470 -0.461939
v -0.212607 -0.923880 -0.318190
v -0.108386 -0.980785 -0.162212
v -0.074658 0.980785 -0.180240
v -0.146446 0.923880 -0.353553
v -0.212607 0.831470 -0.513279
v -0.270598 0.707107 -0.653281
v -0.318189 0.555570 -0.768177
v -0.353553 0.382683 -0.853553
v -0.375330 0.195090 -0.906127
v -0.382683 0.000000 -0.923879
v -0.375330 -0.195090 -0.906127
v -0.353553 -0.382683 -0.853553
v -0.318189 -0.555570 -0.768177
v -0.270598 -0.707107 -0.653281
v -0.212607 -0.831470 -0.513279
v -0.146446 -0.923880 -0.353553
v -0.074658 -0.980785 -0.180240
v -0.038060 0.980785 -0.191342
v -0.074658 0.923880 -0.375330
v -0.108386 0.831470 -0.544895
v -0.137950 0.707107 -0.693520
v -0.162211 0.555570 -0.815493
v -0.180240 0.382683 -0.906127
v -0.191341 0.195090 -0.961939
v -0.195090 0.000000 -0.980784
v -0.191341 -0.195090 -0.961939
v -0.180240 -0.382683 -0.906127
v -0.162211 -0.555570 -0.815493
v -0.137950 -0.707107 -0.693520
v -0.108386 -0.831470 -0.544895
v -0.074658 -0.923880 -0.375330
v -0.038060 -0.980785 -0.191342
v 0.000000 0.980785 -0.195090
v 0.000000 0.923880 -0.382683
v 0.000000 0.707107 -0.707107
v 0.000000 0.382683 -0.923879
v 0.000000 -0.382683 -0.923879
v 0.000000 -0.707107 -0.707107
v 0.000000 -0.831470 -0.555570
v 0.000000 -0.923880 -0.382683
v 0.000000 -0.980785 -0.195090
vn -0.0000 0.8286 -0.5598
vn -0.0000 0.5528 -0.8333
vn -0.0000 0.1939 -0.9810
vn -0.0000 -0.0000 -1.0000
vn -0.0000 -0.1939 -0.9810
vn -0.0000 -0.5528 -0.8333
vn 0.0392 0.9796 -0.1971
vn 0.0757 0.9217 -0.3804
vn 0.1092 0.8286 -0.5490
vn 0.1385 0.7041 -0.6965
vn 0.1626 0.5528 -0.8173
vn 0.1804 0.3805 -0.9070
vn 0.1914 0.1939 -0.9622
vn 0.1951 -0.0000 -0.9808
vn 0.1914 -0.1939 -0.9622
vn 0.1804 -0.3805 -0.9070
vn 0.1626 -0.5528 -0.8173
vn 0.1385 -0.7041 -0.6965
vn 0.1092 -0.8286 -0.5490
vn 0.0757 -0.9217 -0.3804
vn 0.0392 -0.9796 -0.1971
vn 0.0769 0.9796 -0.1857
vn 0.1484 0.9217 -0.3584
vn 0.2142 0.8286 -0.5172
vn 0.2718 0.7041 -0.6561
vn 0.3189 0.5528 -0.7699
vn 0.3539 0.3805 -0.8544
vn 0.3754 0.1939 -0.9063
vn 0.3827 -0.0000 -0.9239
vn 0.3754 -0.1939 -0.9063
vn 0.3539 -0.3805 -0.8544
vn 0.3189 -0.5528 -0.7699
vn 0.2718 -0.7041 -0.6561
vn 0.2142 -0.8286 -0.5172
vn 0.1484 -0.9217 -0.3584
vn 0.0769 -0.9796 -0.1857
vn 0.1117 0.9796 -0.1671
vn 0.2155 0.9217 -0.3225
vn 0.3110 0.8286 -0.4654
vn 0.3945 0.7041 -0.5905
vn 0.4630 0.5528 -0.6929
vn 0.5138 0.3805 -0.7689
vn 0.5450 0.1939 -0.8157
vn 0.5556 -0.0000 -0.8315
vn 0.5450 -0.1939 -0.8157
vn 0.5138 -0.3805 -0.7689
vn 0.4630 -0.5528 -0.6929
vn 0.3945 -0.7041 -0.5905
vn 0.3110 -0.8286 -0.4654
vn 0.2155 -0.9217 -0.3225
vn 0.1117 -0.9796 -0.1671
vn 0.1421 0.9796 -0.1421
vn 0.2743 0.9217 -0.2743
vn 0.3958 0.8286 -0.3958
vn 0.5021 0.7041 -0.5021
vn 0.5893 0.5528 -0.5893
vn 0.6539 0.3805 -0.6539
vn 0.6937 0.1939 -0.6937
vn 0.7071 -0.0000 -0.7071
vn 0.6937 -0.1939 -0.6937
vn 0.6539 -0.3805 -0.6539
vn 0.5893 -0.5528 -0.5893
vn 0.5021 -0.7041 -0.5021
vn 0.3958 -0.8286 -0.3958
vn 0.2743 -0.9217 -0.2743
vn 0.1421 -0.9796 -0.1421
vn 0.1671 0.9796 -0.1117
vn 0.3225 0.9217 -0.2155
vn 0.4654 0.8286 -0.3110
vn 0.5905 0.7041 -0.3945
vn 0.6929 0.5528 -0.4630
vn 0.7689 0.3805 -0.5138
vn 0.8157 0.1939 -0.5450
vn 0.8315 -0.0000 -0.5556
vn 0.8157 -0.1939 -0.5450
vn 0.7689 -0.3805 -0.5138
vn 0.6929 -0.5528 -0.4630
vn 0.5905 -0.7041 -0.3945
vn 0.4654 -0.8286 -0.3110
vn 0.3225 -0.9217 -0.2155
vn 0.1671 -0.9796 -0.1117
vn -0.0000 1.0000 -0.0000
vn 0.1857 0.9796 -0.0769
vn 0.3584 0.9217 -0.1484
vn 0.5172 0.8286 -0.2142
vn 0.6561 0.7041 -0.2718
vn 0.7699 0.5528 -0.3189
vn 0.8544 0.3805 -0.3539
vn 0.9063 0.1939 -0.3754
vn 0.9239 -0.0000 -0.3827
vn 0.9063 -0.1939 -0.3754
vn 0.8544 -0.3805 -0.3539
vn 0.7699 -0.5528 -0.3189
vn 0.6561 -0.7041 -0.2718
vn 0.5172 -0.8286 -0.2142
vn 0.3584 -0.9217 -0.1484
vn 0.1857 -0.9796 -0.0769
vn 0.1971 0.9796 -0.0392
vn 0.3804 0.9217 -0.0757
vn 0.5490 0.8286 -0.1092
vn 0.6965 0.7041 -0.1385
vn 0.8173 0.5528 -0.1626
vn 0.9070 0.3805 -0.1804
vn 0.9622 0.1939 -0.1914
vn 0.9808 -0.0000 -0.1951
vn 0.9622 -0.1939 -0.1914
vn 0.9070 -0.3805 -0.1804
vn 0.8173 -0.5528 -0.1626
vn 0.6965 -0.7041 -0.1385
vn 0.5490 -0.8286 -0.1092
vn 0.3804 -0.9217 -0.0757
vn 0.1971 -0.9796 -0.0392
vn 0.2010 0.9796 -0.0000
vn 0.3879 0.9217 -0.0000
vn 0.5598 0.8286 -0.0000
vn 0.7101 0.7041 -0.0000
vn 0.8333 0.5528 -0.0000
vn 0.9248 0.3805 -0.0000
vn 0.9810 0.1939 -0.0000
vn 1.0000 -0.0000 -0.0000
vn 0.9810 -0.1939 -0.0000
vn 0.9248 -0.3805 -0.0000
vn 0.8333 -0.5528 -0.0000
vn 0.7101 -0.7041 -0.0000
vn 0.5598 -0.8286 -0.0000
vn 0.3879 -0.9217 -0.0000
vn 0.2010 -0.9796 -0.0000
vn 0.1971 0.9796 0.0392
vn 0.3804 0.9217 0.0757
vn 0.5490 0.8286 0.1092
vn 0.6965 0.7041 0.1385
vn 0.8173 0.5528 0.1626
vn 0.9070 0.3805 0.1804
vn 0.9622 0.1939 0.1914
vn 0.9808 -0.0000 0.1951
vn 0.9622 -0.1939 0.1914
vn 0.9070 -0.3805 0.1804
vn 0.8173 -0.5528 0.1626
vn 0.6965 -0.7041 0.1385
vn 0.5490 -0.8286 0.1092
vn 0.3804 -0.9217 0.0757
vn 0.1971 -0.9796 0.0392
vn 0.1857 0.9796 0.0769
vn 0.3584 0.9217 0.1484
vn 0.5172 0.8286 0.2142
vn 0.6561 0.7041 0.2718
vn 0.7699 0.5528 0.3189
vn 0.8544 0.3805 0.3539
vn 0.9063 0.1939 0.3754
vn 0.9239 -0.0000 0.3827
vn 0.9063 -0.1939 0.3754
vn 0.8544 -0.3805 0.3539
vn 0.7699 -0.5528 0.3189
vn 0.6561 -0.7041 0.2718
vn 0.5172 -0.8286 0.2142
vn 0.3584 -0.9217 0.1484
vn 0.1857 -0.9796 0.0769
vn 0.1671 0.9796 0.1117
vn 0.3225 0.9217 0.2155
vn 0.4654 0.8286 0.3110
vn 0.5905 0.7041 0.3945
vn 0.6929 0.5528 0.4630
vn 0.7689 0.3805 0.5138
vn 0.8157 0.1939 0.5450
vn 0.8315 -0.0000 0.5556
vn 0.8157 -0.1939 0.5450
vn 0.7689 -0.3805 0.5138
vn 0.6929 -0.5528 0.4630
vn 0.5905 -0.7041 0.3945
vn 0.4654 -0.8286 0.3110
vn 0.3225 -0.9217 0.2155
vn 0.1671 -0.9796 0.1117
vn 0.1421 0.9796 0.1421
vn 0.2743 0.9217 0.2743
vn 0.3958 0.8286 0.3958
vn 0.5021 0.7041 0.5021
vn 0.5893 0.5528 0.5893
vn 0.6539 0.3805 0.6539
vn 0.6937 0.1939 0.6937
vn 0.7071 -0.0000 0.7071
vn 0.6937 -0.1939 0.6937
vn 0.6539 -0.3805 0.6539
vn 0.5893 -0.5528 0.5893
vn 0.5021 -0.7041 0.5021
vn 0.3958 -0.8286 0.3958
vn 0.2743 -0.9217 0.2743
vn 0.1421 -0.9796 0.1421
vn 0.1117 0.9796 0.1671
vn 0.2155 0.9217 0.3225
vn 0.3110 0.8286 0.4654
vn 0.3945 0.7041 0.5905
vn 0.4630 0.5528 0.6929
vn 0.5138 0.3805 0.7689
vn 0.5450 0.1939 0.8157
vn 0.5556 -0.0000 0.8315
vn 0.5450 -0.1939 0.8157
vn 0.5138 -0.3805 0.7689
vn 0.4630 -0.5528 0.6929
vn 0.3945 -0.7041 0.5905
vn 0.3110 -0.8286 0.4654
vn 0.2155 -0.9217 0.3225
vn 0.1117 -0.9796 0.1671
vn 0.0769 0.9796 0.1857
vn 0.1484 0.9217 0.3584
vn 0.2142 0.8286 0.5172
vn 0.2718 0.7041 0.6561
vn 0.3189 0.5528 0.7699
vn 0.3539 0.3805 0.8544
vn 0.3754 0.1939 0.9063
vn 0.3827 -0.0000 0.9239
vn 0.3754 -0.1939 0.9063
vn 0.3539 -0.3805 0.8544
vn 0.3189 -0.5528 0.7699
vn 0.2718 -0.7041 0.6561
vn 0.2142 -0.8286 0.5172
vn 0.1484 -0.9217 0.3584
vn 0.0769 -0.9796 0.1857
vn 0.0392 0.9796 0.1971
vn 0.0757 0.9217 0.3804
vn 0.1092 0.8286 0.5490
vn 0.1385 0.7041 0.6965
vn 0.1626 0.5528 0.8173
vn 0.1804 0.3805 0.9070
vn 0.1914 0.1939 0.9622
vn 0.1951 -0.0000 0.9808
vn 0.1914 -0.1939 0.9622
vn 0.1804 -0.3805 0.9070
vn 0.1626 -0.5528 0.8173
vn 0.1385 -0.7041 0.6965
vn 0.1092 -0.8286 0.5490
vn 0.0757 -0.9217 0.3804
vn 0.0392 -0.9796 0.1971
vn -0.0000 0.9796 0.2010
vn -0.0000 0.9217 0.3879
vn -0.0000 0.8286 0.5598
vn -0.0000 0.7041 0.7101
vn -0.0000 0.5528 0.8333
vn -0.0000 0.3805 0.9248
vn -0.0000 0.1939 0.9810
vn -0.0000 -0.0000 1.0000
vn -0.0000 -0.1939 0.9810
vn -0.0000 -0.3805 0.9248
vn -0.0000 -0.5528 0.8333
vn -0.0000 -0.7041 0.7101
vn -0.0000 -0.8286 0.5598
vn -0.0000 -0.9217 0.3879
vn -0.0000 -0.9796 0.2010
vn -0.0392 0.9796 0.1971
vn -0.0757 0.9217 0.3804
vn -0.1092 0.8286 0.5490
vn -0.1385 0.7041 0.6965
vn -0.1626 0.5528 0.8173
vn -0.1804 0.3805 0.9070
vn -0.1914 0.1939 0.9622
vn -0.1951 -0.0000 0.9808
vn -0.1914 -0.1939 0.9622
vn -0.1804 -0.3805 0.9070
vn -0.1626 -0.5528 0.8173
vn -0.1385 -0.7041 0.6965
vn -0.1092 -0.8286 0.5490
vn -0.0757 -0.9217 0.3804
vn -0.0392 -0.9796 0.1971
vn -0.0769 0.9796 0.1857
vn -0.1484 0.9217 0.3584
vn -0.2142 0.8286 0.5172
vn -0.2718 0.7041 0.6561
vn -0.3189 0.5528 0.7699
vn -0.3539 0.3805 0.8544
vn -0.3754 0.1939 0.9063
vn -0.3827 -0.0000 0.9239
vn -0.3754 -0.1939 0.9063
vn -0.3539 -0.3805 0.8544
vn -0.3189 -0.5528 0.7699
vn -0.2718 -0.7041 0.6561
vn -0.2142 -0.8286 0.5172
vn -0.1484 -0.9217 0.3584
vn -0.0769 -0.9796 0.1857
vn -0.1117 0.9796 0.1671
vn -0.2155 0.9217 0.3225
vn -0.3110 0.8286 0.4654
vn -0.3945 0.7041 0.5905
vn -0.4630 0.5528 0.6929
vn -0.5138 0.3805 0.7689
vn -0.5450 0.1939 0.8157
vn -0.5556 -0.0000 0.8315
vn -0.5450 -0.1939 0.8157
vn -0.5138 -0.3805 0.7689
vn -0.4630 -0.5528 0.6929
vn -0.3945 -0.7041 0.5905
vn -0.3110 -0.8286 0.4654
vn -0.2155 -0.9217 0.3225
vn -0.1117 -0.9796 0.1671
vn -0.1421 0.9796 0.1421
vn -0.2743 0.9217 0.2743
vn -0.3958 0.8286 0.3958
vn -0.5021 0.7041 0.5021
vn -0.5893 0.5528 0.5893
vn -0.6539 0.3805 0.6539
vn -0.6937 0.1939 0.6937
vn -0.7071 -0.0000 0.7071
vn -0.6937 -0.1939 0.6937
vn -0.6539 -0.3805 0.6539
vn -0.5893 -0.5528 0.5893
vn -0.5021 -0.7041 0.5021
vn -0.3958 -0.8286 0.3958
vn -0.2743 -0.9217 0.2743
vn -0.1421 -0.9796 0.1421
vn -0.0000 -1.0000 -0.0000
vn -0.1671 0.9796 0.1117
vn -0.3225 0.9217 0.2155
vn -0.4654 0.8286 0.3110
vn -0.5905 0.7041 0.3945
vn -0.6929 0.5528 0.4630
vn -0.7689 0.3805 0.5138
vn -0.8157 0.1939 0.5450
vn -0.8315 -0.0000 0.5556
vn -0.8157 -0.1939 0.5450
vn -0.7689 -0.3805 0.5138
vn -0.6929 -0.5528 0.4630
vn -0.5905 -0.7041 0.3945
vn -0.4654 -0.8286 0.3110
vn -0.3225 -0.9217 0.2155
vn -0.1671 -0.9796 0.1117
vn -0.1857 0.9796 0.0769
vn -0.3584 0.9217 0.1484
vn -0.5172 0.8286 0.2142
vn -0.6561 0.7041 0.2718
vn -0.7699 0.5528 0.3189
vn -0.8544 0.3805 0.3539
vn -0.9063 0.1939 0.3754
vn -0.9239 -0.0000 0.3827
vn -0.9063 -0.1939 0.3754
vn -0.8544 -0.3805 0.3539
vn -0.7699 -0.5528 0.3189
vn -0.6561 -0.7041 0.2718
vn -0.5172 -0.8286 0.2142
vn -0.3584 -0.9217 0.1484
vn -0.1857 -0.9796 0.0769
vn -0.1971 0.9796 0.0392
vn -0.3804 0.9217 0.0757
vn -0.5490 0.8286 0.1092
vn -0.6965 0.7041 0.1385
vn -0.8173 0.5528 0.1626
vn -0.9070 0.3805 0.1804
vn -0.9622 0.1939 0.1914
vn -0.9808 -0.0000 0.1951
vn -0.9622 -0.1939 0.1914
vn -0.9070 -0.3805 0.1804
vn -0.8173 -0.5528 0.1626
vn -0.6965 -0.7041 0.1385
vn -0.5490 -0.8286 0.1092
vn -0.3804 -0.9217 0.0757
vn -0.1971 -0.9796 0.0392
vn -0.2010 0.9796 -0.0000
vn -0.3879 0.9217 -0.0000
vn -0.5598 0.8286 -0.0000
vn -0.7101 0.7041 -0.0000
vn -0.8333 0.5528 -0.0000
vn -0.9248 0.3805 -0.0000
vn -0.9810 0.1939 -0.0000
vn -1.0000 -0.0000 -0.0000
vn -0.9810 -0.1939 -0.0000
vn -0.9248 -0.3805 -0.0000
vn -0.8333 -0.5528 -0.0000
vn -0.7101 -0.7041 -0.0000
vn -0.5598 -0.8286 -0.0000
vn -0.3879 -0.9217 -0.0000
vn -0.2010 -0.9796 -0.0000
vn -0.1971 0.9796 -0.0392
vn -0.3804 0.9217 -0.0757
vn -0.5490 0.8286 -0.1092
vn -0.6965 0.7041 -0.1385
vn -0.8173 0.5528 -0.1626
vn -0.9070 0.3805 -0.1804
vn -0.9622 0.1939 -0.1914
vn -0.9808 -0.0000 -0.1951
vn -0.9622 -0.1939 -0.1914
vn -0.9070 -0.3805 -0.1804
vn -0.8173 -0.5528 -0.1626
vn -0.6965 -0.7041 -0.1385
vn -0.5490 -0.8286 -0.1092
vn -0.3804 -0.9217 -0.0757
vn -0.1971 -0.9796 -0.0392
vn -0.1857 0.9796 -0.0769
vn -0.3584 0.9217 -0.1484
vn -0.5172 0.8286 -0.2142
vn -0.6561 0.7041 -0.2718
vn -0.7699 0.5528 -0.3189
vn -0.8544 0.3805 -0.3539
vn -0.9063 0.1939 -0.3754
vn -0.9239 -0.0000 -0.3827
vn -0.9063 -0.1939 -0.3754
vn -0.8544 -0.3805 -0.3539
vn -0.7699 -0.5528 -0.3189
vn -0.6561 -0.7041 -0.2718
vn -0.5172 -0.8286 -0.2142
vn -0.3584 -0.9217 -0.1484
vn -0.1857 -0.9796 -0.0769
vn -0.1671 0.9796 -0.1117
vn -0.3225 0.9217 -0.2155
vn -0.4654 0.8286 -0.3110
vn -0.5905 0.7041 -0.3945
vn -0.6929 0.5528 -0.4630
vn -0.7689 0.3805 -0.5138
vn -0.8157 0.1939 -0.5450
vn -0.8315 -0.0000 -0.5556
vn -0.8157 -0.1939 -0.5450
vn -0.7689 -0.3805 -0.5138
vn -0.6929 -0.5528 -0.4630
vn -0.5905 -0.7041 -0.3945
vn -0.4654 -0.8286 -0.3110
vn -0.3225 -0.9217 -0.2155
vn -0.1671 -0.9796 -0.1117
vn -0.1421 0.9796 -0.1421
vn -0.2743 0.9217 -0.2743
vn -0.3958 0.8286 -0.3958
vn -0.5021 0.7041 -0.5021
vn -0.5893 0.5528 -0.5893
vn -0.6539 0.3805 -0.6539
vn -0.6937 0.1939 -0.6937
vn -0.7071 -0.0000 -0.7071
vn -0.6937 -0.1939 -0.6937
vn -0.6539 -0.3805 -0.6539
vn -0.5893 -0.5528 -0.5893
vn -0.5021 -0.7041 -0.5021
vn -0.3958 -0.8286 -0.3958
vn -0.2743 -0.9217 -0.2743
vn -0.1421 -0.9796 -0.1421
vn -0.1117 0.9796 -0.1671
vn -0.2155 0.9217 -0.3225
vn -0.3110 0.8286 -0.4654
vn -0.3945 0.7041 -0.5905
vn -0.4630 0.5528 -0.6929
vn -0.5138 0.3805 -0.7689
vn -0.5450 0.1939 -0.8157
vn -0.5556 -0.0000 -0.8315
vn -0.5450 -0.1939 -0.8157
vn -0.5138 -0.3805 -0.7689
vn -0.4630 -0.5528 -0.6929
vn -0.3945 -0.7041 -0.5905
vn -0.3110 -0.8286 -0.4654
vn -0.2155 -0.9217 -0.3225
vn -0.1117 -0.9796 -0.1671
vn -0.0769 0.9796 -0.1857
vn -0.1484 0.9217 -0.3584
vn -0.2142 0.8286 -0.5172
vn -0.2718 0.7041 -0.6561
vn -0.3189 0.5528 -0.7699
vn -0.3539 0.3805 -0.8544
vn -0.3754 0.1939 -0.9063
vn -0.3827 -0.0000 -0.9239
vn -0.3754 -0.1939 -0.9063
vn -0.3539 -0.3805 -0.8544
vn -0.3189 -0.5528 -0.7699
vn -0.2718 -0.7041 -0.6561
vn -0.2142 -0.8286 -0.5172
vn -0.1484 -0.9217 -0.3584
vn -0.0769 -0.9796 -0.1857
vn -0.0392 0.9796 -0.1971
vn -0.0757 0.9217 -0.3804
vn -0.1092 0.8286 -0.5490
vn -0.1385 0.7041 -0.6965
vn -0.1626 0.5528 -0.8173
vn -0.1804 0.3805 -0.9070
vn -0.1914 0.1939 -0.9622
vn -0.1951 -0.0000 -0.9808
vn -0.1914 -0.1939 -0.9622
vn -0.1804 -0.3805 -0.9070
vn -0.1626 -0.5528 -0.8173
vn -0.1385 -0.7041 -0.6965
vn -0.1092 -0.8286 -0.5490
vn -0.0757 -0.9217 -0.3804
vn -0.0392 -0.9796 -0.1971
vn -0.0000 0.9796 -0.2010
vn -0.0000 0.9217 -0.3879
vn -0.0000 0.7041 -0.7101
vn -0.0000 0.3805 -0.9248
vn -0.0000 -0.3805 -0.9248
vn -0.0000 -0.7041 -0.7101
vn -0.0000 -0.8286 -0.5598
vn -0.0000 -0.9217 -0.3879
vn -0.0000 -0.9796 -0.2010
vt 0.750000 0.125000
vt 0.750000 0.187500
vt 0.718750 0.187500
vt 0.718750 0.125000
vt 0.750000 0.562500
vt 0.750000 0.625000
vt 0.718750 0.625000
vt 0.718750 0.562500
vt 0.750000 0.062500
vt 0.718750 0.062500
vt 0.750000 0.500000
vt 0.718750 0.500000
vt 0.750000 0.937500
vt 0.734375 1.000000
vt 0.718750 0.937500
vt 0.734375 0.000000
vt 0.750000 0.437500
vt 0.718750 0.437500
vt 0.750000 0.875000
vt 0.718750 0.875000
vt 0.750000 0.375000
vt 0.718750 0.375000
vt 0.750000 0.812500
vt 0.718750 0.812500
vt 0.750000 0.312500
vt 0.718750 0.312500
vt 0.750000 0.750000
vt 0.718750 0.750000
vt 0.750000 0.250000
vt 0.718750 0.250000
vt 0.750000 0.687500
vt 0.718750 0.687500
vt 0.687500 0.250000
vt 0.687500 0.187500
vt 0.687500 0.687500
vt 0.687500 0.625000
vt 0.687500 0.125000
vt 0.687500 0.562500
vt 0.687500 0.062500
vt 0.687500 0.500000
vt 0.703125 1.000000
vt 0.687500 0.937500
vt 0.703125 0.000000
vt 0.687500 0.437500
vt 0.687500 0.875000
vt 0.687500 0.375000
vt 0.687500 0.812500
vt 0.687500 0.312500
vt 0.687500 0.750000
vt 0.656250 0.937500
vt 0.656250 0.875000
vt 0.656250 0.437500
vt 0.656250 0.375000
vt 0.656250 0.812500
vt 0.656250 0.312500
vt 0.656250 0.750000
vt 0.656250 0.250000
vt 0.656250 0.687500
vt 0.656250 0.187500
vt 0.656250 0.625000
vt 0.656250 0.125000
vt 0.656250 0.562500
vt 0.656250 0.062500
vt 0.656250 0.500000
vt 0.671875 1.000000
vt 0.671875 0.000000
vt 0.625000 0.687500
vt 0.625000 0.625000
vt 0.625000 0.187500
vt 0.625000 0.125000
vt 0.625000 0.562500
vt 0.625000 0.062500
vt 0.625000 0.500000
vt 0.640625 1.000000
vt 0.625000 0.937500
vt 0.640625 0.000000
vt 0.625000 0.437500
vt 0.625000 0.875000
vt 0.625000 0.375000
vt 0.625000 0.812500
vt 0.625000 0.312500
vt 0.625000 0.750000
vt 0.625000 0.250000
vt 0.593750 0.437500
vt 0.593750 0.375000
vt 0.593750 0.875000
vt 0.593750 0.812500
vt 0.593750 0.312500
vt 0.593750 0.750000
vt 0.593750 0.250000
vt 0.593750 0.687500
vt 0.593750 0.187500
vt 0.593750 0.625000
vt 0.593750 0.125000
vt 0.593750 0.562500
vt 0.593750 0.062500
vt 0.593750 0.500000
vt 0.609375 1.000000
vt 0.593750 0.937500
vt 0.609375 0.000000
vt 0.562500 0.187500
vt 0.562500 0.125000
vt 0.562500 0.625000
vt 0.562500 0.562500
vt 0.562500 0.062500
vt 0.562500 0.500000
vt 0.578125 1.000000
vt 0.562500 0.937500
vt 0.578125 0.000000
vt 0.562500 0.437500
vt 0.562500 0.875000
vt 0.562500 0.375000
vt 0.562500 0.812500
vt 0.562500 0.312500
vt 0.562500 0.750000
vt 0.562500 0.250000
vt 0.562500 0.687500
vt 0.531250 0.875000
vt 0.531250 0.812500
vt 0.531250 0.375000
vt 0.531250 0.312500
vt 0.531250 0.750000
vt 0.531250 0.250000
vt 0.531250 0.687500
vt 0.531250 0.187500
vt 0.531250 0.625000
vt 0.531250 0.125000
vt 0.531250 0.562500
vt 0.531250 0.062500
vt 0.531250 0.500000
vt 0.546875 1.000000
vt 0.531250 0.937500
vt 0.546875 0.000000
vt 0.531250 0.437500
vt 0.500000 0.625000
vt 0.500000 0.562500
vt 0.500000 0.125000
vt 0.500000 0.062500
vt 0.500000 0.500000
vt 0.515625 1.000000
vt 0.500000 0.937500
vt 0.515625 0.000000
vt 0.500000 0.437500
vt 0.500000 0.875000
vt 0.500000 0.375000
vt 0.500000 0.812500
vt 0.500000 0.312500
vt 0.500000 0.750000
vt 0.500000 0.250000
vt 0.500000 0.687500
vt 0.500000 0.187500
vt 0.468750 0.375000
vt 0.468750 0.312500
vt 0.468750 0.812500
vt 0.468750 0.750000
vt 0.468750 0.250000
vt 0.468750 0.687500
vt 0.468750 0.187500
vt 0.468750 0.625000
vt 0.468750 0.125000
vt 0.468750 0.562500
vt 0.468750 0.062500
vt 0.468750 0.500000
vt 0.484375 1.000000
vt 0.468750 0.937500
vt 0.484375 0.000000
vt 0.468750 0.437500
vt 0.468750 0.875000
vt 0.437500 0.125000
vt 0.437500 0.062500
vt 0.437500 0.562500
vt 0.437500 0.500000
vt 0.453125 1.000000
vt 0.437500 0.937500
vt 0.453125 0.000000
vt 0.437500 0.437500
vt 0.437500 0.875000
vt 0.437500 0.375000
vt 0.437500 0.812500
vt 0.437500 0.312500
vt 0.437500 0.750000
vt 0.437500 0.250000
vt 0.437500 0.687500
vt 0.437500 0.187500
vt 0.437500 0.625000
vt 0.406250 0.312500
vt 0.406250 0.250000
vt 0.406250 0.750000
vt 0.406250 0.687500
vt 0.406250 0.187500
vt 0.406250 0.625000
vt 0.406250 0.125000
vt 0.406250 0.562500
vt 0.406250 0.062500
vt 0.406250 0.500000
vt 0.421875 1.000000
vt 0.406250 0.937500
vt 0.421875 0.000000
vt 0.406250 0.437500
vt 0.406250 0.875000
vt 0.406250 0.375000
vt 0.406250 0.812500
vt 0.390625 1.000000
vt 0.375000 0.937500
vt 0.390625 0.000000
vt 0.375000 0.062500
vt 0.375000 0.500000
vt 0.375000 0.437500
vt 0.375000 0.875000
vt 0.375000 0.375000
vt 0.375000 0.812500
vt 0.375000 0.312500
vt 0.375000 0.750000
vt 0.375000 0.250000
vt 0.375000 0.687500
vt 0.375000 0.187500
vt 0.375000 0.625000
vt 0.375000 0.125000
vt 0.375000 0.562500
vt 0.343750 0.750000
vt 0.343750 0.687500
vt 0.343750 0.250000
vt 0.343750 0.187500
vt 0.343750 0.625000
vt 0.343750 0.125000
vt 0.343750 0.562500
vt 0.343750 0.062500
vt 0.343750 0.500000
vt 0.359375 1.000000
vt 0.343750 0.937500
vt 0.359375 0.000000
vt 0.343750 0.437500
vt 0.343750 0.875000
vt 0.343750 0.375000
vt 0.343750 0.812500
vt 0.343750 0.312500
vt 0.312500 0.500000
vt 0.312500 0.437500
vt 0.312500 0.937500
vt 0.312500 0.875000
vt 0.312500 0.375000
vt 0.312500 0.812500
vt 0.312500 0.312500
vt 0.312500 0.750000
vt 0.312500 0.250000
vt 0.312500 0.687500
vt 0.312500 0.187500
vt 0.312500 0.625000
vt 0.312500 0.125000
vt 0.312500 0.562500
vt 0.312500 0.062500
vt 0.328125 1.000000
vt 0.328125 0.000000
vt 0.281250 0.250000
vt 0.281250 0.187500
vt 0.281250 0.687500
vt 0.281250 0.625000
vt 0.281250 0.125000
vt 0.281250 0.562500
vt 0.281250 0.062500
vt 0.281250 0.500000
vt 0.296875 1.000000
vt 0.281250 0.937500
vt 0.296875 0.000000
vt 0.281250 0.437500
vt 0.281250 0.875000
vt 0.281250 0.375000
vt 0.281250 0.812500
vt 0.281250 0.312500
vt 0.281250 0.750000
vt 0.250000 0.937500
vt 0.250000 0.875000
vt 0.250000 0.437500
vt 0.250000 0.375000
vt 0.250000 0.812500
vt 0.250000 0.312500
vt 0.250000 0.750000
vt 0.250000 0.250000
vt 0.250000 0.687500
vt 0.250000 0.187500
vt 0.250000 0.625000
vt 0.250000 0.125000
vt 0.250000 0.562500
vt 0.250000 0.062500
vt 0.250000 0.500000
vt 0.265625 1.000000
vt 0.265625 0.000000
vt 0.218750 0.687500
vt 0.218750 0.625000
vt 0.218750 0.187500
vt 0.218750 0.125000
vt 0.218750 0.562500
vt 0.218750 0.062500
vt 0.218750 0.500000
vt 0.234375 1.000000
vt 0.218750 0.937500
vt 0.234375 0.000000
vt 0.218750 0.437500
vt 0.218750 0.875000
vt 0.218750 0.375000
vt 0.218750 0.812500
vt 0.218750 0.312500
vt 0.218750 0.750000
vt 0.218750 0.250000
vt 0.187500 0.437500
vt 0.187500 0.375000
vt 0.187500 0.875000
vt 0.187500 0.812500
vt 0.187500 0.312500
vt 0.187500 0.750000
vt 0.187500 0.250000
vt 0.187500 0.687500
vt 0.187500 0.187500
vt 0.187500 0.625000
vt 0.187500 0.125000
vt 0.187500 0.562500
vt 0.187500 0.062500
vt 0.187500 0.500000
vt 0.203125 1.000000
vt 0.187500 0.937500
vt 0.203125 0.000000
vt 0.156250 0.187500
vt 0.156250 0.125000
vt 0.156250 0.625000
vt 0.156250 0.562500
vt 0.156250 0.062500
vt 0.156250 0.500000
vt 0.171875 1.000000
vt 0.156250 0.937500
vt 0.171875 0.000000
vt 0.156250 0.437500
vt 0.156250 0.875000
vt 0.156250 0.375000
vt 0.156250 0.812500
vt 0.156250 0.312500
vt 0.156250 0.750000
vt 0.156250 0.250000
vt 0.156250 0.687500
vt 0.125000 0.375000
vt 0.125000 0.312500
vt 0.125000 0.812500
vt 0.125000 0.750000
vt 0.125000 0.250000
vt 0.125000 0.687500
vt 0.125000 0.187500
vt 0.125000 0.625000
vt 0.125000 0.125000
vt 0.125000 0.562500
vt 0.125000 0.062500
vt 0.125000 0.500000
vt 0.140625 1.000000
vt 0.125000 0.937500
vt 0.140625 0.000000
vt 0.125000 0.437500
vt 0.125000 0.875000
vt 0.093750 0.125000
vt 0.093750 0.062500
vt 0.093750 0.562500
vt 0.093750 0.500000
vt 0.109375 1.000000
vt 0.093750 0.937500
vt 0.109375 0.000000
vt 0.093750 0.437500
vt 0.093750 0.875000
vt 0.093750 0.375000
vt 0.093750 0.812500
vt 0.093750 0.312500
vt 0.093750 0.750000
vt 0.093750 0.250000
vt 0.093750 0.687500
vt 0.093750 0.187500
vt 0.093750 0.625000
vt 0.062500 0.812500
vt 0.062500 0.750000
vt 0.062500 0.312500
vt 0.062500 0.250000
vt 0.062500 0.687500
vt 0.062500 0.187500
vt 0.062500 0.625000
vt 0.062500 0.125000
vt 0.062500 0.562500
vt 0.062500 0.062500
vt 0.062500 0.500000
vt 0.078125 1.000000
vt 0.062500 0.937500
vt 0.078125 0.000000
vt 0.062500 0.437500
vt 0.062500 0.875000
vt 0.062500 0.375000
vt 0.031250 0.562500
vt 0.031250 0.500000
vt 0.046875 1.000000
vt 0.031250 0.937500
vt 0.046875 0.000000
vt 0.031250 0.062500
vt 0.031250 0.437500
vt 0.031250 0.875000
vt 0.031250 0.375000
vt 0.031250 0.812500
vt 0.031250 0.312500
vt 0.031250 0.750000
vt 0.031250 0.250000
vt 0.031250 0.687500
vt 0.031250 0.187500
vt 0.031250 0.625000
vt 0.031250 0.125000
vt 0.000000 0.312500
vt 0.000000 0.250000
vt 0.000000 0.750000
vt 0.000000 0.687500
vt 0.000000 0.187500
vt 0.000000 0.625000
vt 0.000000 0.125000
vt 0.000000 0.562500
vt 0.000000 0.062500
vt 0.000000 0.500000
vt 0.015625 1.000000
vt 0.000000 0.937500
vt 0.015625 0.000000
vt 0.000000 0.437500
vt 0.000000 0.875000
vt 0.000000 0.375000
vt 0.000000 0.812500
vt 1.000000 0.937500
vt 0.984375 1.000000
vt 0.968750 0.937500
vt 0.984375 0.000000
vt 1.000000 0.062500
vt 0.968750 0.062500
vt 1.000000 0.437500
vt 1.000000 0.500000
vt 0.968750 0.500000
vt 0.968750 0.437500
vt 1.000000 0.875000
vt 0.968750 0.875000
vt 1.000000 0.375000
vt 0.968750 0.375000
vt 1.000000 0.812500
vt 0.968750 0.812500
vt 1.000000 0.312500
vt 0.968750 0.312500
vt 1.000000 0.750000
vt 0.968750 0.750000
vt 1.000000 0.250000
vt 0.968750 0.250000
vt 1.000000 0.687500
vt 0.968750 0.687500
vt 1.000000 0.187500
vt 0.968750 0.187500
vt 1.000000 0.625000
vt 0.968750 0.625000
vt 1.000000 0.125000
vt 0.968750 0.125000
vt 1.000000 0.562500
vt 0.968750 0.562500
vt 0.937500 0.750000
vt 0.937500 0.687500
vt 0.937500 0.250000
vt 0.937500 0.187500
vt 0.937500 0.625000
vt 0.937500 0.125000
vt 0.937500 0.562500
vt 0.937500 0.062500
vt 0.937500 0.500000
vt 0.953125 1.000000
vt 0.937500 0.937500
vt 0.953125 0.000000
vt 0.937500 0.437500
vt 0.937500 0.875000
vt 0.937500 0.375000
vt 0.937500 0.812500
vt 0.937500 0.312500
vt 0.906250 0.500000
vt 0.906250 0.437500
vt 0.906250 0.937500
vt 0.906250 0.875000
vt 0.906250 0.375000
vt 0.906250 0.812500
vt 0.906250 0.312500
vt 0.906250 0.750000
vt 0.906250 0.250000
vt 0.906250 0.687500
vt 0.906250 0.187500
vt 0.906250 0.625000
vt 0.906250 0.125000
vt 0.906250 0.562500
vt 0.906250 0.062500
vt 0.921875 1.000000
vt 0.921875 0.000000
vt 0.875000 0.250000
vt 0.875000 0.187500
vt 0.875000 0.687500
vt 0.875000 0.625000
vt 0.875000 0.125000
vt 0.875000 0.562500
vt 0.875000 0.062500
vt 0.875000 0.500000
vt 0.890625 1.000000
vt 0.875000 0.937500
vt 0.890625 0.000000
vt 0.875000 0.437500
vt 0.875000 0.875000
vt 0.875000 0.375000
vt 0.875000 0.812500
vt 0.875000 0.312500
vt 0.875000 0.750000
vt 0.843750 0.437500
vt 0.843750 0.375000
vt 0.843750 0.875000
vt 0.843750 0.812500
vt 0.843750 0.312500
vt 0.843750 0.750000
vt 0.843750 0.250000
vt 0.843750 0.687500
vt 0.843750 0.187500
vt 0.843750 0.625000
vt 0.843750 0.125000
vt 0.843750 0.562500
vt 0.843750 0.062500
vt 0.843750 0.500000
vt 0.859375 1.000000
vt 0.843750 0.937500
vt 0.859375 0.000000
vt 0.812500 0.187500
vt 0.812500 0.125000
vt 0.812500 0.625000
vt 0.812500 0.562500
vt 0.812500 0.062500
vt 0.812500 0.500000
vt 0.828125 1.000000
vt 0.812500 0.937500
vt 0.828125 0.000000
vt 0.812500 0.437500
vt 0.812500 0.875000
vt 0.812500 0.375000
vt 0.812500 0.812500
vt 0.812500 0.312500
vt 0.812500 0.750000
vt 0.812500 0.250000
vt 0.812500 0.687500
vt 0.781250 0.875000
vt 0.781250 0.812500
vt 0.781250 0.375000
vt 0.781250 0.312500
vt 0.781250 0.750000
vt 0.781250 0.250000
vt 0.781250 0.687500
vt 0.781250 0.187500
vt 0.781250 0.625000
vt 0.781250 0.125000
vt 0.781250 0.562500
vt 0.781250 0.062500
vt 0.781250 0.500000
vt 0.796875 1.000000
vt 0.781250 0.937500
vt 0.796875 0.000000
vt 0.781250 0.437500
vt 0.765625 1.000000
vt 0.765625 0.000000
s 1
usemtl Material
f 481/1/481 480/2/480 19/3/19 20/4/20
f 3/5/3 477/6/477 12/7/12 13/8/13
f 482/9/482 481/1/481 20/4/20 21/10/21
f 4/11/4 3/5/3 13/8/13 14/12/14
f 474/13/474 82/14/82 7/15/7
f 308/16/308 482/9/482 21/10/21
f 5/17/5 4/11/4 14/12/14 15/18/15
f 475/19/475 474/13/474 7/15/7 8/20/8
f 478/21/478 5/17/5 15/18/15 16/22/16
f 1/23/1 475/19/475 8/20/8 9/24/9
f 6/25/6 478/21/478 16/22/16 17/26/17
f 476/27/476 1/23/1 9/24/9 10/28/10
f 479/29/479 6/25/6 17/26/17 18/30/18
f 2/31/2 476/27/476 10/28/10 11/32/11
f 480/2/480 479/29/479 18/30/18 19/3/19
f 477/6/477 2/31/2 11/32/11 12/7/12
f 19/3/19 18/30/18 33/33/33 34/34/34
f 12/7/12 11/32/11 26/35/26 27/36/27
f 20/4/20 19/3/19 34/34/34 35/37/35
f 13/8/13 12/7/12 27/36/27 28/38/28
f 21/10/21 20/4/20 35/37/35 36/39/36
f 14/12/14 13/8/13 28/38/28 29/40/29
f 7/15/7 82/41/82 22/42/22
f 308/43/308 21/10/21 36/39/36
f 15/18/15 14/12/14 29/40/29 30/44/30
f 8/20/8 7/15/7 22/42/22 23/45/23
f 16/22/16 15/18/15 30/44/30 31/46/31
f 9/24/9 8/20/8 23/45/23 24/47/24
f 17/26/17 16/22/16 31/46/31 32/48/32
f 10/28/10 9/24/9 24/47/24 25/49/25
f 18/30/18 17/26/17 32/48/32 33/33/33
f 11/32/11 10/28/10 25/49/25 26/35/26
f 23/45/23 22/42/22 37/50/37 38/51/38
f 31/46/31 30/44/30 45/52/45 46/53/46
f 24/47/24 23/45/23 38/51/38 39/54/39
f 32/48/32 31/46/31 46/53/46 47/55/47
f 25/49/25 24/47/24 39/54/39 40/56/40
f 33/33/33 32/48/32 47/55/47 48/57/48
f 26/35/26 25/49/25 40/56/40 41/58/41
f 34/34/34 33/33/33 48/57/48 49/59/49
f 27/36/27 26/35/26 41/58/41 42/60/42
f 35/37/35 34/34/34 49/59/49 50/61/50
f 28/38/28 27/36/27 42/60/42 43/62/43
f 36/39/36 35/37/35 50/61/50 51/63/51
f 29/40/29 28/38/28 43/62/43 44/64/44
f 22/42/22 82/65/82 37/50/37
f 308/66/308 36/39/36 51/63/51
f 30/44/30 29/40/29 44/64/44 45/52/45
f 42/60/42 41/58/41 56/67/56 57/68/57
f 50/61/50 49/59/49 64/69/64 65/70/65
f 43/62/43 42/60/42 57/68/57 58/71/58
f 51/63/51 50/61/50 65/70/65 66/72/66
f 44/64/44 43/62/43 58/71/58 59/73/59
f 37/50/37 82/74/82 52/75/52
f 308/76/308 51/63/51 66/72/66
f 45/52/45 44/64/44 59/73/59 60/77/60
f 38/51/38 37/50/37 52/75/52 53/78/53
f 46/53/46 45/52/45 60/77/60 61/79/61
f 39/54/39 38/51/38 53/78/53 54/80/54
f 47/55/47 46/53/46 61/79/61 62/81/62
f 40/56/40 39/54/39 54/80/54 55/82/55
f 48/57/48 47/55/47 62/81/62 63/83/63
f 41/58/41 40/56/40 55/82/55 56/67/56
f 49/59/49 48/57/48 63/83/63 64/69/64
f 61/79/61 60/77/60 75/84/75 76/85/76
f 54/80/54 53/78/53 68/86/68 69/87/69
f 62/81/62 61/79/61 76/85/76 77/88/77
f 55/82/55 54/80/54 69/87/69 70/89/70
f 63/83/63 62/81/62 77/88/77 78/90/78
f 56/67/56 55/82/55 70/89/70 71/91/71
f 64/69/64 63/83/63 78/90/78 79/92/79
f 57/68/57 56/67/56 71/91/71 72/93/72
f 65/70/65 64/69/64 79/92/79 80/94/80
f 58/71/58 57/68/57 72/93/72 73/95/73
f 66/72/66 65/70/65 80/94/80 81/96/81
f 59/73/59 58/71/58 73/95/73 74/97/74
f 52/75/52 82/98/82 67/99/67
f 308/100/308 66/72/66 81/96/81
f 60/77/60 59/73/59 74/97/74 75/84/75
f 53/78/53 52/75/52 67/99/67 68/86/68
f 80/94/80 79/92/79 95/101/95 96/102/96
f 73/95/73 72/93/72 88/103/88 89/104/89
f 81/96/81 80/94/80 96/102/96 97/105/97
f 74/97/74 73/95/73 89/104/89 90/106/90
f 67/99/67 82/107/82 83/108/83
f 308/109/308 81/96/81 97/105/97
f 75/84/75 74/97/74 90/106/90 91/110/91
f 68/86/68 67/99/67 83/108/83 84/111/84
f 76/85/76 75/84/75 91/110/91 92/112/92
f 69/87/69 68/86/68 84/111/84 85/113/85
f 77/88/77 76/85/76 92/112/92 93/114/93
f 70/89/70 69/87/69 85/113/85 86/115/86
f 78/90/78 77/88/77 93/114/93 94/116/94
f 71/91/71 70/89/70 86/115/86 87/117/87
f 79/92/79 78/90/78 94/116/94 95/101/95
f 72/93/72 71/91/71 87/117/87 88/103/88
f 85/113/85 84/111/84 99/118/99 100/119/100
f 93/114/93 92/112/92 107/120/107 108/121/108
f 86/115/86 85/113/85 100/119/100 101/122/101
f 94/116/94 93/114/93 108/121/108 109/123/109
f 87/117/87 86/115/86 101/122/101 102/124/102
f 95/101/95 94/116/94 109/123/109 110/125/110
f 88/103/88 87/117/87 102/124/102 103/126/103
f 96/102/96 95/101/95 110/125/110 111/127/111
f 89/104/89 88/103/88 103/126/103 104/128/104
f 97/105/97 96/102/96 111/127/111 112/129/112
f 90/106/90 89/104/89 104/128/104 105/130/105
f 83/108/83 82/131/82 98/132/98
f 308/133/308 97/105/97 112/129/112
f 91/110/91 90/106/90 105/130/105 106/134/106
f 84/111/84 83/108/83 98/132/98 99/118/99
f 92/112/92 91/110/91 106/134/106 107/120/107
f 104/128/104 103/126/103 118/135/118 119/136/119
f 112/129/112 111/127/111 126/137/126 127/138/127
f 105/130/105 104/128/104 119/136/119 120/139/120
f 98/132/98 82/140/82 113/141/113
f 308/142/308 112/129/112 127/138/127
f 106/134/106 105/130/105 120/139/120 121/143/121
f 99/118/99 98/132/98 113/141/113 114/144/114
f 107/120/107 106/134/106 121/143/121 122/145/122
f 100/119/100 99/118/99 114/144/114 115/146/115
f 108/121/108 107/120/107 122/145/122 123/147/123
f 101/122/101 100/119/100 115/146/115 116/148/116
f 109/123/109 108/121/108 123/147/123 124/149/124
f 102/124/102 101/122/101 116/148/116 117/150/117
f 110/125/110 109/123/109 124/149/124 125/151/125
f 103/126/103 102/124/102 117/150/117 118/135/118
f 111/127/111 110/125/110 125/151/125 126/137/126
f 123/147/123 122/145/122 137/152/137 138/153/138
f 116/148/116 115/146/115 130/154/130 131/155/131
f 124/149/124 123/147/123 138/153/138 139/156/139
f 117/150/117 116/148/116 131/155/131 132/157/132
f 125/151/125 124/149/124 139/156/139 140/158/140
f 118/135/118 117/150/117 132/157/132 133/159/133
f 126/137/126 125/151/125 140/158/140 141/160/141
f 119/136/119 118/135/118 133/159/133 134/161/134
f 127/138/127 126/137/126 141/160/141 142/162/142
f 120/139/120 119/136/119 134/161/134 135/163/135
f 113/141/113 82/164/82 128/165/128
f 308/166/308 127/138/127 142/162/142
f 121/143/121 120/139/120 135/163/135 136/167/136
f 114/144/114 113/141/113 128/165/128 129/168/129
f 122/145/122 121/143/121 136/167/136 137/152/137
f 115/146/115 114/144/114 129/168/129 130/154/130
f 142/162/142 141/160/141 156/169/156 157/170/157
f 135/163/135 134/161/134 149/171/149 150/172/150
f 128/165/128 82/173/82 143/174/143
f 308/175/308 142/162/142 157/170/157
f 136/167/136 135/163/135 150/172/150 151/176/151
f 129/168/129 128/165/128 143/174/143 144/177/144
f 137/152/137 136/167/136 151/176/151 152/178/152
f 130/154/130 129/168/129 144/177/144 145/179/145
f 138/153/138 137/152/137 152/178/152 153/180/153
f 131/155/131 130/154/130 145/179/145 146/181/146
f 139/156/139 138/153/138 153/180/153 154/182/154
f 132/157/132 131/155/131 146/181/146 147/183/147
f 140/158/140 139/156/139 154/182/154 155/184/155
f 133/159/133 132/157/132 147/183/147 148/185/148
f 141/160/141 140/158/140 155/184/155 156/169/156
f 134/161/134 133/159/133 148/185/148 149/171/149
f 154/182/154 153/180/153 168/186/168 169/187/169
f 147/183/147 146/181/146 161/188/161 162/189/162
f 155/184/155 154/182/154 169/187/169 170/190/170
f 148/185/148 147/183/147 162/189/162 163/191/163
f 156/169/156 155/184/155 170/190/170 171/192/171
f 149/171/149 148/185/148 163/191/163 164/193/164
f 157/170/157 156/169/156 171/192/171 172/194/172
f 150/172/150 149/171/149 164/193/164 165/195/165
f 143/174/143 82/196/82 158/197/158
f 308/198/308 157/170/157 172/194/172
f 151/176/151 150/172/150 165/195/165 166/199/166
f 144/177/144 143/174/143 158/197/158 159/200/159
f 152/178/152 151/176/151 166/199/166 167/201/167
f 145/179/145 144/177/144 159/200/159 160/202/160
f 153/180/153 152/178/152 167/201/167 168/186/168
f 146/181/146 145/179/145 160/202/160 161/188/161
f 158/197/158 82/203/82 173/204/173
f 308/205/308 172/194/172 187/206/187
f 166/199/166 165/195/165 180/207/180 181/208/181
f 159/200/159 158/197/158 173/204/173 174/209/174
f 167/201/167 166/199/166 181/208/181 182/210/182
f 160/202/160 159/200/159 174/209/174 175/211/175
f 168/186/168 167/201/167 182/210/182 183/212/183
f 161/188/161 160/202/160 175/211/175 176/213/176
f 169/187/169 168/186/168 183/212/183 184/214/184
f 162/189/162 161/188/161 176/213/176 177/215/177
f 170/190/170 169/187/169 184/214/184 185/216/185
f 163/191/163 162/189/162 177/215/177 178/217/178
f 171/192/171 170/190/170 185/216/185 186/218/186
f 164/193/164 163/191/163 178/217/178 179/219/179
f 172/194/172 171/192/171 186/218/186 187/206/187
f 165/195/165 164/193/164 179/219/179 180/207/180
f 177/215/177 176/213/176 191/220/191 192/221/192
f 185/216/185 184/214/184 199/222/199 200/223/200
f 178/217/178 177/215/177 192/221/192 193/224/193
f 186/218/186 185/216/185 200/223/200 201/225/201
f 179/219/179 178/217/178 193/224/193 194/226/194
f 187/206/187 186/218/186 201/225/201 202/227/202
f 180/207/180 179/219/179 194/226/194 195/228/195
f 173/204/173 82/229/82 188/230/188
f 308/231/308 187/206/187 202/227/202
f 181/208/181 180/207/180 195/228/195 196/232/196
f 174/209/174 173/204/173 188/230/188 189/233/189
f 182/210/182 181/208/181 196/232/196 197/234/197
f 175/211/175 174/209/174 189/233/189 190/235/190
f 183/212/183 182/210/182 197/234/197 198/236/198
f 176/213/176 175/211/175 190/235/190 191/220/191
f 184/214/184 183/212/183 198/236/198 199/222/199
f 196/232/196 195/228/195 210/237/210 211/238/211
f 189/233/189 188/230/188 203/239/203 204/240/204
f 197/234/197 196/232/196 211/238/211 212/241/212
f 190/235/190 189/233/189 204/240/204 205/242/205
f 198/236/198 197/234/197 212/241/212 213/243/213
f 191/220/191 190/235/190 205/242/205 206/244/206
f 199/222/199 198/236/198 213/243/213 214/245/214
f 192/221/192 191/220/191 206/244/206 207/246/207
f 200/223/200 199/222/199 214/245/214 215/247/215
f 193/224/193 192/221/192 207/246/207 208/248/208
f 201/225/201 200/223/200 215/247/215 216/249/216
f 194/226/194 193/224/193 208/248/208 209/250/209
f 202/227/202 201/225/201 216/249/216 217/251/217
f 195/228/195 194/226/194 209/250/209 210/237/210
f 188/230/188 82/252/82 203/239/203
f 308/253/308 202/227/202 217/251/217
f 215/247/215 214/245/214 229/254/229 230/255/230
f 208/248/208 207/246/207 222/256/222 223/257/223
f 216/249/216 215/247/215 230/255/230 231/258/231
f 209/250/209 208/248/208 223/257/223 224/259/224
f 217/251/217 216/249/216 231/258/231 232/260/232
f 210/237/210 209/250/209 224/259/224 225/261/225
f 203/239/203 82/262/82 218/263/218
f 308/264/308 217/251/217 232/260/232
f 211/238/211 210/237/210 225/261/225 226/265/226
f 204/240/204 203/239/203 218/263/218 219/266/219
f 212/241/212 211/238/211 226/265/226 227/267/227
f 205/242/205 204/240/204 219/266/219 220/268/220
f 213/243/213 212/241/212 227/267/227 228/269/228
f 206/244/206 205/242/205 220/268/220 221/270/221
f 214/245/214 213/243/213 228/269/228 229/254/229
f 207/246/207 206/244/206 221/270/221 222/256/222
f 219/266/219 218/263/218 233/271/233 234/272/234
f 227/267/227 226/265/226 241/273/241 242/274/242
f 220/268/220 219/266/219 234/272/234 235/275/235
f 228/269/228 227/267/227 242/274/242 243/276/243
f 221/270/221 220/268/220 235/275/235 236/277/236
f 229/254/229 228/269/228 243/276/243 244/278/244
f 222/256/222 221/270/221 236/277/236 237/279/237
f 230/255/230 229/254/229 244/278/244 245/280/245
f 223/257/223 222/256/222 237/279/237 238/281/238
f 231/258/231 230/255/230 245/280/245 246/282/246
f 224/259/224 223/257/223 238/281/238 239/283/239
f 232/260/232 231/258/231 246/282/246 247/284/247
f 225/261/225 224/259/224 239/283/239 240/285/240
f 218/263/218 82/286/82 233/271/233
f 308/287/308 232/260/232 247/284/247
f 226/265/226 225/261/225 240/285/240 241/273/241
f 238/281/238 237/279/237 252/288/252 253/289/253
f 246/282/246 245/280/245 260/290/260 261/291/261
f 239/283/239 238/281/238 253/289/253 254/292/254
f 247/284/247 246/282/246 261/291/261 262/293/262
f 240/285/240 239/283/239 254/292/254 255/294/255
f 233/271/233 82/295/82 248/296/248
f 308/297/308 247/284/247 262/293/262
f 241/273/241 240/285/240 255/294/255 256/298/256
f 234/272/234 233/271/233 248/296/248 249/299/249
f 242/274/242 241/273/241 256/298/256 257/300/257
f 235/275/235 234/272/234 249/299/249 250/301/250
f 243/276/243 242/274/242 257/300/257 258/302/258
f 236/277/236 235/275/235 250/301/250 251/303/251
f 244/278/244 243/276/243 258/302/258 259/304/259
f 237/279/237 236/277/236 251/303/251 252/288/252
f 245/280/245 244/278/244 259/304/259 260/290/260
f 257/300/257 256/298/256 271/305/271 272/306/272
f 250/301/250 249/299/249 264/307/264 265/308/265
f 258/302/258 257/300/257 272/306/272 273/309/273
f 251/303/251 250/301/250 265/308/265 266/310/266
f 259/304/259 258/302/258 273/309/273 274/311/274
f 252/288/252 251/303/251 266/310/266 267/312/267
f 260/290/260 259/304/259 274/311/274 275/313/275
f 253/289/253 252/288/252 267/312/267 268/314/268
f 261/291/261 260/290/260 275/313/275 276/315/276
f 254/292/254 253/289/253 268/314/268 269/316/269
f 262/293/262 261/291/261 276/315/276 277/317/277
f 255/294/255 254/292/254 269/316/269 270/318/270
f 248/296/248 82/319/82 263/320/263
f 308/321/308 262/293/262 277/317/277
f 256/298/256 255/294/255 270/318/270 271/305/271
f 249/299/249 248/296/248 263/320/263 264/307/264
f 276/315/276 275/313/275 290/322/290 291/323/291
f 269/316/269 268/314/268 283/324/283 284/325/284
f 277/317/277 276/315/276 291/323/291 292/326/292
f 270/318/270 269/316/269 284/325/284 285/327/285
f 263/320/263 82/328/82 278/329/278
f 308/330/308 277/317/277 292/326/292
f 271/305/271 270/318/270 285/327/285 286/331/286
f 264/307/264 263/320/263 278/329/278 279/332/279
f 272/306/272 271/305/271 286/331/286 287/333/287
f 265/308/265 264/307/264 279/332/279 280/334/280
f 273/309/273 272/306/272 287/333/287 288/335/288
f 266/310/266 265/308/265 280/334/280 281/336/281
f 274/311/274 273/309/273 288/335/288 289/337/289
f 267/312/267 266/310/266 281/336/281 282/338/282
f 275/313/275 274/311/274 289/337/289 290/322/290
f 268/314/268 267/312/267 282/338/282 283/324/283
f 288/335/288 287/333/287 302/339/302 303/340/303
f 281/336/281 280/334/280 295/341/295 296/342/296
f 289/337/289 288/335/288 303/340/303 304/343/304
f 282/338/282 281/336/281 296/342/296 297/344/297
f 290/322/290 289/337/289 304/343/304 305/345/305
f 283/324/283 282/338/282 297/344/297 298/346/298
f 291/323/291 290/322/290 305/345/305 306/347/306
f 284/325/284 283/324/283 298/346/298 299/348/299
f 292/326/292 291/323/291 306/347/306 307/349/307
f 285/327/285 284/325/284 299/348/299 300/350/300
f 278/329/278 82/351/82 293/352/293
f 308/353/308 292/326/292 307/349/307
f 286/331/286 285/327/285 300/350/300 301/354/301
f 279/332/279 278/329/278 293/352/293 294/355/294
f 287/333/287 286/331/286 301/354/301 302/339/302
f 280/334/280 279/332/279 294/355/294 295/341/295
f 307/349/307 306/347/306 322/356/322 323/357/323
f 300/350/300 299/348/299 315/358/315 316/359/316
f 293/352/293 82/360/82 309/361/309
f 308/362/308 307/349/307 323/357/323
f 301/354/301 300/350/300 316/359/316 317/363/317
f 294/355/294 293/352/293 309/361/309 310/364/310
f 302/339/302 301/354/301 317/363/317 318/365/318
f 295/341/295 294/355/294 310/364/310 311/366/311
f 303/340/303 302/339/302 318/365/318 319/367/319
f 296/342/296 295/341/295 311/366/311 312/368/312
f 304/343/304 303/340/303 319/367/319 320/369/320
f 297/344/297 296/342/296 312/368/312 313/370/313
f 305/345/305 304/343/304 320/369/320 321/371/321
f 298/346/298 297/344/297 313/370/313 314/372/314
f 306/347/306 305/345/305 321/371/321 322/356/322
f 299/348/299 298/346/298 314/372/314 315/358/315
f 312/368/312 311/366/311 326/373/326 327/374/327
f 320/369/320 319/367/319 334/375/334 335/376/335
f 313/370/313 312/368/312 327/374/327 328/377/328
f 321/371/321 320/369/320 335/376/335 336/378/336
f 314/372/314 313/370/313 328/377/328 329/379/329
f 322/356/322 321/371/321 336/378/336 337/380/337
f 315/358/315 314/372/314 329/379/329 330/381/330
f 323/357/323 322/356/322 337/380/337 338/382/338
f 316/359/316 315/358/315 330/381/330 331/383/331
f 309/361/309 82/384/82 324/385/324
f 308/386/308 323/357/323 338/382/338
f 317/363/317 316/359/316 331/383/331 332/387/332
f 310/364/310 309/361/309 324/385/324 325/388/325
f 318/365/318 317/363/317 332/387/332 333/389/333
f 311/366/311 310/364/310 325/388/325 326/373/326
f 319/367/319 318/365/318 333/389/333 334/375/334
f 331/383/331 330/381/330 345/390/345 346/391/346
f 324/385/324 82/392/82 339/393/339
f 308/394/308 338/382/338 353/395/353
f 332/387/332 331/383/331 346/391/346 347/396/347
f 325/388/325 324/385/324 339/393/339 340/397/340
f 333/389/333 332/387/332 347/396/347 348/398/348
f 326/373/326 325/388/325 340/397/340 341/399/341
f 334/375/334 333/389/333 348/398/348 349/400/349
f 327/374/327 326/373/326 341/399/341 342/401/342
f 335/376/335 334/375/334 349/400/349 350/402/350
f 328/377/328 327/374/327 342/401/342 343/403/343
f 336/378/336 335/376/335 350/402/350 351/404/351
f 329/379/329 328/377/328 343/403/343 344/405/344
f 337/380/337 336/378/336 351/404/351 352/406/352
f 330/381/330 329/379/329 344/405/344 345/390/345
f 338/382/338 337/380/337 352/406/352 353/395/353
f 350/402/350 349/400/349 364/407/364 365/408/365
f 343/403/343 342/401/342 357/409/357 358/410/358
f 351/404/351 350/402/350 365/408/365 366/411/366
f 344/405/344 343/403/343 358/410/358 359/412/359
f 352/406/352 351/404/351 366/411/366 367/413/367
f 345/390/345 344/405/344 359/412/359 360/414/360
f 353/395/353 352/406/352 367/413/367 368/415/368
f 346/391/346 345/390/345 360/414/360 361/416/361
f 339/393/339 82/417/82 354/418/354
f 308/419/308 353/395/353 368/415/368
f 347/396/347 346/391/346 361/416/361 362/420/362
f 340/397/340 339/393/339 354/418/354 355/421/355
f 348/398/348 347/396/347 362/420/362 363/422/363
f 341/399/341 340/397/340 355/421/355 356/423/356
f 349/400/349 348/398/348 363/422/363 364/407/364
f 342/401/342 341/399/341 356/423/356 357/409/357
f 354/424/354 82/425/82 369/426/369
f 308/427/308 368/428/368 383/429/383
f 362/430/362 361/431/361 376/432/376 377/433/377
f 355/434/355 354/424/354 369/426/369 370/435/370
f 363/436/363 362/430/362 377/433/377 378/437/378
f 356/438/356 355/434/355 370/435/370 371/439/371
f 364/440/364 363/436/363 378/437/378 379/441/379
f 357/442/357 356/438/356 371/439/371 372/443/372
f 365/444/365 364/440/364 379/441/379 380/445/380
f 358/446/358 357/442/357 372/443/372 373/447/373
f 366/448/366 365/444/365 380/445/380 381/449/381
f 359/450/359 358/446/358 373/447/373 374/451/374
f 367/452/367 366/448/366 381/449/381 382/453/382
f 360/454/360 359/450/359 374/451/374 375/455/375
f 368/428/368 367/452/367 382/453/382 383/429/383
f 361/431/361 360/454/360 375/455/375 376/432/376
f 373/447/373 372/443/372 387/456/387 388/457/388
f 381/449/381 380/445/380 395/458/395 396/459/396
f 374/451/374 373/447/373 388/457/388 389/460/389
f 382/453/382 381/449/381 396/459/396 397/461/397
f 375/455/375 374/451/374 389/460/389 390/462/390
f 383/429/383 382/453/382 397/461/397 398/463/398
f 376/432/376 375/455/375 390/462/390 391/464/391
f 369/426/369 82/465/82 384/466/384
f 308/467/308 383/429/383 398/463/398
f 377/433/377 376/432/376 391/464/391 392/468/392
f 370/435/370 369/426/369 384/466/384 385/469/385
f 378/437/378 377/433/377 392/468/392 393/470/393
f 371/439/371 370/435/370 385/469/385 386/471/386
f 379/441/379 378/437/378 393/470/393 394/472/394
f 372/443/372 371/439/371 386/471/386 387/456/387
f 380/445/380 379/441/379 394/472/394 395/458/395
f 392/468/392 391/464/391 406/473/406 407/474/407
f 385/469/385 384/466/384 399/475/399 400/476/400
f 393/470/393 392/468/392 407/474/407 408/477/408
f 386/471/386 385/469/385 400/476/400 401/478/401
f 394/472/394 393/470/393 408/477/408 409/479/409
f 387/456/387 386/471/386 401/478/401 402/480/402
f 395/458/395 394/472/394 409/479/409 410/481/410
f 388/457/388 387/456/387 402/480/402 403/482/403
f 396/459/396 395/458/395 410/481/410 411/483/411
f 389/460/389 388/457/388 403/482/403 404/484/404
f 397/461/397 396/459/396 411/483/411 412/485/412
f 390/462/390 389/460/389 404/484/404 405/486/405
f 398/463/398 397/461/397 412/485/412 413/487/413
f 391/464/391 390/462/390 405/486/405 406/473/406
f 384/466/384 82/488/82 399/475/399
f 308/489/308 398/463/398 413/487/413
f 411/483/411 410/481/410 425/490/425 426/491/426
f 404/484/404 403/482/403 418/492/418 419/493/419
f 412/485/412 411/483/411 426/491/426 427/494/427
f 405/486/405 404/484/404 419/493/419 420/495/420
f 413/487/413 412/485/412 427/494/427 428/496/428
f 406/473/406 405/486/405 420/495/420 421/497/421
f 399/475/399 82/498/82 414/499/414
f 308/500/308 413/487/413 428/496/428
f 407/474/407 406/473/406 421/497/421 422/501/422
f 400/476/400 399/475/399 414/499/414 415/502/415
f 408/477/408 407/474/407 422/501/422 423/503/423
f 401/478/401 400/476/400 415/502/415 416/504/416
f 409/479/409 408/477/408 423/503/423 424/505/424
f 402/480/402 401/478/401 416/504/416 417/506/417
f 410/481/410 409/479/409 424/505/424 425/490/425
f 403/482/403 402/480/402 417/506/417 418/492/418
f 423/503/423 422/501/422 437/507/437 438/508/438
f 416/504/416 415/502/415 430/509/430 431/510/431
f 424/505/424 423/503/423 438/508/438 439/511/439
f 417/506/417 416/504/416 431/510/431 432/512/432
f 425/490/425 424/505/424 439/511/439 440/513/440
f 418/492/418 417/506/417 432/512/432 433/514/433
f 426/491/426 425/490/425 440/513/440 441/515/441
f 419/493/419 418/492/418 433/514/433 434/516/434
f 427/494/427 426/491/426 441/515/441 442/517/442
f 420/495/420 419/493/419 434/516/434 435/518/435
f 428/496/428 427/494/427 442/517/442 443/519/443
f 421/497/421 420/495/420 435/518/435 436/520/436
f 414/499/414 82/521/82 429/522/429
f 308/523/308 428/496/428 443/519/443
f 422/501/422 421/497/421 436/520/436 437/507/437
f 415/502/415 414/499/414 429/522/429 430/509/430
f 442/517/442 441/515/441 456/524/456 457/525/457
f 435/518/435 434/516/434 449/526/449 450/527/450
f 443/519/443 442/517/442 457/525/457 458/528/458
f 436/520/436 435/518/435 450/527/450 451/529/451
f 429/522/429 82/530/82 444/531/444
f 308/532/308 443/519/443 458/528/458
f 437/507/437 436/520/436 451/529/451 452/533/452
f 430/509/430 429/522/429 444/531/444 445/534/445
f 438/508/438 437/507/437 452/533/452 453/535/453
f 431/510/431 430/509/430 445/534/445 446/536/446
f 439/511/439 438/508/438 453/535/453 454/537/454
f 432/512/432 431/510/431 446/536/446 447/538/447
f 440/513/440 439/511/439 454/537/454 455/539/455
f 433/514/433 432/512/432 447/538/447 448/540/448
f 441/515/441 440/513/440 455/539/455 456/524/456
f 434/516/434 433/514/433 448/540/448 449/526/449
f 446/536/446 445/534/445 460/541/460 461/542/461
f 454/537/454 453/535/453 468/543/468 469/544/469
f 447/538/447 446/536/446 461/542/461 462/545/462
f 455/539/455 454/537/454 469/544/469 470/546/470
f 448/540/448 447/538/447 462/545/462 463/547/463
f 456/524/456 455/539/455 470/546/470 471/548/471
f 449/526/449 448/540/448 463/547/463 464/549/464
f 457/525/457 456/524/456 471/548/471 472/550/472
f 450/527/450 449/526/449 464/549/464 465/551/465
f 458/528/458 457/525/457 472/550/472 473/552/473
f 451/529/451 450/527/450 465/551/465 466/553/466
f 444/531/444 82/554/82 459/555/459
f 308/556/308 458/528/458 473/552/473
f 452/533/452 451/529/451 466/553/466 467/557/467
f 445/534/445 444/531/444 459/555/459 460/541/460
f 453/535/453 452/533/452 467/557/467 468/543/468
f 465/551/465 464/549/464 477/6/477 3/5/3
f 473/552/473 472/550/472 481/1/481 482/9/482
f 466/553/466 465/551/465 3/5/3 4/11/4
f 459/555/459 82/558/82 474/13/474
f 308/559/308 473/552/473 482/9/482
f 467/557/467 466/553/466 4/11/4 5/17/5
f 460/541/460 459/555/459 474/13/474 475/19/475
f 468/543/468 467/557/467 5/17/5 478/21/478
f 461/542/461 460/541/460 475/19/475 1/23/1
f 469/544/469 468/543/468 478/21/478 6/25/6
f 462/545/462 461/542/461 1/23/1 476/27/476
f 470/546/470 469/544/469 6/25/6 479/29/479
f 463/547/463 462/545/462 476/27/476 2/31/2
f 471/548/471 470/546/470 479/29/479 480/2/480
f 464/549/464 463/547/463 2/31/2 477/6/477
f 472/550/472 471/548/471 480/2/480 481/1/481
