# Blender 4.5.0
# www.blender.org
mtllib terrain.mtl
o Plane
v -100.000000 30.047577 100.000000
v 100.000000 10.476778 100.000000
v -100.000000 25.440512 -100.000000
v 100.000000 0.635681 -100.000000
v -100.000000 29.256075 0.000000
v 0.000000 13.418862 100.000000
v 100.000000 20.728552 0.000000
v 0.000000 17.550262 -100.000000
v 0.000000 0.000000 0.000000
v -100.000000 27.605421 9.090909
v -100.000000 25.032791 18.181818
v -100.000000 22.357494 27.272728
v -100.000000 20.449013 36.363636
v -100.000000 20.326138 45.454548
v -100.000000 22.508942 54.545456
v -100.000000 30.047577 63.636364
v -100.000000 31.731710 72.727272
v -100.000000 32.933762 81.818184
v -100.000000 31.731707 90.909088
v 9.090909 14.841494 100.000000
v 18.181818 14.208928 100.000000
v 27.272728 12.038961 100.000000
v 36.363636 12.188552 100.000000
v 45.454548 16.578783 100.000000
v 54.545456 18.844812 100.000000
v 63.636364 20.571165 100.000000
v 72.727272 21.967571 100.000000
v 81.818184 20.382578 100.000000
v 90.909088 16.143503 100.000000
v 100.000000 20.728552 -9.090909
v 100.000000 18.906189 -18.181818
v 100.000000 14.129066 -27.272728
v 100.000000 18.906183 -36.363636
v 100.000000 20.728552 -45.454548
v 100.000000 18.906189 -54.545456
v 100.000000 14.129068 -63.636364
v 100.000000 8.037382 -72.727272
v 100.000000 4.548599 -81.818184
v 100.000000 2.632281 -90.909088
v -9.090909 16.261152 -100.000000
v -18.181818 16.479841 -100.000000
v -27.272728 18.111809 -100.000000
v -36.363636 21.865566 -100.000000
v -45.454548 24.751764 -100.000000
v -54.545456 24.650137 -100.000000
v -63.636364 21.659338 -100.000000
v -72.727272 18.385426 -100.000000
v -81.818184 19.326790 -100.000000
v -90.909088 23.851131 -100.000000
v -100.000000 27.196207 -90.909088
v -100.000000 27.865225 -81.818184
v -100.000000 27.196207 -72.727272
v -100.000000 25.300806 -63.636364
v -100.000000 22.091610 -54.545448
v -100.000000 20.603565 -45.454540
v -100.000000 21.764595 -36.363632
v -100.000000 24.567451 -27.272724
v -100.000000 27.335962 -18.181816
v -100.000000 29.213356 -9.090908
v -90.909088 28.613865 100.000000
v -81.818184 21.165430 100.000000
v -72.727272 14.137594 100.000000
v -63.636364 15.461193 100.000000
v -54.545448 12.633720 100.000000
v -45.454540 5.629005 100.000000
v -36.363632 12.652084 100.000000
v -27.272724 16.218855 100.000000
v -18.181816 13.868882 100.000000
v -9.090908 6.930182 100.000000
v 100.000000 13.686648 90.909088
v 100.000000 14.881211 81.818184
v 100.000000 13.686648 72.727272
v 100.000000 12.437793 63.636364
v 100.000000 13.799642 54.545448
v 100.000000 16.313351 45.454540
v 100.000000 18.995228 36.363632
v 100.000000 20.728552 27.272724
v 100.000000 20.728552 18.181816
v 100.000000 20.728552 9.090908
v 90.909088 3.846391 -100.000000
v 81.818184 8.037375 -100.000000
v 72.727272 11.438072 -100.000000
v 63.636364 12.738283 -100.000000
v 54.545448 11.540977 -100.000000
v 45.454540 10.858974 -100.000000
v 36.363632 11.768599 -100.000000
v 27.272724 13.985409 -100.000000
v 18.181816 17.521986 -100.000000
v 9.090908 19.155067 -100.000000
v 0.000000 0.000000 -9.090909
v 0.000000 0.000000 -18.181818
v 0.000000 0.000000 -27.272728
v 0.000000 0.000000 -36.363636
v 0.000000 0.285385 -45.454548
v 0.000000 3.213247 -54.545456
v 0.000000 8.108430 -63.636364
v 0.000000 13.819724 -72.727272
v 0.000000 18.246956 -81.818184
v 0.000000 19.617733 -90.909088
v 0.000000 20.992264 90.909088
v 0.000000 23.721638 81.818184
v 0.000000 20.992260 72.727272
v 0.000000 13.418855 63.636364
v 0.000000 2.296592 54.545448
v 0.000000 0.000000 45.454540
v 0.000000 0.000000 36.363632
v 0.000000 0.000000 27.272724
v 0.000000 0.000000 18.181816
v 0.000000 0.000000 9.090908
v -9.090909 0.000000 0.000000
v -18.181818 0.000000 0.000000
v -27.272728 0.000000 0.000000
v -36.363636 0.000000 0.000000
v -45.454548 0.092992 0.000000
v -54.545456 2.028744 0.000000
v -63.636364 5.364819 0.000000
v -72.727272 10.638919 0.000000
v -81.818184 20.070549 0.000000
v -90.909088 27.760666 0.000000
v 90.909088 27.115499 0.000000
v 81.818184 29.727137 0.000000
v 72.727272 27.115492 0.000000
v 63.636364 20.728550 0.000000
v 54.545448 12.738278 0.000000
v 45.454540 5.316664 0.000000
v 36.363632 0.635679 0.000000
v 27.272724 0.000000 0.000000
v 18.181816 0.000000 0.000000
v 9.090908 0.000000 0.000000
v 9.090909 21.481552 90.909088
v 9.090909 25.023582 81.818184
v 9.090909 21.476892 72.727272
v 9.090909 14.514213 63.636364
v 9.090909 3.464656 54.545448
v 9.090909 0.000000 45.454540
v 9.090909 0.000000 36.363632
v 9.090909 0.000000 27.272724
v 9.090909 0.000000 18.181816
v 9.090908 0.000000 9.090908
v 18.181818 19.437708 90.909088
v 18.181818 20.830845 81.818184
v 18.181818 18.230469 72.727272
v 18.181818 11.662038 63.636364
v 18.181818 2.182798 54.545448
v 18.181818 0.000000 45.454540
v 18.181818 0.000000 36.363632
v 18.181818 0.000000 27.272724
v 18.181818 0.000000 18.181816
v 18.181816 0.000000 9.090908
v 27.272728 18.659559 90.909088
v 27.272728 19.132244 81.818184
v 27.272728 15.478123 72.727272
v 27.272728 6.539244 63.636364
v 27.272728 0.218461 54.545448
v 27.272728 0.000000 45.454540
v 27.272728 0.000000 36.363632
v 27.272728 0.000000 27.272724
v 27.272728 0.000000 18.181816
v 27.272724 0.000000 9.090908
v 36.363636 17.590372 90.909088
v 36.363636 17.552376 81.818184
v 36.363636 12.611877 72.727272
v 36.363636 5.808875 63.636364
v 36.363636 2.274063 54.545448
v 36.363636 0.340717 45.454540
v 36.363636 0.403983 36.363632
v 36.363636 0.635680 27.272724
v 36.363636 0.635680 18.181816
v 36.363632 0.635679 9.090908
v 45.454548 20.710991 90.909088
v 45.454548 20.472088 81.818184
v 45.454548 16.661913 72.727272
v 45.454548 11.046047 63.636364
v 45.454548 6.751401 54.545448
v 45.454548 4.872341 45.454540
v 45.454548 4.637741 36.363632
v 45.454544 5.316666 27.272724
v 45.454544 5.316666 18.181816
v 45.454544 5.316666 9.090908
v 54.545456 23.086498 90.909088
v 54.545456 23.742329 81.818184
v 54.545456 21.061104 72.727272
v 54.545456 16.230940 63.636364
v 54.545456 13.489199 54.545448
v 54.545456 12.626658 45.454540
v 54.545456 12.352632 36.363632
v 54.545456 12.738283 27.272724
v 54.545456 12.738283 18.181816
v 54.545448 12.738278 9.090908
v 63.636364 25.542456 90.909088
v 63.636364 27.410368 81.818184
v 63.636364 25.459436 72.727272
v 63.636364 21.011301 63.636364
v 63.636364 19.609627 54.545448
v 63.636364 20.276922 45.454540
v 63.636364 20.709635 36.363632
v 63.636364 20.728550 27.272724
v 63.636364 20.728550 18.181816
v 63.636364 20.728550 9.090908
v 72.727272 27.410368 90.909088
v 72.727272 29.585537 81.818184
v 72.727272 27.410364 72.727272
v 72.727272 23.290852 63.636364
v 72.727272 23.247993 54.545448
v 72.727272 25.426188 45.454540
v 72.727272 26.940151 36.363632
v 72.727272 27.116898 27.272724
v 72.727272 27.115492 18.181816
v 72.727272 27.115492 9.090908
v 81.818184 25.459442 90.909088
v 81.818184 27.410364 81.818184
v 81.818184 25.459433 72.727272
v 81.818184 22.486603 63.636364
v 81.818184 23.600637 54.545448
v 81.818184 26.617882 45.454540
v 81.818184 28.890423 36.363632
v 81.818184 29.727137 27.272724
v 81.818184 29.727137 18.181816
v 81.818184 29.727137 9.090908
v 90.909088 20.382578 90.909088
v 90.909088 21.967571 81.818184
v 90.909088 20.382578 72.727272
v 90.909088 18.692837 63.636364
v 90.909088 20.320124 54.545448
v 90.909088 23.283173 45.454540
v 90.909088 25.708420 36.363632
v 90.909088 27.115499 27.272724
v 90.909088 27.115499 18.181816
v 90.909088 27.115499 9.090908
v -90.909088 29.467100 90.909088
v -90.909088 30.667860 81.818184
v -90.909088 29.467106 72.727272
v -90.909088 28.613865 63.636364
v -90.909088 20.145792 54.545448
v -90.909088 16.744509 45.454540
v -90.909088 17.049540 36.363632
v -90.909088 19.512133 27.272724
v -90.909088 22.752750 18.181816
v -90.909088 25.775618 9.090908
v -81.818184 26.421404 90.909088
v -81.818184 26.317305 81.818184
v -81.818184 26.421404 72.727272
v -81.818184 21.165422 63.636364
v -81.818184 11.289687 54.545448
v -81.818184 9.106887 45.454540
v -81.818184 9.332800 36.363632
v -81.818184 11.686363 27.272724
v -81.818184 15.146359 18.181816
v -81.818184 18.196812 9.090908
v -72.727272 24.933489 90.909088
v -72.727272 27.767429 81.818184
v -72.727272 24.933481 72.727272
v -72.727272 14.137587 63.636364
v -72.727272 4.256959 54.545448
v -72.727272 2.074160 45.454540
v -72.727272 2.074184 36.363632
v -72.727272 3.296767 27.272724
v -72.727272 6.124640 18.181816
v -72.727272 8.926759 9.090908
v -63.636364 28.318077 90.909088
v -63.636364 33.823830 81.818184
v -63.636364 28.318066 72.727272
v -63.636364 15.461188 63.636364
v -63.636364 3.464656 54.545448
v -63.636364 0.000000 45.454540
v -63.636364 0.000000 36.363632
v -63.636364 0.181492 27.272724
v -63.636364 1.680419 18.181816
v -63.636364 3.793617 9.090908
v -54.545448 24.038054 90.909088
v -54.545448 28.901958 81.818184
v -54.545448 24.038042 72.727272
v -54.545448 12.633717 63.636364
v -54.545448 2.207350 54.545448
v -54.545448 0.000000 45.454540
v -54.545448 0.000000 36.363632
v -54.545448 0.000000 27.272724
v -54.545448 0.181491 18.181816
v -54.545448 1.088343 9.090908
v -45.454540 13.401297 90.909088
v -45.454540 16.879915 81.818184
v -45.454540 13.401289 72.727272
v -45.454540 5.629003 63.636364
v -45.454540 0.162196 54.545448
v -45.454540 0.000000 45.454540
v -45.454540 0.000000 36.363632
v -45.454544 0.000000 27.272724
v -45.454544 0.000000 18.181816
v -45.454544 0.000000 9.090908
v -36.363632 24.207636 90.909088
v -36.363632 29.025299 81.818184
v -36.363632 24.207628 72.727272
v -36.363632 12.652077 63.636364
v -36.363632 2.207353 54.545448
v -36.363632 0.000000 45.454540
v -36.363632 0.000000 36.363632
v -36.363632 0.000000 27.272724
v -36.363636 0.000000 18.181816
v -36.363636 0.000000 9.090908
v -27.272724 29.209179 90.909088
v -27.272724 34.696671 81.818184
v -27.272724 29.209169 72.727272
v -27.272724 16.218849 63.636364
v -27.272724 3.464656 54.545448
v -27.272724 0.000000 45.454540
v -27.272724 0.000000 36.363632
v -27.272724 0.000000 27.272724
v -27.272724 0.000000 18.181816
v -27.272724 0.000000 9.090908
v -18.181816 25.684660 90.909088
v -18.181816 29.862722 81.818184
v -18.181816 25.684652 72.727272
v -18.181816 13.868873 63.636364
v -18.181816 2.296594 54.545448
v -18.181816 0.000000 45.454540
v -18.181816 0.000000 36.363632
v -18.181816 0.000000 27.272724
v -18.181818 0.000000 18.181816
v -18.181818 0.000000 9.090908
v -9.090908 15.800002 90.909088
v -9.090908 18.872135 81.818184
v -9.090908 15.799996 72.727272
v -9.090908 6.930179 63.636364
v -9.090908 0.282565 54.545448
v -9.090908 0.000000 45.454540
v -9.090908 0.000000 36.363632
v -9.090908 0.000000 27.272724
v -9.090909 0.000000 18.181816
v -9.090909 0.000000 9.090908
v -90.909088 27.898106 -9.090909
v -90.909088 25.861109 -18.181818
v -90.909088 22.761768 -27.272728
v -90.909088 19.713495 -36.363636
v -90.909088 18.697866 -45.454548
v -90.909088 20.238150 -54.545456
v -90.909088 23.765839 -63.636364
v -90.909088 26.080441 -72.727272
v -90.909088 27.009340 -81.818184
v -90.909088 26.080441 -90.909088
v -81.818184 20.159342 -9.090909
v -81.818184 18.429501 -18.181818
v -81.818184 15.618701 -27.272728
v -81.818184 12.765577 -36.363636
v -81.818184 11.972836 -45.454548
v -81.818184 14.023884 -54.545456
v -81.818184 19.326786 -63.636364
v -81.818184 23.802809 -72.727272
v -81.818184 25.609940 -81.818184
v -81.818184 23.802814 -90.909088
v -72.727272 10.856623 -9.090909
v -72.727272 9.621352 -18.181818
v -72.727272 7.415716 -27.272728
v -72.727272 4.959987 -36.363636
v -72.727272 4.995623 -45.454548
v -72.727272 10.469115 -54.545456
v -72.727272 18.385424 -63.636364
v -72.727272 24.602238 -72.727272
v -72.727272 26.920874 -81.818184
v -72.727272 24.602243 -90.909088
v -63.636364 5.745451 -9.090909
v -63.636364 4.950822 -18.181818
v -63.636364 3.343711 -27.272728
v -63.636364 1.546768 -36.363636
v -63.636364 4.024065 -45.454548
v -63.636364 12.217477 -54.545456
v -63.636364 21.659336 -63.636364
v -63.636364 28.574144 -72.727272
v -63.636364 31.046795 -81.818184
v -63.636364 28.574150 -90.909088
v -54.545456 2.413157 -9.090909
v -54.545456 2.028744 -18.181818
v -54.545456 1.088344 -27.272728
v -54.545456 0.661425 -36.363636
v -54.545456 5.412977 -45.454548
v -54.545456 14.679045 -54.545456
v -54.545456 24.650133 -63.636364
v -54.545456 31.928686 -72.727272
v -54.545456 34.596996 -81.818184
v -54.545456 31.928692 -90.909088
v -45.454548 0.181492 -9.090909
v -45.454548 0.092992 -18.181818
v -45.454548 0.000000 -27.272728
v -45.454548 0.735152 -36.363636
v -45.454548 6.148633 -45.454548
v -45.454548 14.971912 -54.545456
v -45.454548 24.751760 -63.636364
v -45.454548 32.255138 -72.727272
v -45.454548 35.208126 -81.818184
v -45.454548 32.255146 -90.909088
v -36.363636 0.000000 -9.090909
v -36.363636 0.000000 -18.181818
v -36.363636 0.000000 -27.272728
v -36.363636 0.467198 -36.363636
v -36.363636 5.260373 -45.454548
v -36.363636 13.227923 -54.545456
v -36.363636 21.865562 -63.636364
v -36.363636 28.706619 -72.727272
v -36.363636 31.379747 -81.818184
v -36.363636 28.706625 -90.909088
v -27.272728 0.000000 -9.090909
v -27.272728 0.000000 -18.181818
v -27.272728 0.000000 -27.272728
v -27.272728 0.028291 -36.363636
v -27.272728 3.044183 -45.454548
v -27.272728 9.295081 -54.545456
v -27.272728 16.394793 -63.636364
v -27.272728 22.182100 -72.727272
v -27.272728 24.633648 -81.818184
v -27.272728 23.104044 -90.909088
v -18.181818 0.000000 -9.090909
v -18.181818 0.000000 -18.181818
v -18.181818 0.000000 -27.272728
v -18.181818 0.000000 -36.363636
v -18.181818 0.735154 -45.454548
v -18.181818 4.854689 -54.545456
v -18.181818 11.542002 -63.636364
v -18.181818 17.502535 -72.727272
v -18.181818 20.681574 -81.818184
v -18.181818 20.353527 -90.909088
v -9.090909 0.000000 -9.090909
v -9.090909 0.000000 -18.181818
v -9.090909 0.000000 -27.272728
v -9.090909 0.000000 -36.363636
v -9.090909 0.017282 -45.454548
v -9.090909 2.592144 -54.545456
v -9.090909 8.641855 -63.636364
v -9.090909 14.905186 -72.727272
v -9.090909 18.944702 -81.818184
v -9.090909 19.462364 -90.909088
v 9.090908 0.000000 -9.090909
v 9.090908 0.000000 -18.181818
v 9.090908 0.000000 -27.272728
v 9.090908 0.000000 -36.363636
v 9.090908 0.449062 -45.454548
v 9.090908 3.755830 -54.545456
v 9.090908 8.998648 -63.636364
v 9.090908 14.643173 -72.727272
v 9.090908 19.155071 -81.818184
v 9.090908 21.000000 -90.909088
v 18.181816 0.000000 -9.090909
v 18.181816 0.000000 -18.181818
v 18.181816 0.000000 -27.272728
v 18.181816 0.000000 -36.363636
v 18.181816 0.285385 -45.454548
v 18.181816 3.237705 -54.545456
v 18.181816 8.482377 -63.636364
v 18.181816 13.985412 -72.727272
v 18.181816 17.922895 -81.818184
v 18.181816 19.179520 -90.909088
v 27.272724 0.000000 -9.090909
v 27.272724 0.000000 -18.181818
v 27.272724 0.000000 -27.272728
v 27.272724 0.000000 -36.363636
v 27.272724 0.652792 -45.454548
v 27.272724 4.459642 -54.545456
v 27.272724 10.048410 -63.636364
v 27.272724 14.954329 -72.727272
v 27.272724 17.595905 -81.818184
v 27.272724 17.163988 -90.909088
v 36.363632 0.635679 -9.090909
v 36.363632 0.403982 -18.181818
v 36.363632 0.024463 -27.272728
v 36.363632 0.635681 -36.363636
v 36.363632 3.846389 -45.454548
v 36.363632 8.355265 -54.545456
v 36.363632 13.461942 -63.636364
v 36.363632 17.107204 -72.727272
v 36.363632 18.187128 -81.818184
v 36.363632 16.312786 -90.909088
v 45.454540 5.316664 -9.090909
v 45.454540 4.548594 -18.181818
v 45.454540 2.632274 -27.272728
v 45.454540 4.548594 -36.363636
v 45.454540 8.037378 -45.454548
v 45.454540 14.129065 -54.545456
v 45.454540 18.913963 -63.636364
v 45.454540 21.141996 -72.727272
v 45.454540 20.292500 -81.818184
v 45.454540 16.653496 -90.909088
v 54.545448 12.738278 -9.090909
v 54.545448 11.438066 -18.181818
v 54.545448 8.037368 -27.272728
v 54.545448 11.438066 -36.363636
v 54.545448 12.738278 -45.454548
v 54.545448 18.906183 -54.545456
v 54.545448 24.803740 -63.636364
v 54.545448 27.115492 -72.727272
v 54.545448 24.803738 -81.818184
v 54.545448 18.913971 -90.909088
v 63.636364 20.728550 -9.090909
v 63.636364 18.906183 -18.181818
v 63.636364 14.129062 -27.272728
v 63.636364 18.906181 -36.363636
v 63.636364 20.728550 -45.454548
v 63.636364 20.728552 -54.545456
v 63.636364 27.115499 -63.636364
v 63.636364 29.727137 -72.727272
v 63.636364 27.115492 -81.818184
v 63.636364 20.728552 -90.909088
v 72.727272 27.115492 -9.090909
v 72.727272 24.803740 -18.181818
v 72.727272 18.906181 -27.272728
v 72.727272 24.803740 -36.363636
v 72.727272 27.115492 -45.454548
v 72.727272 24.803738 -54.545456
v 72.727272 24.803745 -63.636364
v 72.727272 27.115499 -72.727272
v 72.727272 24.803738 -81.818184
v 72.727272 18.906189 -90.909088
v 81.818184 29.727137 -9.090909
v 81.818184 27.115499 -18.181818
v 81.818184 20.728550 -27.272728
v 81.818184 27.115492 -36.363636
v 81.818184 29.727137 -45.454548
v 81.818184 27.115499 -54.545456
v 81.818184 20.728552 -63.636364
v 81.818184 20.728550 -72.727272
v 81.818184 18.906181 -81.818184
v 81.818184 14.129066 -90.909088
v 90.909088 27.115499 -9.090909
v 90.909088 24.803745 -18.181818
v 90.909088 18.906183 -27.272728
v 90.909088 24.803745 -36.363636
v 90.909088 27.115499 -45.454548
v 90.909088 24.803745 -54.545456
v 90.909088 18.906189 -63.636364
v 90.909088 12.738287 -72.727272
v 90.909088 11.438075 -81.818184
v 90.909088 8.037382 -90.909088
vn 0.1975 0.9709 0.1355
vn 0.5325 0.7832 0.3209
vn 0.1438 0.9667 -0.2119
vn 0.4093 0.8637 -0.2939
vn 0.1653 0.9813 0.0987
vn -0.2855 0.7314 0.6194
vn 0.5749 0.8182 -0.0000
vn -0.1166 0.9628 -0.2437
vn -0.0000 1.0000 -0.0000
vn 0.1936 0.9515 0.2392
vn 0.2341 0.9270 0.2930
vn 0.2868 0.9214 0.2624
vn 0.3388 0.9325 0.1249
vn 0.3316 0.9338 -0.1345
vn 0.2271 0.8411 -0.4908
vn 0.1846 0.8978 -0.3998
vn 0.2192 0.9668 -0.1313
vn 0.2418 0.9703 -0.0000
vn 0.2192 0.9668 0.1313
vn 0.0184 0.8128 0.5823
vn 0.1288 0.8306 0.5418
vn 0.0865 0.8327 0.5469
vn -0.1382 0.8499 0.5085
vn -0.2905 0.8578 0.4240
vn -0.2142 0.8798 0.4242
vn -0.1788 0.8665 0.4660
vn 0.0066 0.8666 0.4989
vn 0.3042 0.8370 0.4548
vn 0.4826 0.7971 0.3630
vn 0.5646 0.8198 -0.0962
vn 0.5006 0.7975 -0.3366
vn 0.5063 0.8624 -0.0000
vn 0.5006 0.7975 0.3366
vn 0.5598 0.8286 -0.0000
vn 0.4204 0.7652 -0.4875
vn 0.4760 0.8072 -0.3490
vn 0.5358 0.8132 -0.2272
vn 0.4737 0.8391 -0.2675
vn -0.0088 0.9469 -0.3213
vn 0.1328 0.9086 -0.3959
vn 0.2976 0.8342 -0.4644
vn 0.3413 0.7663 -0.5443
vn 0.1341 0.7736 -0.6193
vn -0.1505 0.7735 -0.6157
vn -0.2891 0.7667 -0.5732
vn -0.1450 0.8302 -0.5383
vn 0.1585 0.8881 -0.4315
vn 0.2435 0.9305 -0.2737
vn 0.1257 0.9808 -0.1491
vn 0.1078 0.9942 -0.0000
vn 0.1241 0.9801 0.1548
vn 0.1563 0.9467 0.2817
vn 0.1864 0.9487 0.2556
vn 0.2075 0.9780 0.0229
vn 0.2053 0.9555 -0.2119
vn 0.1831 0.9357 -0.3016
vn 0.1587 0.9539 -0.2546
vn 0.1515 0.9833 -0.1011
vn 0.3472 0.9134 0.2123
vn 0.3981 0.7715 0.4963
vn 0.0535 0.6697 0.7407
vn 0.0440 0.6039 0.7959
vn 0.4341 0.5865 0.6838
vn -0.0013 0.6866 0.7270
vn -0.4539 0.5780 0.6781
vn -0.0486 0.5925 0.8041
vn 0.3948 0.5797 0.7128
vn 0.0472 0.7028 0.7098
vn 0.5664 0.7912 0.2306
vn 0.6041 0.7969 -0.0000
vn 0.5869 0.7998 -0.1260
vn 0.5776 0.8164 0.0011
vn 0.5749 0.7981 0.1805
vn 0.5826 0.7802 0.2279
vn 0.5837 0.7912 0.1826
vn 0.5784 0.8126 0.0719
vn 0.4254 0.8296 -0.3616
vn 0.3986 0.7718 -0.4954
vn 0.2460 0.7594 -0.6023
vn 0.0024 0.7628 -0.6466
vn -0.1279 0.7819 -0.6101
vn -0.0520 0.8397 -0.5405
vn 0.0876 0.8915 -0.4445
vn 0.2151 0.9219 -0.3224
vn 0.2352 0.9473 -0.2176
vn 0.0126 0.9798 -0.1998
vn -0.0059 0.9999 0.0143
vn -0.0271 0.9852 0.1694
vn -0.0390 0.9128 0.4066
vn -0.0199 0.8538 0.5202
vn -0.0006 0.8725 0.4886
vn -0.0226 0.9565 0.2910
vn -0.0844 0.9950 -0.0534
vn -0.2725 0.8463 0.4577
vn -0.2872 0.9579 -0.0001
vn -0.2688 0.8458 -0.4609
vn -0.2328 0.6994 -0.6757
vn -0.1550 0.8540 -0.4967
vn -0.0429 0.9929 -0.1113
vn 0.0051 1.0000 0.0025
vn 0.1023 0.9945 0.0229
vn 0.2623 0.9629 0.0633
vn 0.4148 0.9055 0.0893
vn 0.6142 0.7847 0.0840
vn 0.6783 0.7304 0.0801
vn 0.4128 0.9059 0.0946
vn 0.4314 0.9021 -0.0000
vn -0.4314 0.9021 -0.0000
vn -0.6184 0.7858 -0.0000
vn -0.6464 0.7630 -0.0000
vn -0.5481 0.8364 -0.0000
vn -0.2693 0.9631 -0.0000
vn -0.0349 0.9994 -0.0000
vn 0.0696 0.8958 0.4389
vn 0.1241 0.9922 -0.0130
vn 0.1197 0.8782 -0.4631
vn 0.0700 0.7284 -0.6816
vn 0.0209 0.8267 -0.5623
vn 0.0015 0.9885 -0.1513
vn 0.1792 0.9119 0.3691
vn 0.2718 0.9599 -0.0687
vn 0.2908 0.8395 -0.4589
vn 0.2496 0.7190 -0.6487
vn 0.1615 0.8672 -0.4710
vn 0.0438 0.9932 -0.1075
vn 0.1188 0.9420 0.3140
vn 0.1849 0.9704 -0.1554
vn 0.2343 0.8293 -0.5073
vn 0.1709 0.7793 -0.6029
vn 0.0485 0.9378 -0.3438
vn -0.0161 0.9980 -0.0611
vn -0.0245 0.9997 0.0041
vn -0.0317 0.9995 0.0032
vn -0.1299 0.9534 0.2723
vn -0.0769 0.9714 -0.2246
vn -0.0966 0.8414 -0.5317
vn -0.1930 0.8371 -0.5118
vn -0.2714 0.9173 -0.2912
vn -0.2628 0.9618 -0.0766
vn -0.2478 0.9687 0.0134
vn -0.2618 0.9650 0.0148
vn -0.3004 0.9289 0.2166
vn -0.3339 0.9251 -0.1806
vn -0.3765 0.8227 -0.4260
vn -0.4457 0.7945 -0.4124
vn -0.5093 0.8258 -0.2424
vn -0.5368 0.8395 -0.0844
vn -0.5429 0.8396 0.0151
vn -0.5471 0.8367 0.0227
vn -0.2642 0.9299 0.2557
vn -0.3509 0.9314 -0.0968
vn -0.3987 0.8461 -0.3538
vn -0.4660 0.8154 -0.3434
vn -0.5669 0.8081 -0.1600
vn -0.6341 0.7724 -0.0361
vn -0.6542 0.7563 0.0117
vn -0.6504 0.7594 0.0153
vn -0.2244 0.9194 0.3231
vn -0.2888 0.9571 -0.0247
vn -0.3073 0.8963 -0.3199
vn -0.3664 0.8868 -0.2818
vn -0.4719 0.8809 -0.0369
vn -0.5594 0.8268 0.0580
vn -0.6084 0.7930 0.0311
vn -0.6195 0.7850 0.0063
vn 0.0040 0.9342 0.3568
vn 0.0010 1.0000 -0.0010
vn -0.0162 0.9519 -0.3059
vn -0.0914 0.9733 -0.2105
vn -0.2077 0.9729 0.1020
vn -0.3083 0.9341 0.1799
vn -0.3819 0.9197 0.0909
vn -0.4221 0.9064 0.0160
vn 0.3269 0.8867 0.3269
vn 0.3587 0.9335 -0.0000
vn 0.3230 0.9139 -0.2458
vn 0.2518 0.9626 -0.1000
vn 0.1623 0.9665 0.1988
vn 0.1034 0.9608 0.2573
vn 0.0556 0.9862 0.1559
vn 0.0151 0.9989 0.0441
vn 0.5131 0.8180 0.2600
vn 0.5505 0.8349 -0.0000
vn 0.5254 0.8353 -0.1618
vn 0.4967 0.8677 -0.0198
vn 0.4666 0.8609 0.2028
vn 0.4592 0.8525 0.2497
vn 0.4526 0.8734 0.1797
vn 0.4365 0.8974 0.0642
vn 0.3266 0.9332 0.1500
vn 0.3084 0.9513 -0.0000
vn 0.3266 0.9332 -0.1500
vn 0.3416 0.8373 -0.4268
vn 0.4344 0.7673 -0.4718
vn 0.5136 0.8499 -0.1179
vn 0.5050 0.8549 0.1190
vn 0.4705 0.8453 0.2531
vn 0.4388 0.8530 0.2824
vn 0.4213 0.8778 0.2279
vn 0.3158 0.9049 0.2854
vn 0.1937 0.9811 -0.0000
vn 0.3158 0.9049 -0.2854
vn 0.4581 0.6882 -0.5626
vn 0.5772 0.6943 -0.4298
vn 0.6327 0.7687 -0.0938
vn 0.6387 0.7638 0.0932
vn 0.6465 0.7319 0.2151
vn 0.6529 0.7164 0.2459
vn 0.6652 0.7215 0.1921
vn -0.0580 0.8357 0.5461
vn -0.2439 0.9698 -0.0000
vn -0.0580 0.8357 -0.5461
vn 0.1735 0.6538 -0.7365
vn 0.3136 0.8103 -0.4950
vn 0.4054 0.9060 -0.1218
vn 0.4477 0.8923 0.0582
vn 0.4983 0.8498 0.1721
vn 0.5563 0.7980 0.2319
vn 0.5957 0.7807 0.1890
vn 0.0093 0.7855 0.6188
vn -0.0068 1.0000 -0.0000
vn 0.0093 0.7855 -0.6188
vn 0.0500 0.6173 -0.7851
vn 0.0906 0.8243 -0.5588
vn 0.1104 0.9828 -0.1479
vn 0.1275 0.9916 0.0211
vn 0.1887 0.9771 0.0979
vn 0.2879 0.9412 0.1766
vn 0.3735 0.9116 0.1717
vn 0.5052 0.6668 0.5479
vn 0.6012 0.7991 -0.0000
vn 0.5052 0.6668 -0.5479
vn 0.3384 0.6245 -0.7039
vn 0.1813 0.8595 -0.4778
vn 0.0446 0.9932 -0.1073
vn 0.0025 1.0000 0.0025
vn 0.0279 0.9992 0.0279
vn 0.0985 0.9921 0.0779
vn 0.1929 0.9762 0.0995
vn -0.0023 0.7726 0.6349
vn -0.0041 1.0000 -0.0000
vn -0.0023 0.7726 -0.6349
vn -0.0007 0.7301 -0.6833
vn -0.0001 0.9197 -0.3925
vn -0.0000 0.9979 -0.0646
vn 0.0199 0.9997 0.0149
vn 0.0598 0.9978 0.0278
vn -0.5291 0.6530 0.5420
vn -0.6307 0.7760 -0.0000
vn -0.5291 0.6530 -0.5420
vn -0.3533 0.6159 -0.7042
vn -0.1869 0.8569 -0.4804
vn -0.0446 0.9932 -0.1073
vn 0.0013 1.0000 0.0013
vn -0.0443 0.7740 0.6316
vn -0.0430 0.9991 -0.0000
vn -0.0443 0.7740 -0.6316
vn -0.0358 0.5989 -0.8000
vn -0.0142 0.8108 -0.5851
vn -0.0012 0.9884 -0.1516
vn 0.4757 0.6870 0.5493
vn 0.5750 0.8181 -0.0000
vn 0.4757 0.6870 -0.5493
vn 0.3067 0.6044 -0.7353
vn 0.1681 0.8455 -0.5068
vn 0.0429 0.9929 -0.1113
vn 0.1052 0.8083 0.5793
vn 0.1976 0.9803 -0.0000
vn 0.1052 0.8083 -0.5793
vn 0.0215 0.7081 -0.7058
vn 0.0029 0.9057 -0.4238
vn -0.0000 0.9975 -0.0702
vn 0.4048 0.9099 -0.0905
vn 0.4004 0.8857 -0.2349
vn 0.4031 0.8707 -0.2816
vn 0.4171 0.8882 -0.1929
vn 0.4148 0.9093 0.0328
vn 0.3626 0.8912 0.2724
vn 0.2757 0.9051 0.3238
vn 0.1930 0.9612 0.1972
vn 0.1527 0.9883 -0.0000
vn 0.1949 0.9616 -0.1933
vn 0.6758 0.7343 -0.0636
vn 0.6534 0.7354 -0.1797
vn 0.6297 0.7432 -0.2263
vn 0.6212 0.7703 -0.1438
vn 0.5760 0.8111 0.1020
vn 0.4304 0.8210 0.3750
vn 0.2583 0.8492 0.4605
vn 0.1102 0.9437 0.3118
vn 0.0432 0.9991 -0.0000
vn 0.1113 0.9439 -0.3107
vn 0.6073 0.7932 -0.0441
vn 0.5760 0.8033 -0.1514
vn 0.5356 0.8193 -0.2047
vn 0.4782 0.8744 -0.0819
vn 0.3370 0.8998 0.2772
vn 0.1265 0.8167 0.5630
vn -0.0718 0.7987 0.5974
vn -0.2099 0.8933 0.3973
vn -0.2702 0.9628 -0.0000
vn -0.2099 0.8933 -0.3973
vn 0.4124 0.9107 -0.0232
vn 0.3758 0.9188 -0.1208
vn 0.3117 0.9359 -0.1641
vn 0.1904 0.9806 0.0469
vn 0.0096 0.8894 0.4570
vn -0.1479 0.7251 0.6726
vn -0.2451 0.7297 0.6383
vn -0.3333 0.8456 0.4171
vn -0.3795 0.9252 -0.0000
vn -0.3333 0.8456 -0.4171
vn 0.2800 0.9600 -0.0055
vn 0.2467 0.9666 -0.0695
vn 0.1655 0.9835 -0.0733
vn 0.0420 0.9800 0.1943
vn -0.0669 0.8168 0.5731
vn -0.1037 0.6932 0.7132
vn -0.1275 0.7305 0.6709
vn -0.1729 0.8767 0.4489
vn -0.2005 0.9797 -0.0000
vn -0.1729 0.8767 -0.4489
vn 0.1200 0.9928 -0.0000
vn 0.1023 0.9945 -0.0229
vn 0.0600 0.9982 0.0055
vn 0.0224 0.9617 0.2733
vn 0.0213 0.8009 0.5984
vn 0.0587 0.7041 0.7077
vn 0.1063 0.7352 0.6694
vn 0.1447 0.8786 0.4552
vn 0.1596 0.9872 -0.0000
vn 0.1447 0.8786 -0.4552
vn 0.0075 1.0000 -0.0000
vn 0.0051 1.0000 -0.0025
vn 0.0110 0.9997 0.0220
vn 0.0584 0.9667 0.2490
vn 0.1423 0.8257 0.5458
vn 0.2308 0.7249 0.6491
vn 0.3265 0.7251 0.6063
vn 0.4260 0.8082 0.4065
vn 0.4707 0.8822 0.0081
vn 0.4028 0.8244 -0.3977
vn 0.0064 1.0000 0.0072
vn 0.0718 0.9850 0.1568
vn 0.2102 0.8823 0.4211
vn 0.3265 0.7587 0.5637
vn 0.4021 0.7352 0.5457
vn 0.4718 0.7955 0.3802
vn 0.4898 0.8703 0.0518
vn 0.3869 0.8664 -0.3158
vn 0.0004 1.0000 0.0004
vn 0.0417 0.9973 0.0611
vn 0.1564 0.9512 0.2659
vn 0.2655 0.8316 0.4878
vn 0.3134 0.7789 0.5432
vn 0.3240 0.8454 0.4246
vn 0.2898 0.9469 0.1397
vn 0.1944 0.9543 -0.2271
vn 0.0062 0.9999 0.0145
vn 0.0326 0.9842 0.1739
vn 0.0808 0.9002 0.4278
vn 0.1356 0.8275 0.5448
vn 0.1582 0.8665 0.4734
vn 0.1228 0.9657 0.2287
vn 0.0393 0.9900 -0.1357
vn -0.0000 0.9998 0.0202
vn -0.0003 0.9828 0.1849
vn -0.0053 0.9111 0.4122
vn -0.0111 0.8599 0.5103
vn -0.0038 0.8782 0.4783
vn 0.0126 0.9534 0.3014
vn 0.0163 0.9998 -0.0142
vn -0.0028 0.9997 0.0230
vn -0.0144 0.9811 0.1930
vn -0.0316 0.9066 0.4208
vn -0.0369 0.8608 0.5076
vn -0.0021 0.8939 0.4483
vn 0.0893 0.9648 0.2475
vn 0.1920 0.9798 -0.0554
vn -0.0317 0.9995 -0.0032
vn -0.0202 0.9998 -0.0084
vn -0.0150 0.9999 0.0032
vn -0.0649 0.9953 0.0725
vn -0.1586 0.9551 0.2501
vn -0.2199 0.8734 0.4346
vn -0.2142 0.8527 0.4765
vn -0.1449 0.9194 0.3656
vn -0.0100 0.9931 0.1172
vn 0.1487 0.9720 -0.1818
vn -0.2609 0.9652 -0.0159
vn -0.2196 0.9743 -0.0512
vn -0.1875 0.9823 0.0062
vn -0.2407 0.9554 0.1710
vn -0.3413 0.8742 0.3454
vn -0.3901 0.8078 0.4419
vn -0.3827 0.8320 0.4017
vn -0.3029 0.9253 0.2281
vn -0.1494 0.9873 -0.0537
vn 0.0182 0.9438 -0.3301
vn -0.5403 0.8407 -0.0352
vn -0.4920 0.8614 -0.1262
vn -0.4480 0.8940 0.0033
vn -0.4501 0.8626 0.2308
vn -0.4427 0.8150 0.3739
vn -0.4386 0.7710 0.4618
vn -0.4771 0.8090 0.3432
vn -0.4598 0.8839 0.0854
vn -0.3228 0.9190 -0.2265
vn -0.1358 0.8775 -0.4601
vn -0.6393 0.7670 -0.0554
vn -0.5951 0.7777 -0.2028
vn -0.5766 0.8170 -0.0000
vn -0.5699 0.7870 0.2363
vn -0.5137 0.8040 0.2994
vn -0.3834 0.8074 0.4485
vn -0.3610 0.8556 0.3710
vn -0.3885 0.9213 0.0135
vn -0.3190 0.8792 -0.3538
vn -0.1925 0.8090 -0.5554
vn -0.6081 0.7898 -0.0800
vn -0.5554 0.7821 -0.2825
vn -0.5610 0.8278 -0.0000
vn -0.5554 0.7821 0.2825
vn -0.5414 0.8314 0.1256
vn -0.3279 0.9023 0.2798
vn -0.0662 0.9343 0.3502
vn 0.0001 0.9134 -0.4070
vn 0.0011 0.7994 -0.6009
vn -0.4170 0.9020 -0.1116
vn -0.3660 0.8556 -0.3660
vn -0.3888 0.9213 -0.0000
vn -0.3660 0.8556 0.3660
vn -0.3917 0.9199 0.0182
vn -0.2033 0.9745 -0.0949
vn 0.2033 0.9745 0.0949
vn 0.3917 0.9199 -0.0182
vn 0.3660 0.8556 -0.3660
vn 0.2825 0.7821 -0.5554
vn -0.0000 0.9916 -0.1290
vn -0.0000 0.9134 -0.4070
vn -0.0000 0.9134 0.4070
vn 0.0662 0.9343 -0.3502
vn 0.3279 0.9023 -0.2798
vn 0.5414 0.8314 -0.1256
vn 0.5554 0.7821 -0.2825
vn 0.4525 0.7684 -0.4525
vn 0.4170 0.9020 -0.1116
vn 0.3888 0.9213 -0.0000
vn 0.3660 0.8556 0.3660
vn 0.4070 0.9134 -0.0000
vn 0.3835 0.8074 -0.4484
vn 0.5137 0.8040 -0.2994
vn 0.5699 0.7870 -0.2363
vn 0.4926 0.8044 -0.3320
vt 5.045455 5.045455
vt 5.500000 5.045455
vt 5.500000 5.500000
vt 5.045455 5.500000
vt 0.045454 5.045455
vt 0.500000 5.045455
vt 0.500000 5.500000
vt 0.045454 5.500000
vt 0.045454 0.045454
vt 0.500000 0.045454
vt 0.500000 0.500000
vt 0.045454 0.500000
vt 5.045455 0.045454
vt 5.500000 0.045454
vt 5.500000 0.500000
vt 5.045455 0.500000
vt 0.954545 0.045454
vt 0.954546 0.500000
vt 1.409091 0.045454
vt 1.409091 0.500000
vt 1.863637 0.045454
vt 1.863637 0.500000
vt 2.318182 0.045454
vt 2.318182 0.500000
vt 2.772727 0.045454
vt 2.772727 0.500000
vt 3.227273 0.045454
vt 3.227273 0.500000
vt 3.681818 0.045454
vt 3.681818 0.500000
vt 4.136364 0.045454
vt 4.136364 0.500000
vt 4.590909 0.045454
vt 4.590909 0.500000
vt 0.500000 -4.500000
vt 0.954545 -4.500000
vt 0.954545 -4.045455
vt 0.500000 -4.045455
vt 0.954545 -3.590909
vt 0.500000 -3.590909
vt 0.954545 -3.136364
vt 0.500000 -3.136364
vt 0.954545 -2.681818
vt 0.500000 -2.681818
vt 0.954545 -2.227273
vt 0.500000 -2.227273
vt 0.954545 -1.772727
vt 0.500000 -1.772727
vt 0.954545 -1.318182
vt 0.500000 -1.318182
vt 0.954545 -0.863636
vt 0.500000 -0.863636
vt 0.954545 -0.409091
vt 0.500000 -0.409091
vt 1.409091 -4.500000
vt 1.409090 -4.045455
vt 1.409090 -3.590909
vt 1.409090 -3.136364
vt 1.409090 -2.681818
vt 1.409091 -2.227273
vt 1.409091 -1.772727
vt 1.409091 -1.318182
vt 1.409091 -0.863636
vt 1.409091 -0.409091
vt 1.863636 -4.500000
vt 1.863636 -4.045455
vt 1.863636 -3.590909
vt 1.863636 -3.136364
vt 1.863636 -2.681818
vt 1.863637 -2.227273
vt 1.863637 -1.772727
vt 1.863637 -1.318182
vt 1.863637 -0.863636
vt 1.863637 -0.409091
vt 2.318182 -4.500000
vt 2.318182 -4.045455
vt 2.318182 -3.590909
vt 2.318182 -3.136364
vt 2.318182 -2.681818
vt 2.318183 -2.227273
vt 2.318183 -1.772727
vt 2.318184 -1.318182
vt 2.318183 -0.863636
vt 2.318182 -0.409091
vt 2.772727 -4.500000
vt 2.772727 -4.045455
vt 2.772727 -3.590909
vt 2.772727 -3.136364
vt 2.772727 -2.681818
vt 2.772727 -2.227273
vt 2.772727 -1.772727
vt 2.772727 -1.318182
vt 2.772727 -0.863636
vt 2.772727 -0.409091
vt 3.227273 -4.500000
vt 3.227273 -4.045455
vt 3.227273 -3.590909
vt 3.227273 -3.136364
vt 3.227273 -2.681818
vt 3.227274 -2.227273
vt 3.227273 -1.772727
vt 3.227274 -1.318182
vt 3.227273 -0.863636
vt 3.227273 -0.409091
vt 3.681819 -4.500000
vt 3.681818 -4.045455
vt 3.681818 -3.590909
vt 3.681818 -3.136364
vt 3.681818 -2.681818
vt 3.681818 -2.227273
vt 3.681818 -1.772727
vt 3.681818 -1.318182
vt 3.681818 -0.863636
vt 3.681818 -0.409091
vt 4.136364 -4.500000
vt 4.136364 -4.045455
vt 4.136364 -3.590909
vt 4.136364 -3.136364
vt 4.136364 -2.681818
vt 4.136364 -2.227273
vt 4.136364 -1.772727
vt 4.136364 -1.318182
vt 4.136364 -0.863636
vt 4.136364 -0.409091
vt 4.590909 -4.500000
vt 4.590909 -4.045455
vt 4.590909 -3.590909
vt 4.590909 -3.136364
vt 4.590909 -2.681818
vt 4.590909 -2.227273
vt 4.590909 -1.772727
vt 4.590909 -1.318182
vt 4.590909 -0.863636
vt 4.590909 -0.409091
vt 5.045455 -4.500000
vt 5.045455 -4.045455
vt 5.045455 -3.590909
vt 5.045455 -3.136364
vt 5.045455 -2.681818
vt 5.045455 -2.227273
vt 5.045455 -1.772727
vt 5.045455 -1.318182
vt 5.045455 -0.863636
vt 5.045455 -0.409091
vt 5.500000 -4.500000
vt 5.500000 -4.045455
vt 5.500000 -3.590909
vt 5.500000 -3.136364
vt 5.500000 -2.681818
vt 5.500000 -2.227273
vt 5.500000 -1.772727
vt 5.500000 -1.318182
vt 5.500000 -0.863636
vt 5.500000 -0.409091
vt -4.500000 0.045454
vt -4.045455 0.045454
vt -4.045455 0.500000
vt -4.500000 0.500000
vt -3.590909 0.045454
vt -3.590909 0.500000
vt -3.136364 0.045454
vt -3.136364 0.500000
vt -2.681818 0.045454
vt -2.681818 0.500000
vt -2.227273 0.045454
vt -2.227273 0.500000
vt -1.772727 0.045454
vt -1.772727 0.500000
vt -1.318182 0.045454
vt -1.318182 0.500000
vt -0.863637 0.045454
vt -0.863637 0.500000
vt -0.409091 0.045454
vt -0.409091 0.500000
vt -4.500000 -4.500000
vt -4.045455 -4.500000
vt -4.045455 -4.045455
vt -4.500000 -4.045455
vt -4.045455 -3.590909
vt -4.500000 -3.590909
vt -4.045455 -3.136364
vt -4.500000 -3.136364
vt -4.045455 -2.681818
vt -4.500000 -2.681818
vt -4.045455 -2.227273
vt -4.500000 -2.227273
vt -4.045455 -1.772727
vt -4.500000 -1.772727
vt -4.045455 -1.318182
vt -4.500000 -1.318182
vt -4.045455 -0.863636
vt -4.500000 -0.863636
vt -4.045455 -0.409091
vt -4.500000 -0.409091
vt -3.590909 -4.500000
vt -3.590909 -4.045455
vt -3.590909 -3.590909
vt -3.590909 -3.136364
vt -3.590909 -2.681818
vt -3.590909 -2.227273
vt -3.590909 -1.772727
vt -3.590909 -1.318182
vt -3.590909 -0.863636
vt -3.590909 -0.409091
vt -3.136364 -4.500000
vt -3.136364 -4.045455
vt -3.136364 -3.590909
vt -3.136364 -3.136364
vt -3.136364 -2.681818
vt -3.136364 -2.227273
vt -3.136364 -1.772727
vt -3.136364 -1.318182
vt -3.136364 -0.863636
vt -3.136364 -0.409091
vt -2.681818 -4.500000
vt -2.681818 -4.045455
vt -2.681818 -3.590909
vt -2.681818 -3.136364
vt -2.681818 -2.681818
vt -2.681818 -2.227273
vt -2.681818 -1.772727
vt -2.681818 -1.318182
vt -2.681818 -0.863636
vt -2.681818 -0.409091
vt -2.227273 -4.500000
vt -2.227273 -4.045455
vt -2.227273 -3.590909
vt -2.227273 -3.136364
vt -2.227273 -2.681818
vt -2.227273 -2.227273
vt -2.227273 -1.772727
vt -2.227273 -1.318182
vt -2.227273 -0.863636
vt -2.227273 -0.409091
vt -1.772727 -4.500000
vt -1.772727 -4.045455
vt -1.772727 -3.590909
vt -1.772727 -3.136364
vt -1.772727 -2.681818
vt -1.772727 -2.227273
vt -1.772727 -1.772727
vt -1.772727 -1.318182
vt -1.772727 -0.863636
vt -1.772727 -0.409091
vt -1.318182 -4.500000
vt -1.318182 -4.045455
vt -1.318182 -3.590909
vt -1.318182 -3.136364
vt -1.318182 -2.681818
vt -1.318181 -2.227273
vt -1.318181 -1.772727
vt -1.318181 -1.318182
vt -1.318181 -0.863636
vt -1.318182 -0.409091
vt -0.863636 -4.500000
vt -0.863637 -4.045455
vt -0.863637 -3.590909
vt -0.863636 -3.136364
vt -0.863637 -2.681818
vt -0.863637 -2.227273
vt -0.863637 -1.772727
vt -0.863637 -1.318182
vt -0.863637 -0.863636
vt -0.863637 -0.409091
vt -0.409091 -4.500000
vt -0.409091 -4.045455
vt -0.409092 -3.590909
vt -0.409092 -3.136364
vt -0.409091 -2.681818
vt -0.409091 -2.227273
vt -0.409091 -1.772727
vt -0.409091 -1.318182
vt -0.409091 -0.863636
vt -0.409092 -0.409091
vt 0.045454 -4.500000
vt 0.045454 -4.045455
vt 0.045454 -3.590909
vt 0.045454 -3.136364
vt 0.045454 -2.681818
vt 0.045454 -2.227273
vt 0.045454 -1.772727
vt 0.045454 -1.318182
vt 0.045454 -0.863636
vt 0.045454 -0.409091
vt -4.500000 5.045455
vt -4.045455 5.045455
vt -4.045455 5.500000
vt -4.500000 5.500000
vt -3.590909 5.045455
vt -3.590909 5.500000
vt -3.136364 5.045455
vt -3.136364 5.500000
vt -2.681818 5.045455
vt -2.681818 5.500000
vt -2.227273 5.045455
vt -2.227273 5.500000
vt -1.772727 5.045455
vt -1.772727 5.500000
vt -1.318182 5.045455
vt -1.318182 5.500000
vt -0.863637 5.045455
vt -0.863637 5.500000
vt -0.409091 5.045455
vt -0.409091 5.500000
vt -4.045455 0.954545
vt -4.500000 0.954546
vt -4.045455 1.409091
vt -4.500000 1.409091
vt -4.045455 1.863636
vt -4.500000 1.863637
vt -4.045455 2.318182
vt -4.500000 2.318182
vt -4.045455 2.772727
vt -4.500000 2.772727
vt -4.045455 3.227273
vt -4.500000 3.227273
vt -4.045455 3.681819
vt -4.500000 3.681818
vt -4.045455 4.136364
vt -4.500000 4.136364
vt -4.045455 4.590909
vt -4.500000 4.590909
vt -3.590909 0.954545
vt -3.590909 1.409091
vt -3.590909 1.863636
vt -3.590909 2.318182
vt -3.590909 2.772727
vt -3.590909 3.227273
vt -3.590909 3.681819
vt -3.590909 4.136364
vt -3.590909 4.590909
vt -3.136364 0.954545
vt -3.136364 1.409091
vt -3.136364 1.863636
vt -3.136364 2.318182
vt -3.136364 2.772727
vt -3.136364 3.227273
vt -3.136364 3.681819
vt -3.136364 4.136364
vt -3.136364 4.590909
vt -2.681818 0.954545
vt -2.681818 1.409091
vt -2.681818 1.863636
vt -2.681818 2.318182
vt -2.681818 2.772727
vt -2.681818 3.227273
vt -2.681818 3.681819
vt -2.681818 4.136364
vt -2.681818 4.590909
vt -2.227273 0.954545
vt -2.227273 1.409091
vt -2.227273 1.863636
vt -2.227273 2.318182
vt -2.227273 2.772727
vt -2.227273 3.227273
vt -2.227273 3.681819
vt -2.227273 4.136364
vt -2.227273 4.590909
vt -1.772727 0.954545
vt -1.772727 1.409091
vt -1.772727 1.863636
vt -1.772727 2.318182
vt -1.772727 2.772727
vt -1.772727 3.227273
vt -1.772727 3.681819
vt -1.772727 4.136364
vt -1.772727 4.590909
vt -1.318182 0.954545
vt -1.318182 1.409091
vt -1.318182 1.863636
vt -1.318182 2.318182
vt -1.318182 2.772727
vt -1.318182 3.227273
vt -1.318182 3.681819
vt -1.318182 4.136364
vt -1.318182 4.590909
vt -0.863637 0.954545
vt -0.863637 1.409091
vt -0.863637 1.863636
vt -0.863637 2.318182
vt -0.863637 2.772727
vt -0.863637 3.227273
vt -0.863637 3.681819
vt -0.863637 4.136364
vt -0.863637 4.590909
vt -0.409091 0.954545
vt -0.409092 1.409091
vt -0.409092 1.863636
vt -0.409091 2.318182
vt -0.409091 2.772727
vt -0.409091 3.227273
vt -0.409091 3.681819
vt -0.409091 4.136364
vt -0.409092 4.590909
vt 0.045454 0.954545
vt 0.045454 1.409091
vt 0.045454 1.863636
vt 0.045454 2.318182
vt 0.045454 2.772727
vt 0.045454 3.227273
vt 0.045454 3.681819
vt 0.045454 4.136364
vt 0.045454 4.590909
vt 0.500000 0.954545
vt 0.500000 1.409091
vt 0.500000 1.863636
vt 0.500000 2.318182
vt 0.500000 2.772727
vt 0.500000 3.227273
vt 0.500000 3.681819
vt 0.500000 4.136364
vt 0.500000 4.590909
vt 0.954545 5.045455
vt 0.954546 5.500000
vt 1.409091 5.045455
vt 1.409091 5.500000
vt 1.863637 5.045455
vt 1.863637 5.500000
vt 2.318182 5.045455
vt 2.318182 5.500000
vt 2.772727 5.045455
vt 2.772727 5.500000
vt 3.227273 5.045455
vt 3.227273 5.500000
vt 3.681818 5.045455
vt 3.681818 5.500000
vt 4.136364 5.045455
vt 4.136364 5.500000
vt 4.590909 5.045455
vt 4.590909 5.500000
vt 0.954546 0.954545
vt 0.954546 1.409091
vt 0.954546 1.863636
vt 0.954546 2.318182
vt 0.954546 2.772727
vt 0.954546 3.227273
vt 0.954546 3.681819
vt 0.954546 4.136364
vt 0.954545 4.590909
vt 1.409091 0.954545
vt 1.409091 1.409091
vt 1.409091 1.863636
vt 1.409091 2.318182
vt 1.409092 2.772727
vt 1.409092 3.227273
vt 1.409092 3.681819
vt 1.409091 4.136364
vt 1.409091 4.590909
vt 1.863637 0.954545
vt 1.863637 1.409091
vt 1.863637 1.863636
vt 1.863637 2.318182
vt 1.863637 2.772727
vt 1.863637 3.227273
vt 1.863637 3.681819
vt 1.863637 4.136364
vt 1.863637 4.590909
vt 2.318182 0.954545
vt 2.318182 1.409091
vt 2.318182 1.863636
vt 2.318182 2.318182
vt 2.318183 2.772727
vt 2.318183 3.227273
vt 2.318184 3.681819
vt 2.318183 4.136364
vt 2.318182 4.590909
vt 2.772727 0.954545
vt 2.772727 1.409091
vt 2.772727 1.863636
vt 2.772727 2.318182
vt 2.772727 2.772727
vt 2.772727 3.227273
vt 2.772727 3.681819
vt 2.772727 4.136364
vt 2.772727 4.590909
vt 3.227273 0.954545
vt 3.227273 1.409091
vt 3.227273 1.863636
vt 3.227273 2.318182
vt 3.227274 2.772727
vt 3.227273 3.227273
vt 3.227274 3.681819
vt 3.227273 4.136364
vt 3.227273 4.590909
vt 3.681818 0.954545
vt 3.681817 1.409091
vt 3.681818 1.863636
vt 3.681818 2.318182
vt 3.681818 2.772727
vt 3.681818 3.227273
vt 3.681818 3.681819
vt 3.681818 4.136364
vt 3.681818 4.590909
vt 4.136364 0.954545
vt 4.136364 1.409091
vt 4.136364 1.863636
vt 4.136364 2.318182
vt 4.136364 2.772727
vt 4.136364 3.227273
vt 4.136364 3.681819
vt 4.136364 4.136364
vt 4.136364 4.590909
vt 4.590909 0.954545
vt 4.590909 1.409091
vt 4.590909 1.863636
vt 4.590909 2.318182
vt 4.590909 2.772727
vt 4.590909 3.227273
vt 4.590909 3.681819
vt 4.590909 4.136364
vt 4.590909 4.590909
vt 5.045455 0.954545
vt 5.045455 1.409091
vt 5.045455 1.863636
vt 5.045455 2.318182
vt 5.045455 2.772727
vt 5.045455 3.227273
vt 5.045455 3.681819
vt 5.045455 4.136364
vt 5.045455 4.590909
vt 5.500000 0.954545
vt 5.500000 1.409091
vt 5.500000 1.863636
vt 5.500000 2.318182
vt 5.500000 2.772727
vt 5.500000 3.227273
vt 5.500000 3.681819
vt 5.500000 4.136364
vt 5.500000 4.590909
s 1
usemtl teren
f 529/1/454 39/2/38 4/3/4 80/4/77
f 429/5/365 99/6/93 8/7/8 40/8/39
f 329/9/9 109/10/9 9/11/9 110/12/9
f 229/13/107 79/14/7 7/15/7 120/16/107
f 109/10/9 139/17/9 129/18/9 9/11/9
f 139/17/9 149/19/9 128/20/9 129/18/9
f 149/19/9 159/21/113 127/22/113 128/20/9
f 159/21/113 169/23/112 126/24/112 127/22/113
f 169/23/112 179/25/111 125/26/111 126/24/112
f 179/25/111 189/27/110 124/28/110 125/26/111
f 189/27/110 199/29/109 123/30/109 124/28/110
f 199/29/109 209/31/108 122/32/108 123/30/109
f 209/31/108 219/33/9 121/34/9 122/32/108
f 219/33/9 229/13/107 120/16/107 121/34/9
f 6/35/6 20/36/20 130/37/114 100/38/94
f 100/38/94 130/37/114 131/39/115 101/40/95
f 101/40/95 131/39/115 132/41/116 102/42/96
f 102/42/96 132/41/116 133/43/117 103/44/97
f 103/44/97 133/43/117 134/45/118 104/46/98
f 104/46/98 134/45/118 135/47/119 105/48/99
f 105/48/99 135/47/119 136/49/9 106/50/9
f 106/50/9 136/49/9 137/51/9 107/52/9
f 107/52/9 137/51/9 138/53/9 108/54/9
f 108/54/9 138/53/9 139/17/9 109/10/9
f 20/36/20 21/55/21 140/56/120 130/37/114
f 130/37/114 140/56/120 141/57/121 131/39/115
f 131/39/115 141/57/121 142/58/122 132/41/116
f 132/41/116 142/58/122 143/59/123 133/43/117
f 133/43/117 143/59/123 144/60/124 134/45/118
f 134/45/118 144/60/124 145/61/125 135/47/119
f 135/47/119 145/61/125 146/62/9 136/49/9
f 136/49/9 146/62/9 147/63/9 137/51/9
f 137/51/9 147/63/9 148/64/9 138/53/9
f 138/53/9 148/64/9 149/19/9 139/17/9
f 21/55/21 22/65/22 150/66/126 140/56/120
f 140/56/120 150/66/126 151/67/127 141/57/121
f 141/57/121 151/67/127 152/68/128 142/58/122
f 142/58/122 152/68/128 153/69/129 143/59/123
f 143/59/123 153/69/129 154/70/130 144/60/124
f 144/60/124 154/70/130 155/71/131 145/61/125
f 145/61/125 155/71/131 156/72/132 146/62/9
f 146/62/9 156/72/132 157/73/133 147/63/9
f 147/63/9 157/73/133 158/74/113 148/64/9
f 148/64/9 158/74/113 159/21/113 149/19/9
f 22/65/22 23/75/23 160/76/134 150/66/126
f 150/66/126 160/76/134 161/77/135 151/67/127
f 151/67/127 161/77/135 162/78/136 152/68/128
f 152/68/128 162/78/136 163/79/137 153/69/129
f 153/69/129 163/79/137 164/80/138 154/70/130
f 154/70/130 164/80/138 165/81/139 155/71/131
f 155/71/131 165/81/139 166/82/140 156/72/132
f 156/72/132 166/82/140 167/83/141 157/73/133
f 157/73/133 167/83/141 168/84/112 158/74/113
f 158/74/113 168/84/112 169/23/112 159/21/113
f 23/75/23 24/85/24 170/86/142 160/76/134
f 160/76/134 170/86/142 171/87/143 161/77/135
f 161/77/135 171/87/143 172/88/144 162/78/136
f 162/78/136 172/88/144 173/89/145 163/79/137
f 163/79/137 173/89/145 174/90/146 164/80/138
f 164/80/138 174/90/146 175/91/147 165/81/139
f 165/81/139 175/91/147 176/92/148 166/82/140
f 166/82/140 176/92/148 177/93/149 167/83/141
f 167/83/141 177/93/149 178/94/111 168/84/112
f 168/84/112 178/94/111 179/25/111 169/23/112
f 24/85/24 25/95/25 180/96/150 170/86/142
f 170/86/142 180/96/150 181/97/151 171/87/143
f 171/87/143 181/97/151 182/98/152 172/88/144
f 172/88/144 182/98/152 183/99/153 173/89/145
f 173/89/145 183/99/153 184/100/154 174/90/146
f 174/90/146 184/100/154 185/101/155 175/91/147
f 175/91/147 185/101/155 186/102/156 176/92/148
f 176/92/148 186/102/156 187/103/157 177/93/149
f 177/93/149 187/103/157 188/104/110 178/94/111
f 178/94/111 188/104/110 189/27/110 179/25/111
f 25/95/25 26/105/26 190/106/158 180/96/150
f 180/96/150 190/106/158 191/107/159 181/97/151
f 181/97/151 191/107/159 192/108/160 182/98/152
f 182/98/152 192/108/160 193/109/161 183/99/153
f 183/99/153 193/109/161 194/110/162 184/100/154
f 184/100/154 194/110/162 195/111/163 185/101/155
f 185/101/155 195/111/163 196/112/164 186/102/156
f 186/102/156 196/112/164 197/113/165 187/103/157
f 187/103/157 197/113/165 198/114/109 188/104/110
f 188/104/110 198/114/109 199/29/109 189/27/110
f 26/105/26 27/115/27 200/116/166 190/106/158
f 190/106/158 200/116/166 201/117/167 191/107/159
f 191/107/159 201/117/167 202/118/168 192/108/160
f 192/108/160 202/118/168 203/119/169 193/109/161
f 193/109/161 203/119/169 204/120/170 194/110/162
f 194/110/162 204/120/170 205/121/171 195/111/163
f 195/111/163 205/121/171 206/122/172 196/112/164
f 196/112/164 206/122/172 207/123/173 197/113/165
f 197/113/165 207/123/173 208/124/108 198/114/109
f 198/114/109 208/124/108 209/31/108 199/29/109
f 27/115/27 28/125/28 210/126/174 200/116/166
f 200/116/166 210/126/174 211/127/175 201/117/167
f 201/117/167 211/127/175 212/128/176 202/118/168
f 202/118/168 212/128/176 213/129/177 203/119/169
f 203/119/169 213/129/177 214/130/178 204/120/170
f 204/120/170 214/130/178 215/131/179 205/121/171
f 205/121/171 215/131/179 216/132/180 206/122/172
f 206/122/172 216/132/180 217/133/181 207/123/173
f 207/123/173 217/133/181 218/134/9 208/124/108
f 208/124/108 218/134/9 219/33/9 209/31/108
f 28/125/28 29/135/29 220/136/182 210/126/174
f 210/126/174 220/136/182 221/137/183 211/127/175
f 211/127/175 221/137/183 222/138/184 212/128/176
f 212/128/176 222/138/184 223/139/185 213/129/177
f 213/129/177 223/139/185 224/140/186 214/130/178
f 214/130/178 224/140/186 225/141/187 215/131/179
f 215/131/179 225/141/187 226/142/188 216/132/180
f 216/132/180 226/142/188 227/143/189 217/133/181
f 217/133/181 227/143/189 228/144/107 218/134/9
f 218/134/9 228/144/107 229/13/107 219/33/9
f 29/135/29 2/145/2 70/146/69 220/136/182
f 220/136/182 70/146/69 71/147/70 221/137/183
f 221/137/183 71/147/70 72/148/71 222/138/184
f 222/138/184 72/148/71 73/149/72 223/139/185
f 223/139/185 73/149/72 74/150/73 224/140/186
f 224/140/186 74/150/73 75/151/74 225/141/187
f 225/141/187 75/151/74 76/152/75 226/142/188
f 226/142/188 76/152/75 77/153/76 227/143/189
f 227/143/189 77/153/76 78/154/7 228/144/107
f 228/144/107 78/154/7 79/14/7 229/13/107
f 10/155/10 239/156/199 119/157/106 5/158/5
f 239/156/199 249/159/209 118/160/105 119/157/106
f 249/159/209 259/161/219 117/162/104 118/160/105
f 259/161/219 269/163/229 116/164/103 117/162/104
f 269/163/229 279/165/239 115/166/102 116/164/103
f 279/165/239 289/167/247 114/168/101 115/166/102
f 289/167/247 299/169/254 113/170/100 114/168/101
f 299/169/254 309/171/9 112/172/9 113/170/100
f 309/171/9 319/173/9 111/174/9 112/172/9
f 319/173/9 329/9/9 110/12/9 111/174/9
f 1/175/1 60/176/59 230/177/190 19/178/19
f 19/178/19 230/177/190 231/179/191 18/180/18
f 18/180/18 231/179/191 232/181/192 17/182/17
f 17/182/17 232/181/192 233/183/193 16/184/16
f 16/184/16 233/183/193 234/185/194 15/186/15
f 15/186/15 234/185/194 235/187/195 14/188/14
f 14/188/14 235/187/195 236/189/196 13/190/13
f 13/190/13 236/189/196 237/191/197 12/192/12
f 12/192/12 237/191/197 238/193/198 11/194/11
f 11/194/11 238/193/198 239/156/199 10/155/10
f 60/176/59 61/195/60 240/196/200 230/177/190
f 230/177/190 240/196/200 241/197/201 231/179/191
f 231/179/191 241/197/201 242/198/202 232/181/192
f 232/181/192 242/198/202 243/199/203 233/183/193
f 233/183/193 243/199/203 244/200/204 234/185/194
f 234/185/194 244/200/204 245/201/205 235/187/195
f 235/187/195 245/201/205 246/202/206 236/189/196
f 236/189/196 246/202/206 247/203/207 237/191/197
f 237/191/197 247/203/207 248/204/208 238/193/198
f 238/193/198 248/204/208 249/159/209 239/156/199
f 61/195/60 62/205/61 250/206/210 240/196/200
f 240/196/200 250/206/210 251/207/211 241/197/201
f 241/197/201 251/207/211 252/208/212 242/198/202
f 242/198/202 252/208/212 253/209/213 243/199/203
f 243/199/203 253/209/213 254/210/214 244/200/204
f 244/200/204 254/210/214 255/211/215 245/201/205
f 245/201/205 255/211/215 256/212/216 246/202/206
f 246/202/206 256/212/216 257/213/217 247/203/207
f 247/203/207 257/213/217 258/214/218 248/204/208
f 248/204/208 258/214/218 259/161/219 249/159/209
f 62/205/61 63/215/62 260/216/220 250/206/210
f 250/206/210 260/216/220 261/217/221 251/207/211
f 251/207/211 261/217/221 262/218/222 252/208/212
f 252/208/212 262/218/222 263/219/223 253/209/213
f 253/209/213 263/219/223 264/220/224 254/210/214
f 254/210/214 264/220/224 265/221/225 255/211/215
f 255/211/215 265/221/225 266/222/226 256/212/216
f 256/212/216 266/222/226 267/223/227 257/213/217
f 257/213/217 267/223/227 268/224/228 258/214/218
f 258/214/218 268/224/228 269/163/229 259/161/219
f 63/215/62 64/225/63 270/226/230 260/216/220
f 260/216/220 270/226/230 271/227/231 261/217/221
f 261/217/221 271/227/231 272/228/232 262/218/222
f 262/218/222 272/228/232 273/229/233 263/219/223
f 263/219/223 273/229/233 274/230/234 264/220/224
f 264/220/224 274/230/234 275/231/235 265/221/225
f 265/221/225 275/231/235 276/232/236 266/222/226
f 266/222/226 276/232/236 277/233/237 267/223/227
f 267/223/227 277/233/237 278/234/238 268/224/228
f 268/224/228 278/234/238 279/165/239 269/163/229
f 64/225/63 65/235/64 280/236/240 270/226/230
f 270/226/230 280/236/240 281/237/241 271/227/231
f 271/227/231 281/237/241 282/238/242 272/228/232
f 272/228/232 282/238/242 283/239/243 273/229/233
f 273/229/233 283/239/243 284/240/244 274/230/234
f 274/230/234 284/240/244 285/241/245 275/231/235
f 275/231/235 285/241/245 286/242/9 276/232/236
f 276/232/236 286/242/9 287/243/236 277/233/237
f 277/233/237 287/243/236 288/244/246 278/234/238
f 278/234/238 288/244/246 289/167/247 279/165/239
f 65/235/64 66/245/65 290/246/248 280/236/240
f 280/236/240 290/246/248 291/247/249 281/237/241
f 281/237/241 291/247/249 292/248/250 282/238/242
f 282/238/242 292/248/250 293/249/251 283/239/243
f 283/239/243 293/249/251 294/250/252 284/240/244
f 284/240/244 294/250/252 295/251/253 285/241/245
f 285/241/245 295/251/253 296/252/9 286/242/9
f 286/242/9 296/252/9 297/253/9 287/243/236
f 287/243/236 297/253/9 298/254/9 288/244/246
f 288/244/246 298/254/9 299/169/254 289/167/247
f 66/245/65 67/255/66 300/256/255 290/246/248
f 290/246/248 300/256/255 301/257/256 291/247/249
f 291/247/249 301/257/256 302/258/257 292/248/250
f 292/248/250 302/258/257 303/259/258 293/249/251
f 293/249/251 303/259/258 304/260/259 294/250/252
f 294/250/252 304/260/259 305/261/260 295/251/253
f 295/251/253 305/261/260 306/262/9 296/252/9
f 296/252/9 306/262/9 307/263/9 297/253/9
f 297/253/9 307/263/9 308/264/9 298/254/9
f 298/254/9 308/264/9 309/171/9 299/169/254
f 67/255/66 68/265/67 310/266/261 300/256/255
f 300/256/255 310/266/261 311/267/262 301/257/256
f 301/257/256 311/267/262 312/268/263 302/258/257
f 302/258/257 312/268/263 313/269/264 303/259/258
f 303/259/258 313/269/264 314/270/265 304/260/259
f 304/260/259 314/270/265 315/271/266 305/261/260
f 305/261/260 315/271/266 316/272/9 306/262/9
f 306/262/9 316/272/9 317/273/9 307/263/9
f 307/263/9 317/273/9 318/274/9 308/264/9
f 308/264/9 318/274/9 319/173/9 309/171/9
f 68/265/67 69/275/68 320/276/267 310/266/261
f 310/266/261 320/276/267 321/277/268 311/267/262
f 311/267/262 321/277/268 322/278/269 312/268/263
f 312/268/263 322/278/269 323/279/270 313/269/264
f 313/269/264 323/279/270 324/280/271 314/270/265
f 314/270/265 324/280/271 325/281/272 315/271/266
f 315/271/266 325/281/272 326/282/9 316/272/9
f 316/272/9 326/282/9 327/283/9 317/273/9
f 317/273/9 327/283/9 328/284/9 318/274/9
f 318/274/9 328/284/9 329/9/9 319/173/9
f 69/275/68 6/35/6 100/38/94 320/276/267
f 320/276/267 100/38/94 101/40/95 321/277/268
f 321/277/268 101/40/95 102/42/96 322/278/269
f 322/278/269 102/42/96 103/44/97 323/279/270
f 323/279/270 103/44/97 104/46/98 324/280/271
f 324/280/271 104/46/98 105/48/99 325/281/272
f 325/281/272 105/48/99 106/50/9 326/282/9
f 326/282/9 106/50/9 107/52/9 327/283/9
f 327/283/9 107/52/9 108/54/9 328/284/9
f 328/284/9 108/54/9 109/10/9 329/9/9
f 50/285/49 339/286/282 49/287/48 3/288/3
f 339/286/282 349/289/292 48/290/47 49/287/48
f 349/289/292 359/291/302 47/292/46 48/290/47
f 359/291/302 369/293/312 46/294/45 47/292/46
f 369/293/312 379/295/322 45/296/44 46/294/45
f 379/295/322 389/297/332 44/298/43 45/296/44
f 389/297/332 399/299/342 43/300/42 44/298/43
f 399/299/342 409/301/350 42/302/41 43/300/42
f 409/301/350 419/303/358 41/304/40 42/302/41
f 419/303/358 429/5/365 40/8/39 41/304/40
f 5/158/5 119/157/106 330/305/273 59/306/58
f 59/306/58 330/305/273 331/307/274 58/308/57
f 58/308/57 331/307/274 332/309/275 57/310/56
f 57/310/56 332/309/275 333/311/276 56/312/55
f 56/312/55 333/311/276 334/313/277 55/314/54
f 55/314/54 334/313/277 335/315/278 54/316/53
f 54/316/53 335/315/278 336/317/279 53/318/52
f 53/318/52 336/317/279 337/319/280 52/320/51
f 52/320/51 337/319/280 338/321/281 51/322/50
f 51/322/50 338/321/281 339/286/282 50/285/49
f 119/157/106 118/160/105 340/323/283 330/305/273
f 330/305/273 340/323/283 341/324/284 331/307/274
f 331/307/274 341/324/284 342/325/285 332/309/275
f 332/309/275 342/325/285 343/326/286 333/311/276
f 333/311/276 343/326/286 344/327/287 334/313/277
f 334/313/277 344/327/287 345/328/288 335/315/278
f 335/315/278 345/328/288 346/329/289 336/317/279
f 336/317/279 346/329/289 347/330/290 337/319/280
f 337/319/280 347/330/290 348/331/291 338/321/281
f 338/321/281 348/331/291 349/289/292 339/286/282
f 118/160/105 117/162/104 350/332/293 340/323/283
f 340/323/283 350/332/293 351/333/294 341/324/284
f 341/324/284 351/333/294 352/334/295 342/325/285
f 342/325/285 352/334/295 353/335/296 343/326/286
f 343/326/286 353/335/296 354/336/297 344/327/287
f 344/327/287 354/336/297 355/337/298 345/328/288
f 345/328/288 355/337/298 356/338/299 346/329/289
f 346/329/289 356/338/299 357/339/300 347/330/290
f 347/330/290 357/339/300 358/340/301 348/331/291
f 348/331/291 358/340/301 359/291/302 349/289/292
f 117/162/104 116/164/103 360/341/303 350/332/293
f 350/332/293 360/341/303 361/342/304 351/333/294
f 351/333/294 361/342/304 362/343/305 352/334/295
f 352/334/295 362/343/305 363/344/306 353/335/296
f 353/335/296 363/344/306 364/345/307 354/336/297
f 354/336/297 364/345/307 365/346/308 355/337/298
f 355/337/298 365/346/308 366/347/309 356/338/299
f 356/338/299 366/347/309 367/348/310 357/339/300
f 357/339/300 367/348/310 368/349/311 358/340/301
f 358/340/301 368/349/311 369/293/312 359/291/302
f 116/164/103 115/166/102 370/350/313 360/341/303
f 360/341/303 370/350/313 371/351/314 361/342/304
f 361/342/304 371/351/314 372/352/315 362/343/305
f 362/343/305 372/352/315 373/353/316 363/344/306
f 363/344/306 373/353/316 374/354/317 364/345/307
f 364/345/307 374/354/317 375/355/318 365/346/308
f 365/346/308 375/355/318 376/356/319 366/347/309
f 366/347/309 376/356/319 377/357/320 367/348/310
f 367/348/310 377/357/320 378/358/321 368/349/311
f 368/349/311 378/358/321 379/295/322 369/293/312
f 115/166/102 114/168/101 380/359/323 370/350/313
f 370/350/313 380/359/323 381/360/324 371/351/314
f 371/351/314 381/360/324 382/361/325 372/352/315
f 372/352/315 382/361/325 383/362/326 373/353/316
f 373/353/316 383/362/326 384/363/327 374/354/317
f 374/354/317 384/363/327 385/364/328 375/355/318
f 375/355/318 385/364/328 386/365/329 376/356/319
f 376/356/319 386/365/329 387/366/330 377/357/320
f 377/357/320 387/366/330 388/367/331 378/358/321
f 378/358/321 388/367/331 389/297/332 379/295/322
f 114/168/101 113/170/100 390/368/333 380/359/323
f 380/359/323 390/368/333 391/369/334 381/360/324
f 381/360/324 391/369/334 392/370/335 382/361/325
f 382/361/325 392/370/335 393/371/336 383/362/326
f 383/362/326 393/371/336 394/372/337 384/363/327
f 384/363/327 394/372/337 395/373/338 385/364/328
f 385/364/328 395/373/338 396/374/339 386/365/329
f 386/365/329 396/374/339 397/375/340 387/366/330
f 387/366/330 397/375/340 398/376/341 388/367/331
f 388/367/331 398/376/341 399/299/342 389/297/332
f 113/170/100 112/172/9 400/377/9 390/368/333
f 390/368/333 400/377/9 401/378/9 391/369/334
f 391/369/334 401/378/9 402/379/343 392/370/335
f 392/370/335 402/379/343 403/380/344 393/371/336
f 393/371/336 403/380/344 404/381/345 394/372/337
f 394/372/337 404/381/345 405/382/346 395/373/338
f 395/373/338 405/382/346 406/383/347 396/374/339
f 396/374/339 406/383/347 407/384/348 397/375/340
f 397/375/340 407/384/348 408/385/349 398/376/341
f 398/376/341 408/385/349 409/301/350 399/299/342
f 112/172/9 111/174/9 410/386/9 400/377/9
f 400/377/9 410/386/9 411/387/9 401/378/9
f 401/378/9 411/387/9 412/388/351 402/379/343
f 402/379/343 412/388/351 413/389/352 403/380/344
f 403/380/344 413/389/352 414/390/353 404/381/345
f 404/381/345 414/390/353 415/391/354 405/382/346
f 405/382/346 415/391/354 416/392/355 406/383/347
f 406/383/347 416/392/355 417/393/356 407/384/348
f 407/384/348 417/393/356 418/394/357 408/385/349
f 408/385/349 418/394/357 419/303/358 409/301/350
f 111/174/9 110/12/9 420/395/9 410/386/9
f 410/386/9 420/395/9 421/396/9 411/387/9
f 411/387/9 421/396/9 422/397/9 412/388/351
f 412/388/351 422/397/9 423/398/359 413/389/352
f 413/389/352 423/398/359 424/399/360 414/390/353
f 414/390/353 424/399/360 425/400/361 415/391/354
f 415/391/354 425/400/361 426/401/362 416/392/355
f 416/392/355 426/401/362 427/402/363 417/393/356
f 417/393/356 427/402/363 428/403/364 418/394/357
f 418/394/357 428/403/364 429/5/365 419/303/358
f 110/12/9 9/11/9 90/404/9 420/395/9
f 420/395/9 90/404/9 91/405/9 421/396/9
f 421/396/9 91/405/9 92/406/9 422/397/9
f 422/397/9 92/406/9 93/407/87 423/398/359
f 423/398/359 93/407/87 94/408/88 424/399/360
f 424/399/360 94/408/88 95/409/89 425/400/361
f 425/400/361 95/409/89 96/410/90 426/401/362
f 426/401/362 96/410/90 97/411/91 427/402/363
f 427/402/363 97/411/91 98/412/92 428/403/364
f 428/403/364 98/412/92 99/6/93 429/5/365
f 99/6/93 439/413/372 89/414/86 8/7/8
f 439/413/372 449/415/379 88/416/85 89/414/86
f 449/415/379 459/417/389 87/418/84 88/416/85
f 459/417/389 469/419/399 86/420/83 87/418/84
f 469/419/399 479/421/409 85/422/82 86/420/83
f 479/421/409 489/423/419 84/424/81 85/422/82
f 489/423/419 499/425/428 83/426/80 84/424/81
f 499/425/428 509/427/438 82/428/79 83/426/80
f 509/427/438 519/429/446 81/430/78 82/428/79
f 519/429/446 529/1/454 80/4/77 81/430/78
f 9/11/9 129/18/9 430/431/9 90/404/9
f 90/404/9 430/431/9 431/432/9 91/405/9
f 91/405/9 431/432/9 432/433/9 92/406/9
f 92/406/9 432/433/9 433/434/366 93/407/87
f 93/407/87 433/434/366 434/435/367 94/408/88
f 94/408/88 434/435/367 435/436/368 95/409/89
f 95/409/89 435/436/368 436/437/369 96/410/90
f 96/410/90 436/437/369 437/438/370 97/411/91
f 97/411/91 437/438/370 438/439/371 98/412/92
f 98/412/92 438/439/371 439/413/372 99/6/93
f 129/18/9 128/20/9 440/440/9 430/431/9
f 430/431/9 440/440/9 441/441/9 431/432/9
f 431/432/9 441/441/9 442/442/9 432/433/9
f 432/433/9 442/442/9 443/443/373 433/434/366
f 433/434/366 443/443/373 444/444/374 434/435/367
f 434/435/367 444/444/374 445/445/375 435/436/368
f 435/436/368 445/445/375 446/446/376 436/437/369
f 436/437/369 446/446/376 447/447/377 437/438/370
f 437/438/370 447/447/377 448/448/378 438/439/371
f 438/439/371 448/448/378 449/415/379 439/413/372
f 128/20/9 127/22/113 450/449/380 440/440/9
f 440/440/9 450/449/380 451/450/381 441/441/9
f 441/441/9 451/450/381 452/451/382 442/442/9
f 442/442/9 452/451/382 453/452/383 443/443/373
f 443/443/373 453/452/383 454/453/384 444/444/374
f 444/444/374 454/453/384 455/454/385 445/445/375
f 445/445/375 455/454/385 456/455/386 446/446/376
f 446/446/376 456/455/386 457/456/387 447/447/377
f 447/447/377 457/456/387 458/457/388 448/448/378
f 448/448/378 458/457/388 459/417/389 449/415/379
f 127/22/113 126/24/112 460/458/390 450/449/380
f 450/449/380 460/458/390 461/459/391 451/450/381
f 451/450/381 461/459/391 462/460/392 452/451/382
f 452/451/382 462/460/392 463/461/393 453/452/383
f 453/452/383 463/461/393 464/462/394 454/453/384
f 454/453/384 464/462/394 465/463/395 455/454/385
f 455/454/385 465/463/395 466/464/396 456/455/386
f 456/455/386 466/464/396 467/465/397 457/456/387
f 457/456/387 467/465/397 468/466/398 458/457/388
f 458/457/388 468/466/398 469/419/399 459/417/389
f 126/24/112 125/26/111 470/467/400 460/458/390
f 460/458/390 470/467/400 471/468/401 461/459/391
f 461/459/391 471/468/401 472/469/402 462/460/392
f 462/460/392 472/469/402 473/470/403 463/461/393
f 463/461/393 473/470/403 474/471/404 464/462/394
f 464/462/394 474/471/404 475/472/405 465/463/395
f 465/463/395 475/472/405 476/473/406 466/464/396
f 466/464/396 476/473/406 477/474/407 467/465/397
f 467/465/397 477/474/407 478/475/408 468/466/398
f 468/466/398 478/475/408 479/421/409 469/419/399
f 125/26/111 124/28/110 480/476/410 470/467/400
f 470/467/400 480/476/410 481/477/411 471/468/401
f 471/468/401 481/477/411 482/478/412 472/469/402
f 472/469/402 482/478/412 483/479/413 473/470/403
f 473/470/403 483/479/413 484/480/414 474/471/404
f 474/471/404 484/480/414 485/481/415 475/472/405
f 475/472/405 485/481/415 486/482/416 476/473/406
f 476/473/406 486/482/416 487/483/417 477/474/407
f 477/474/407 487/483/417 488/484/418 478/475/408
f 478/475/408 488/484/418 489/423/419 479/421/409
f 124/28/110 123/30/109 490/485/420 480/476/410
f 480/476/410 490/485/420 491/486/421 481/477/411
f 481/477/411 491/486/421 492/487/422 482/478/412
f 482/478/412 492/487/422 493/488/423 483/479/413
f 483/479/413 493/488/423 494/489/424 484/480/414
f 484/480/414 494/489/424 495/490/425 485/481/415
f 485/481/415 495/490/425 496/491/426 486/482/416
f 486/482/416 496/491/426 497/492/9 487/483/417
f 487/483/417 497/492/9 498/493/427 488/484/418
f 488/484/418 498/493/427 499/425/428 489/423/419
f 123/30/109 122/32/108 500/494/429 490/485/420
f 490/485/420 500/494/429 501/495/430 491/486/421
f 491/486/421 501/495/430 502/496/431 492/487/422
f 492/487/422 502/496/431 503/497/432 493/488/423
f 493/488/423 503/497/432 504/498/433 494/489/424
f 494/489/424 504/498/433 505/499/434 495/490/425
f 495/490/425 505/499/434 506/500/435 496/491/426
f 496/491/426 506/500/435 507/501/436 497/492/9
f 497/492/9 507/501/436 508/502/437 498/493/427
f 498/493/427 508/502/437 509/427/438 499/425/428
f 122/32/108 121/34/9 510/503/439 500/494/429
f 500/494/429 510/503/439 511/504/440 501/495/430
f 501/495/430 511/504/440 512/505/9 502/496/431
f 502/496/431 512/505/9 513/506/441 503/497/432
f 503/497/432 513/506/441 514/507/9 504/498/433
f 504/498/433 514/507/9 515/508/442 505/499/434
f 505/499/434 515/508/442 516/509/443 506/500/435
f 506/500/435 516/509/443 517/510/444 507/501/436
f 507/501/436 517/510/444 518/511/445 508/502/437
f 508/502/437 518/511/445 519/429/446 509/427/438
f 121/34/9 120/16/107 520/512/447 510/503/439
f 510/503/439 520/512/447 521/513/437 511/504/440
f 511/504/440 521/513/437 522/514/448 512/505/9
f 512/505/9 522/514/448 523/515/449 513/506/441
f 513/506/441 523/515/449 524/516/450 514/507/9
f 514/507/9 524/516/450 525/517/437 515/508/442
f 515/508/442 525/517/437 526/518/451 516/509/443
f 516/509/443 526/518/451 527/519/452 517/510/444
f 517/510/444 527/519/452 528/520/453 518/511/445
f 518/511/445 528/520/453 529/1/454 519/429/446
f 120/16/107 7/15/7 30/521/30 520/512/447
f 520/512/447 30/521/30 31/522/31 521/513/437
f 521/513/437 31/522/31 32/523/32 522/514/448
f 522/514/448 32/523/32 33/524/33 523/515/449
f 523/515/449 33/524/33 34/525/34 524/516/450
f 524/516/450 34/525/34 35/526/31 525/517/437
f 525/517/437 35/526/31 36/527/35 526/518/451
f 526/518/451 36/527/35 37/528/36 527/519/452
f 527/519/452 37/528/36 38/529/37 528/520/453
f 528/520/453 38/529/37 39/2/38 529/1/454
